<svg xmlns="http://www.w3.org/2000/svg" width="2012" height="584" fill="none"><g clip-path="url(#a)"><mask id="b" width="2012" height="584" x="0" y="0" maskUnits="userSpaceOnUse" style="mask-type:luminance"><path fill="#fff" d="M2012 0H0v584h2012V0Z"/></mask><g fill="#fff" mask="url(#b)"><path fill-rule="evenodd" d="M349.224 106.376c1.954 5.405 2.822 11.459 2.822 18.378 0 3.027-.435 6.486-1.303 9.514-.867 3.459-1.954 6.27-3.256 9.081-1.519 3.027-3.255 5.837-5.426 9.081-1.518 2.378-3.689 4.757-6.511 7.351-2.387 2.162-5.209 4.324-7.814 6.271a56.488 56.488 0 0 1-8.682 4.54c-3.255 1.297-6.294 2.162-9.333 2.811-2.604.648-5.859.865-9.331.865-4.124-.217-7.163-.649-9.985-1.081-3.472-.865-6.294-1.947-8.898-3.243l-.435-.217c-2.387-1.081-5.209-2.594-8.03-4.756l-4.124-3.028c-1.303-1.081-2.605-2.377-3.69-3.46-2.388-2.594-4.341-5.188-6.078-8.216-2.17-3.243-3.689-5.837-4.557-8.432v-.216c-1.302-3.027-2.171-5.838-2.604-8.649-.435-3.675-.652-6.702-.435-9.513v-.649c.217-6.919 1.302-13.189 3.472-18.378 1.954-5.19 4.992-9.946 8.466-14.054 4.991-4.325 8.898-9.73 11.72-15.784 2.821-6.054 4.341-12.757 4.341-19.892.217-6.919-.868-13.622-3.474-20.324-2.387-5.838-6.076-11.243-11.068-16a38.69 38.69 0 0 0-6.946-6.487l-.867-.648c-.652-.433-1.085-.865-1.737-1.298 16.061-6.919 33.642-10.162 51.005-9.946 16.929.217 32.991 3.676 47.967 10.379-4.557 2.378-8.681 5.405-12.588 9.297l-.217.216c-4.776 5.19-8.031 10.379-10.202 15.784-2.604 5.838-3.907 12.108-4.34 19.243-.869 14.27 3.689 26.811 13.673 36.757 3.689 4.324 6.511 9.081 8.465 14.703Zm246.562 189.621c-.433 17.514-4.557 34.595-11.72 50.379-.651-.866-1.085-1.947-1.737-2.811l-1.085-1.298c-1.519-1.729-3.039-3.676-4.991-5.405-4.775-5.189-10.201-9.298-15.844-11.675-6.294-2.596-13.24-4.326-20.186-4.541h-.217c-7.596 0-14.107 1.296-20.185 3.892-5.861 2.594-11.287 6.054-16.278 11.027-4.558 3.891-9.116 6.486-14.108 8.216-5.86 1.946-12.154 3.027-18.883 2.81h-.434c-3.472.217-6.511-.215-9.55-.864-2.822-.433-5.426-1.298-8.681-3.027-2.605-1.081-5.427-2.595-8.683-4.757l-.65-.433c-2.605-1.945-4.993-3.892-7.163-6.054a46.89 46.89 0 0 1-6.294-7.784 69.809 69.809 0 0 1-4.776-8.648c-1.302-3.675-2.17-6.703-2.821-9.513-.651-2.595-.868-5.839-.651-9.514.217-3.243.217-6.486 1.085-9.082l.217-.432c.868-3.458 1.737-6.269 3.039-8.865l.216-.215c1.52-3.244 3.039-5.838 4.776-8.217l.433-.432c1.521-2.379 3.691-4.973 6.078-7.352 2.387-2.162 5.209-4.541 7.814-6.269 2.171-1.515 5.643-3.46 8.899-4.973 3.255-1.298 6.511-2.162 9.549-3.028 3.039-.649 6.295-.864 9.985-.864 6.728.215 12.588 1.296 18.015 3.675 4.991 1.945 9.766 4.973 14.541 8.865 9.551 10.162 21.705 15.351 36.464 14.919 7.379-.216 13.673-1.298 19.316-3.46 5.644-1.946 11.07-5.189 16.279-9.946 4.124-3.675 7.38-7.784 9.767-12.108 5.642 14.919 8.681 31.135 8.464 47.784ZM317.973 529.942c.217 6.919 1.302 13.405 3.255 19.244v.215c2.604 6.486 5.86 11.676 9.984 16.217 3.473 3.892 7.597 7.135 12.155 9.73-15.411 6.054-31.472 8.865-48.184 8.648-17.798-.432-34.944-4.324-50.572-11.676 1.086-.648 1.954-1.297 2.822-1.945 2.604-1.73 4.775-3.893 6.728-5.838 5.426-4.973 9.333-10.163 11.937-16 3.039-6.487 4.342-12.973 4.342-19.893.217-6.703-1.085-13.621-3.69-20.324-2.387-6.054-6.294-11.459-11.287-16.216-3.689-4.324-6.294-9.08-8.03-14.27-1.953-5.838-3.038-12.108-2.822-18.811v-.865c-.216-2.811 0-5.837.869-8.865v-.215c.651-2.811 1.737-5.839 2.822-8.65l.217-.432c1.085-2.594 2.603-5.405 4.774-8l.218-.216a46.83 46.83 0 0 1 6.294-7.784c2.171-2.163 4.558-4.108 7.813-6.055 3.256-2.162 5.861-3.675 8.682-4.756 3.472-1.513 6.294-2.377 9.333-2.811 3.255-.649 6.728-.864 10.418-.864 3.039 0 6.078.432 9.116 1.081 3.689.864 6.511 1.73 8.899 3.026 3.472 1.73 6.077 3.243 8.681 4.973l.217.217c2.605 1.945 5.209 4.107 6.946 6.054l.217.216c2.388 2.595 4.775 5.406 6.511 7.784 1.736 2.811 3.473 5.838 4.775 9.082v.215c1.302 2.811 2.171 5.622 2.822 8.865v.217a30.595 30.595 0 0 1 .867 9.729c-.216 6.919-1.302 12.973-3.255 17.946-2.387 5.622-5.643 10.595-9.332 14.487-9.551 9.297-14.977 22.053-14.542 36.54Z" clip-rule="evenodd"/><path fill-rule="evenodd" d="M433.003 125.838v.433l-.652 39.351 41.022-.649.433.217c18.015.216 34.945 3.675 50.138 10.162 14.976 6.703 29.084 16.215 41.455 29.189 2.388 2.595 3.907 5.838 4.992 9.081 1.302 3.243 1.737 7.135 1.085 11.027-.216 3.892-1.085 7.784-2.604 11.027-1.52 3.243-3.69 6.054-6.512 8.432-2.604 2.596-5.859 4.541-9.332 5.839-3.69 1.296-7.814 1.945-12.372 2.162-8.248.215-15.193-2.811-20.403-8.433l-.216-.432c-6.728-6.054-13.891-10.811-21.922-13.839-7.813-3.026-16.278-4.756-25.611-4.973-4.774 0-9.767.434-14.324 1.298-4.776 1.081-9.551 2.379-13.892 4.324-4.341 1.73-8.465 4.109-12.154 6.703-3.907 2.379-7.814 5.406-10.852 8.649-3.256 3.243-6.512 6.703-8.899 10.378-2.822 3.892-5.209 7.784-7.163 11.892-1.953 4.324-3.472 8.649-4.557 13.189-.869 4.541-1.519 9.297-1.737 13.838 0 4.757.435 9.514 1.303 14.271.65 4.756 2.17 9.297 3.906 13.838 1.954 4.107 4.124 8.431 6.511 12.323l.218-.215c2.604 4.107 5.426 7.567 8.898 11.026 3.256 3.46 6.946 6.271 10.635 9.082a113.192 113.192 0 0 0 11.939 6.918c4.34 1.947 8.681 3.46 13.456 4.324 4.558.866 9.333 1.298 14.325 1.081 9.333.217 18.015-.864 25.828-3.675 8.031-2.811 15.41-6.918 22.138-12.54l.435-.432c2.604-3.028 5.859-5.19 9.115-6.703 3.257-1.298 7.381-1.947 11.938-1.947a37.473 37.473 0 0 1 11.504 2.379c3.255 1.513 6.511 3.675 8.898 6.918l.652.649c1.301 1.081 2.17 2.379 3.255 3.677 1.085 1.296 1.954 2.809 2.604 4.756.652 1.298 1.085 3.243 1.737 4.973.217 1.73.651 3.459.651 4.973 0 1.946 0 3.675-.651 5.621 0 1.73-.434 3.244-1.085 4.973l.216.217-.216.216-.434 1.081-1.954 3.891h-.434c-.869 1.515-1.736 2.811-2.821 4.109a183.206 183.206 0 0 1-20.403 16.432c-6.945 4.541-14.324 8.433-21.922 11.46-7.813 3.027-15.626 5.19-24.309 6.703-8.464 1.513-17.146 2.162-26.696 1.945h.652l-41.24.432-.867 34.812v.432c-.435 18.162-3.69 34.81-10.201 49.946-6.511 15.135-16.496 28.973-29.301 41.297-2.822 2.595-5.86 4.109-8.899 5.19-3.473 1.081-7.379 1.513-11.069 1.298-4.124-.434-7.814-1.515-11.069-3.028-3.256-1.513-5.861-3.675-8.465-6.271-2.605-2.81-4.34-6.053-5.644-9.513-1.302-3.675-1.953-7.784-2.387-12.108 0-8.433 2.822-15.135 8.682-20.54l.434-.433a65.954 65.954 0 0 0 13.891-21.406c3.039-7.999 4.992-16.432 4.992-25.513a53.834 53.834 0 0 0-1.303-14.487c-.867-4.54-2.387-9.081-4.341-13.405-1.953-4.541-4.124-8.648-6.727-12.54-2.606-3.676-5.643-7.352-8.682-10.811l-.218.216c-3.037-3.459-6.511-6.27-10.2-9.081-3.691-2.811-7.815-5.19-11.939-6.92-4.34-2.162-8.681-3.675-13.238-4.756-4.341-1.081-9.117-1.73-13.891-1.73-4.776 0-9.333.217-14.325 1.298-4.993.864-9.334 2.162-13.674 4.107-4.558 1.73-8.682 3.892-12.589 6.703-3.907 2.595-7.379 5.406-10.852 8.649-3.472 3.46-6.294 6.92-9.116 10.595-2.604 3.892-4.992 7.784-6.945 11.891-1.953 4.325-3.69 8.865-4.559 13.406-.868 4.541-1.518 9.513-1.301 14.271 0 9.08 1.085 17.729 3.907 25.513 2.604 8.001 6.944 15.568 12.805 22.054l.434.432c3.038 2.811 5.209 6.055 6.511 9.298 1.303 3.243 2.171 7.135 2.171 11.676-.218 4.324-.868 8.216-2.388 11.459-1.519 3.459-3.906 6.486-6.945 9.297l-.435.433c-1.301 1.297-2.603 2.594-4.123 3.243-1.302 1.081-2.821 1.73-4.558 2.594l.217.217c-1.736.649-3.256 1.297-5.209 1.513-1.519.432-3.473.649-5.209.866-1.736 0-3.473-.217-5.426-.434-1.736-.432-3.473-.648-4.993-1.296l-.216-.217-1.086-.216c-1.518-.433-2.82-1.081-3.906-1.946-1.52-.865-2.822-1.946-3.907-3.027-6.511-6.486-11.72-13.189-16.279-20.109-4.774-7.135-8.464-14.27-11.72-21.837-3.256-7.783-5.209-15.567-6.728-23.783-1.52-8.649-2.17-17.514-1.953-26.596l-.217-.432.868-34.81-42.758-2.162h-1.085c-9.333-.217-18.015-1.298-26.697-3.028-8.464-1.73-16.278-4.324-23.874-7.784-7.38-3.459-14.76-7.351-21.488-12.324a236.751 236.751 0 0 1-19.534-16.865c-1.085-1.297-1.953-2.81-2.822-4.324-.868-1.297-1.519-2.595-1.953-3.892l-.217-.216-.217-.865-.217-.217v-.432c-.434-1.513-.868-3.243-1.085-4.973-.217-1.945-.217-3.675-.217-5.188a379.3 379.3 0 0 1 .65-5.407c.435-1.945 1.303-3.458 2.171-4.973.651-1.729 1.52-3.243 2.605-4.54 1.302-1.297 2.17-2.595 3.69-3.676l.434-.432c2.821-3.027 6.077-5.189 9.333-6.487 3.472-1.73 7.38-2.162 11.72-2.162 4.34 0 8.248.865 11.503 2.379 3.473 1.513 6.512 3.675 9.116 6.919l.651.648c6.294 5.838 13.457 10.596 21.27 13.405 7.814 3.028 16.496 4.541 25.612 4.758 4.992.215 9.767-.217 14.325-.866 4.775-.649 9.333-2.162 13.674-3.892 4.34-1.728 8.464-4.107 12.153-6.701 3.908-2.596 7.381-5.406 11.07-8.65 3.256-3.243 6.511-6.702 9.117-10.379 2.603-3.675 5.209-7.782 6.944-12.106 1.954-4.326 3.691-8.866 4.776-13.407 1.085-4.756 1.519-9.514 1.519-14.27s-.217-9.514-1.086-14.054c-.868-4.324-2.604-8.865-4.124-13.406-1.735-4.324-3.905-8.216-6.511-12.108-2.604-3.675-5.642-7.35-8.681-10.81-3.256-3.243-6.511-6.27-10.635-9.081-3.691-2.595-7.815-5.19-11.938-7.352-4.341-1.945-8.899-3.675-13.674-4.541-4.558-1.296-9.55-1.728-14.325-1.945-9.115 0-17.58 1.298-25.828 4.324-8.03 2.811-15.41 7.135-22.138 12.973l-.434.216c-5.427 5.622-12.372 8.217-20.837 7.785-4.34-.433-8.465-1.082-11.937-2.595-3.69-1.514-6.511-3.676-9.55-6.054-2.388-2.595-4.558-5.622-6.077-8.865-1.52-3.243-2.17-6.92-2.388-10.81-.217-4.109.434-7.785 1.52-11.028 1.085-3.46 2.821-6.271 5.426-9.082 13.022-12.323 26.913-21.621 42.757-27.459 15.193-6.053 32.123-8.864 50.355-8.432h.434l42.758 2.162.65-39.351.868-.216c.217-9.298 1.302-17.946 3.039-26.595 1.737-8.432 4.341-16.216 7.813-23.784 3.474-7.351 7.598-14.486 12.589-21.405 4.992-6.92 10.635-13.406 16.929-19.676 1.304-1.081 2.822-1.946 4.342-2.81 1.086-.866 2.604-1.298 3.906-1.73l.217-.217.868-.216.218-.216h.434c1.519-.433 3.256-.865 4.774-1.081 1.954-.216 3.691-.216 5.209-.216 1.954.216 3.691.432 5.428.648v.433c1.735.432 3.689.864 5.209 1.73 1.735.648 3.037 1.73 4.34 2.81 1.302 1.081 2.604 1.946 3.906 3.676l.652.648c3.039 2.811 4.992 5.838 6.294 9.082 1.737 3.46 2.171 7.135 2.171 11.675 0 4.325-.869 8.216-2.387 11.46-1.521 3.46-3.908 6.486-6.946 9.08l-.651.65c-6.077 6.27-10.636 13.405-13.457 21.405-2.822 8-4.775 16.216-4.992 25.513l.217.217c-.434 4.756-.217 9.513.434 14.27.868 4.541 2.171 9.297 3.906 13.621 1.954 4.324 3.908 8.433 6.73 12.108 2.603 3.892 5.425 7.352 8.681 11.028 3.256 3.243 6.728 6.486 10.418 9.08 3.689 2.811 8.03 5.19 12.372 6.92 4.341 1.945 8.682 3.675 13.456 4.756 4.775 1.081 9.55 1.513 14.325 1.513 4.775 0 9.55-.215 14.108-1.081 4.34-.864 8.682-2.162 13.457-4.107 4.34-1.947 8.031-3.892 12.155-6.486 3.906-2.596 7.379-5.406 10.852-8.65 3.255-3.243 6.294-6.486 9.116-10.594 2.821-3.675 5.209-7.784 7.161-11.676 2.171-4.541 3.691-9.08 4.776-13.838 1.302-4.54 1.737-9.513 1.953-14.27 0-9.081-1.301-17.73-4.123-25.513-3.039-8-7.38-15.568-13.241-22.054l-.433-.433c-5.426-5.622-8.031-12.54-7.597-20.973.434-4.324 1.086-8.432 2.604-11.892 1.52-3.46 3.473-6.486 6.078-9.513 2.604-2.378 5.643-4.54 8.898-6.054 3.474-1.298 6.946-2.162 10.853-2.379 4.124-.432 7.813.433 10.852 1.514 3.256 1.081 6.511 3.027 9.116 5.405 12.371 12.757 21.704 27.027 27.565 42.379 6.077 15.783 8.681 32.432 8.248 50.594Z" clip-rule="evenodd"/><path fill-rule="evenodd" d="M174.94 290.59c-.217 3.893-.435 6.92-1.085 9.947-.869 3.243-1.954 6.27-3.256 9.081l-.218.216c-1.302 3.028-3.037 5.839-4.774 8.216l-1.954 2.811c-1.518 1.73-3.038 3.46-4.557 4.973-2.387 2.162-4.993 4.109-8.248 6.271-3.039 1.945-5.861 3.459-8.898 4.973-2.606 1.081-5.644 1.946-8.466 2.378-3.038.432-6.294.649-9.333.432h-.868c-7.162-.216-13.239-1.297-18.448-3.243-5.427-2.162-10.419-5.189-14.108-8.649-4.993-5.188-10.202-9.08-15.628-11.676-5.86-3.026-12.805-4.324-20.185-4.539-6.728-.217-13.674.864-20.402 3.675-6.077 2.379-11.503 6.271-16.061 11.027-2.822 2.162-4.992 4.541-6.511 6.919l-.217.432c-.435.649-.869 1.298-1.52 2.163-6.945-16-10.2-33.298-9.984-50.812.217-16.864 3.69-32.648 10.418-47.783 2.605 4.757 5.426 8.649 9.333 12.541 4.775 4.756 10.201 8.216 16.062 10.378 5.643 2.378 11.72 3.892 18.882 4.324 14.542.865 27.13-3.675 37.332-13.621 4.775-4.109 9.767-6.92 14.759-8.649 5.426-1.946 11.503-2.811 18.015-2.595h.434c2.821 0 6.077.217 9.55 1.081 3.472.866 6.511 1.947 9.116 3.46 3.038 1.513 6.076 3.243 8.681 5.19 2.604 1.945 5.21 3.89 7.38 6.486l6.511 7.567s0 .216.217.216c1.52 2.379 3.039 5.406 4.559 8.649v.216c1.085 2.811 2.17 6.054 2.82 8.865.435 2.379.652 5.622.652 9.08Z" clip-rule="evenodd"/><path d="M794.601 283.673c8.247 0 14.976-6.703 14.976-15.351v-41.081c0-8.216-6.729-14.919-14.976-14.919h-26.914v-33.514c0-10.594-8.248-18.595-18.883-18.595h-37.548c-10.636 0-18.666 8.216-18.666 18.595v33.514H678.7c-8.248 0-14.977 6.703-14.977 14.919v41.081c0 8.648 6.729 15.351 14.977 15.351h13.89v76.541c0 67.458 35.161 93.837 93.329 95.783 11.069.433 19.751-8.216 19.751-18.594v-41.73c0-7.567-5.209-13.838-13.022-14.919-19.752-2.811-24.961-14.92-24.961-31.568v-65.513h26.914Zm114.164-71.349h-37.549c-10.635 0-18.665 8.649-18.665 18.595v203.459c0 10.161 8.247 18.594 18.665 18.594h37.549c10.635 0 18.883-8.648 18.883-18.594V230.919c0-9.946-8.248-18.595-18.883-18.595ZM890.099 104c-23.224 0-41.89 18.594-41.89 41.729 0 22.92 18.666 41.73 41.89 41.73 23.223 0 41.89-18.595 41.89-41.73 0-22.919-18.883-41.729-41.89-41.729ZM1119.3 205.185c-29.95 0-50.13 11.461-64.03 29.19v-3.46c0-10.162-8.68-18.595-19.31-18.595h-37.552c-10.2 0-18.883 8.65-18.883 18.595v203.46c0 10.162 8.683 18.595 18.883 18.595h37.552c10.63 0 19.31-8.649 19.31-18.595V332.321c0-35.027 17.37-52.756 42.98-52.756 24.96 0 40.37 20.972 40.37 45.405v109.188c0 10.163 8.68 18.595 18.88 18.595h37.55c10.64 0 19.32-8.648 19.32-18.595V306.375c-.22-65.729-43.63-101.19-95.07-101.19Zm360.73 230.701-76.62-121.514 66.41-83.892c5.87-7.134.45-18.161-9.11-18.161h-49.7c-8.24 0-15.41 3.892-20.63 9.946l-52.95 67.459V136.643c0-10.595-8.68-18.595-18.88-18.595h-37.99c-10.2 0-18.66 8.217-18.66 18.595v297.73c0 10.161 8.68 18.594 18.66 18.594h37.99c10.2 0 18.88-8.648 18.88-18.594v-36.325l19.75-25.945 39.94 67.892c4.78 7.567 13.45 12.972 22.57 12.972h50.58c9.11.217 14.53-9.946 9.76-17.081Zm96.14-317.838h-37.98c-10.2 0-18.88 8.217-18.88 18.595v297.73c0 10.161 8.68 18.594 18.88 18.594h37.98c10.21 0 18.89-8.648 18.89-18.594v-297.73c0-10.595-8.68-18.595-18.89-18.595Zm74.23 317.407V231.996c0-10.163 8.25-18.595 18.88-18.595h37.56c10.63 0 18.88 8.649 18.88 18.595v203.459c0 10.163-8.25 18.595-18.88 18.595h-37.78c-10.63.216-18.66-8.432-18.66-18.595Zm-4.34-288.648c0-22.919 18.89-41.73 41.89-41.73 23.02 0 41.89 18.594 41.89 41.73 0 22.919-18.87 41.729-41.89 41.729-23.22 0-41.89-18.81-41.89-41.729Zm131.54 288.652v-203.46c0-10.162 8.68-18.595 18.88-18.595h37.54c10.65 0 19.32 8.65 19.32 18.595v3.459c13.9-17.73 34.29-29.189 64.03-29.189 51.44 0 94.85 35.46 94.85 101.406v127.784c0 10.162-8.68 18.595-19.31 18.595h-37.56c-10.2 0-18.88-8.649-18.88-18.595V326.486c0-24.433-15.41-45.406-40.37-45.406-25.61 0-42.76 17.729-42.76 52.756v102.055c0 10.162-8.67 18.595-19.32 18.595h-37.54c-10.42-.217-18.88-8.865-18.88-19.027Z"/></g></g><defs><clipPath id="a"><path fill="#fff" d="M0 0h2012v584H0z"/></clipPath></defs></svg>