<svg xmlns="http://www.w3.org/2000/svg" width="603" height="172" fill="none"><g fill="#fff" clip-path="url(#a)"><path fill-rule="evenodd" d="M77.91 97.08c-19.97-.17-35.82-3.24-47.46-7.95 1.05 8.75 4.93 21.58 12.59 39.89-12.54-6.2-22.69-19.58-27.61-48.65-24.2-20.74.61-52.79 77.67-47.35-82.17 5.14-82.61 51.51-15.19 64.05" clip-rule="evenodd"/><path fill-rule="evenodd" d="M68.82 137.12c9.21-8.64 16.57-18.05 22.07-28.23-15.08 1.75-36.25-.72-63.08-9.79 79.381 15.94 91.001-26.36 29.92-54.77 54.071 14.77 70.511 42.63 54.511 56.62-6.56 21.85-25.71 38.32-43.43 36.17h.01Z" clip-rule="evenodd"/><path fill-rule="evenodd" d="M126.19 52.17c7.42 0 13.44 8.49 13.44 18.97 0 10.48-6.02 18.97-13.44 18.97s-13.44-8.49-13.44-18.97c0-10.48 6.02-18.97 13.44-18.97ZM13.44 14.87c7.42 0 13.44 8.49 13.44 18.97 0 10.48-6.02 18.97-13.44 18.97S0 44.31 0 33.84c0-10.47 6.02-18.97 13.44-18.97Zm183.72 61.97v-47.5h-23.17V13.19h71.27v16.15h-23.27v47.5h-24.83Zm167.641-63.65V44.3c0 6.39.98 10.84 2.93 13.32 1.94 2.48 5.31 3.72 10.1 3.72s8.15-1.23 10.07-3.7 2.88-6.92 2.88-13.34V13.19h24.87v33.44c0 11.05-3.03 19.14-9.08 24.28-6.05 5.13-15.63 7.7-28.75 7.7s-22.58-2.59-28.69-7.74c-6.11-5.17-9.17-13.25-9.17-24.24V13.19h24.84Zm58.119 45.97 30.05-.04c.24 1.72 1.32 3.04 3.25 3.98 1.94.93 4.57 1.4 7.92 1.4 3.35 0 5.85-.38 7.52-1.15 1.66-.75 2.48-1.89 2.48-3.41 0-1.35-.72-2.44-2.17-3.26-1.43-.81-3.67-1.41-6.67-1.78l-18.54-2.28c-7.67-.93-13.45-2.97-17.34-6.15-3.89-3.19-5.82-7.45-5.82-12.78 0-7.12 2.94-12.31 8.81-15.59 5.88-3.28 15.24-4.91 28.09-4.91s23.27 1.63 29.76 4.91c6.5 3.28 10.01 8.36 10.53 15.28h-28.84c-.33-2.01-1.54-3.53-3.65-4.54-2.1-1.01-5.06-1.53-8.87-1.53-2.78 0-4.95.38-6.55 1.15-1.58.75-2.38 1.78-2.38 3.07 0 1.2.62 2.13 1.85 2.76 1.23.63 3.77 1.22 7.64 1.76l22.6 3.17c7.08 1.01 12.36 3.06 15.86 6.14 3.49 3.08 5.23 7.24 5.23 12.46 0 7.8-3.49 13.53-10.48 17.17-6.99 3.64-18 5.46-33.05 5.46-11.94 0-21.12-1.84-27.51-5.51-6.4-3.67-9.64-8.93-9.73-15.79m107.199 17.69v-47.5h-23.17V13.19h71.27v16.15h-23.27v47.5h-24.83Z" clip-rule="evenodd"/><path fill-rule="evenodd" d="M276.4 28.48h25.69c7.37 1.93 6.61 8.31 0 8.82H276.4v-8.82Zm-23.67-15.2h55.04c29.26-2.14 33.13 33.63 8.87 37.61l9.12 15.26 4.07-5.43 13.85.04-11.4 16.05 16.31 26.62h-25.58l-4.83-7.79-6.15 7.77-14.48.02 14.38-19.02-20.05-32.39-15.37.04V77.5h-23.77V13.28h-.01Z" clip-rule="evenodd"/><path d="M594.409 0c1.18 0 2.3.22 3.35.66 1.05.44 1.98 1.08 2.8 1.92.79.8 1.4 1.71 1.81 2.74.41 1.03.62 2.12.62 3.27s-.22 2.27-.64 3.32a8.172 8.172 0 0 1-1.88 2.75c-.82.81-1.76 1.43-2.81 1.86-1.05.43-2.14.65-3.26.65-1.12 0-2.24-.22-3.28-.67-1.05-.44-1.98-1.09-2.8-1.92a8.2 8.2 0 0 1-1.82-2.75c-.42-1.03-.63-2.1-.63-3.22 0-.78.1-1.55.31-2.28.21-.74.52-1.47.94-2.17.78-1.31 1.8-2.32 3.08-3.05s2.68-1.09 4.22-1.09m.01 1.42c-.97 0-1.88.17-2.72.51-.84.34-1.59.85-2.26 1.51-.7.7-1.23 1.49-1.61 2.37a7.068 7.068 0 0 0-.03 5.44c.35.85.86 1.62 1.53 2.28.68.7 1.46 1.23 2.34 1.6.88.37 1.79.56 2.73.56s1.82-.18 2.69-.54c.87-.36 1.66-.88 2.38-1.55.67-.64 1.19-1.39 1.55-2.25.37-.86.55-1.75.55-2.66 0-1.02-.17-1.96-.51-2.82-.34-.86-.85-1.63-1.53-2.31a7.023 7.023 0 0 0-2.33-1.61c-.86-.36-1.79-.54-2.78-.54v.01Zm-3.56 2.23h3.73c1.35 0 2.37.23 3.05.68.68.46 1.02 1.14 1.02 2.05 0 .63-.18 1.17-.55 1.62-.37.44-.88.75-1.53.91l2.13 4.25h-2.58l-1.82-3.89h-1.14v3.89h-2.3V3.67h-.01Zm2.3 1.46v2.75h1.14c.68 0 1.18-.11 1.49-.32.32-.22.48-.56.48-1.02 0-.48-.17-.84-.51-1.07-.34-.23-.87-.35-1.57-.35h-1.03v.01Zm-57.13 126.89h4.18c.16 1.13.62 1.96 1.38 2.51.76.54 1.86.82 3.31.82 1.23 0 2.16-.22 2.78-.66.62-.43.93-1.08.93-1.94 0-1.25-1.79-2.28-5.38-3.1-.05 0-.09-.02-.12-.03-.1-.02-.24-.05-.43-.1-1.92-.42-3.29-.89-4.11-1.41a4.451 4.451 0 0 1-1.66-1.88c-.38-.79-.57-1.71-.57-2.78 0-2 .68-3.54 2.04-4.61 1.36-1.06 3.32-1.6 5.89-1.6 2.4 0 4.28.57 5.64 1.7 1.35 1.14 2.07 2.74 2.15 4.81h-4.07c-.08-1-.46-1.75-1.14-2.27-.69-.52-1.67-.78-2.95-.78-1.11 0-1.96.21-2.57.65-.6.43-.9 1.05-.9 1.85 0 1.09 1.17 1.9 3.5 2.45.63.15 1.13.26 1.48.35 1.5.38 2.57.68 3.19.89.63.21 1.18.45 1.65.72.83.47 1.46 1.08 1.88 1.85.42.77.63 1.69.63 2.76 0 2.14-.72 3.8-2.16 4.98-1.44 1.18-3.48 1.77-6.1 1.77-2.62 0-4.62-.6-6.09-1.8-1.47-1.2-2.26-2.91-2.37-5.13m-11.8 6.34v-16.9h-6.1v-3.68h16.4v3.68h-6.06v16.9h-4.24Zm-24.29-6.36h4.18c.16 1.13.62 1.96 1.38 2.51.76.54 1.86.82 3.31.82 1.23 0 2.16-.22 2.78-.66.62-.43.93-1.08.93-1.94 0-1.25-1.79-2.28-5.38-3.1-.05 0-.09-.02-.12-.03-.1-.02-.24-.05-.43-.1-1.92-.42-3.29-.89-4.11-1.41a4.451 4.451 0 0 1-1.66-1.88c-.38-.79-.57-1.71-.57-2.78 0-2 .68-3.54 2.04-4.61 1.36-1.06 3.32-1.6 5.89-1.6 2.4 0 4.28.57 5.64 1.7 1.35 1.14 2.07 2.74 2.15 4.81h-4.07c-.08-1-.46-1.75-1.14-2.27-.69-.52-1.67-.78-2.95-.78-1.11 0-1.96.21-2.57.65-.6.43-.9 1.05-.9 1.85 0 1.09 1.17 1.9 3.5 2.45.63.15 1.13.26 1.48.35 1.5.38 2.57.68 3.19.89.63.21 1.18.45 1.65.72.83.47 1.46 1.08 1.88 1.85.42.77.63 1.69.63 2.76 0 2.14-.72 3.8-2.16 4.98-1.44 1.18-3.48 1.77-6.1 1.77-2.62 0-4.62-.6-6.09-1.8-1.47-1.2-2.26-2.91-2.37-5.13l-.01-.02Zm-7.7 6.36v-20.57h4.23v20.57h-4.23Zm-7.56-2.43c-.76 1.03-1.63 1.79-2.6 2.28-.97.48-2.12.72-3.43.72-2.88 0-5.21-1-6.99-2.99-1.78-2-2.67-4.62-2.67-7.87s.89-5.9 2.67-7.87c1.78-1.96 4.15-2.95 7.11-2.95 2.58 0 4.68.61 6.31 1.85 1.63 1.23 2.6 2.93 2.9 5.09h-4.32c-.26-1.07-.79-1.88-1.6-2.44s-1.86-.84-3.15-.84c-1.72 0-3.08.63-4.06 1.89-.98 1.26-1.47 3-1.47 5.23 0 2.23.51 3.99 1.54 5.25 1.03 1.26 2.43 1.9 4.22 1.9 1.34 0 2.46-.4 3.37-1.19.9-.79 1.46-1.88 1.67-3.26h-4.66v-3.52h8.52v11.13h-2.84l-.52-2.43v.02Zm-22.23 0c-.76 1.03-1.63 1.79-2.6 2.28-.97.48-2.12.72-3.43.72-2.88 0-5.21-1-6.99-2.99-1.78-2-2.68-4.62-2.68-7.87s.89-5.9 2.67-7.87c1.78-1.96 4.15-2.95 7.11-2.95 2.58 0 4.68.61 6.31 1.85 1.63 1.23 2.6 2.93 2.9 5.09h-4.32c-.26-1.07-.79-1.88-1.6-2.44s-1.86-.84-3.15-.84c-1.72 0-3.08.63-4.06 1.89-.98 1.26-1.47 3-1.47 5.23 0 2.23.51 3.99 1.54 5.25 1.03 1.26 2.43 1.9 4.22 1.9 1.34 0 2.46-.4 3.37-1.19.9-.79 1.46-1.88 1.67-3.26h-4.66v-3.52h8.52v11.13h-2.84l-.52-2.43.01.02Zm-35.44-18.2h4.27v12.91c0 1.59.31 2.76.95 3.49.63.73 1.64 1.1 3.02 1.1 1.38 0 2.41-.36 3.05-1.09.64-.72.96-1.89.96-3.49v-12.91h4.23v13.37c0 2.52-.71 4.46-2.12 5.81-1.41 1.35-3.44 2.03-6.1 2.03-2.66 0-4.72-.67-6.14-2.02-1.42-1.34-2.13-3.28-2.13-5.82v-13.37l.01-.01Zm-20.29 20.63v-20.57h9.98c2.24 0 3.91.48 4.98 1.44 1.08.96 1.62 2.43 1.62 4.4 0 1.25-.26 2.3-.79 3.14-.52.84-1.28 1.41-2.27 1.72.9.32 1.53.8 1.91 1.45.38.65.59 1.67.65 3.05l.09 2.43v.09c.02 1.23.29 1.97.8 2.23v.63h-4.64c-.15-.29-.26-.64-.34-1.07-.08-.42-.13-.93-.14-1.52l-.06-2.16c-.05-1.27-.29-2.14-.72-2.58-.43-.45-1.22-.67-2.34-.67h-4.49v8h-4.23l-.01-.01Zm4.23-11.58h4.98c1.08 0 1.87-.22 2.38-.66.51-.44.76-1.13.76-2.07 0-.89-.25-1.57-.74-2.03-.49-.46-1.23-.69-2.2-.69h-5.17v5.45h-.01Zm-25.03 11.58v-20.57h8.06c3.16 0 5.51.85 7.06 2.56 1.55 1.7 2.33 4.29 2.33 7.75 0 1.88-.29 3.54-.86 4.97-.57 1.44-1.41 2.59-2.49 3.46-.82.65-1.75 1.12-2.79 1.41-1.04.28-2.5.42-4.39.42h-6.92Zm4.15-3.72h3.39c1.96 0 3.39-.51 4.27-1.54.88-1.03 1.32-2.7 1.32-5.01 0-2.31-.41-3.99-1.23-5.07-.82-1.08-2.1-1.62-3.84-1.62h-3.91v13.24Zm-28.77-7.8-.81-1.06c-.42-.56-.72-1.08-.9-1.57-.18-.49-.27-1.01-.27-1.54 0-1.49.48-2.67 1.43-3.55.96-.88 2.26-1.32 3.89-1.32 1.63 0 2.82.41 3.73 1.22.91.81 1.37 1.9 1.37 3.28 0 1.04-.27 1.98-.8 2.8-.54.82-1.38 1.6-2.52 2.33l2.95 3.63c.28-.46.5-.97.66-1.54.16-.57.27-1.2.34-1.9h3.63c-.1 1.21-.35 2.33-.75 3.37-.4 1.03-.95 1.98-1.65 2.84l3.74 4.55h-4.74l-1.4-1.72c-.82.75-1.72 1.32-2.7 1.71-.98.39-2.01.58-3.08.58-1.9 0-3.46-.56-4.66-1.69-1.21-1.13-1.81-2.56-1.81-4.31 0-1.3.33-2.43 1.01-3.37.67-.94 1.79-1.85 3.35-2.72l-.01-.02Zm3.15-1.86.49-.35c.45-.31.78-.65 1-1.03.21-.38.32-.82.32-1.31 0-.49-.15-.85-.44-1.13-.3-.28-.7-.42-1.2-.42s-.92.14-1.22.42c-.3.29-.45.67-.45 1.15 0 .26.07.54.21.85.15.31.35.63.62.98l.66.84h.01Zm-1.12 4.4-1.06.77c-.42.3-.75.66-.96 1.08-.21.42-.32.89-.32 1.41 0 .79.27 1.46.81 2s1.22.81 2.03.81c.6 0 1.17-.12 1.71-.37.54-.24 1.05-.61 1.52-1.08l-3.72-4.61-.01-.01Zm-33.76 2.62h4.18c.16 1.13.62 1.96 1.38 2.51.76.54 1.86.82 3.31.82 1.23 0 2.16-.22 2.78-.66.62-.43.93-1.08.93-1.94 0-1.25-1.79-2.28-5.38-3.1-.05 0-.09-.02-.12-.03-.1-.02-.24-.05-.43-.1-1.92-.42-3.29-.89-4.11-1.41a4.451 4.451 0 0 1-1.66-1.88c-.38-.79-.57-1.71-.57-2.78 0-2 .68-3.54 2.04-4.61 1.36-1.06 3.32-1.6 5.89-1.6 2.4 0 4.28.57 5.64 1.7 1.35 1.14 2.07 2.74 2.15 4.81h-4.07c-.08-1-.46-1.75-1.14-2.27-.69-.52-1.67-.78-2.95-.78-1.11 0-1.96.21-2.57.65-.6.43-.9 1.05-.9 1.85 0 1.09 1.17 1.9 3.5 2.45.63.15 1.13.26 1.48.35 1.5.38 2.57.68 3.19.89.63.21 1.18.45 1.64.72.83.47 1.46 1.08 1.88 1.85.42.77.63 1.69.63 2.76 0 2.14-.72 3.8-2.16 4.98-1.44 1.18-3.48 1.77-6.1 1.77-2.62 0-4.62-.6-6.09-1.8-1.47-1.2-2.26-2.91-2.37-5.13v-.02Zm-11.79 6.36v-16.9h-6.1v-3.68h16.4v3.68h-6.06v16.9h-4.24Zm-24.29-6.36h4.18c.16 1.13.62 1.96 1.38 2.51.76.54 1.86.82 3.31.82 1.23 0 2.16-.22 2.78-.66.62-.43.93-1.08.93-1.94 0-1.25-1.79-2.28-5.38-3.1-.05 0-.09-.02-.12-.03-.1-.02-.24-.05-.43-.1-1.92-.42-3.29-.89-4.11-1.41a4.451 4.451 0 0 1-1.66-1.88c-.38-.79-.57-1.71-.57-2.78 0-2 .68-3.54 2.04-4.61 1.36-1.06 3.32-1.6 5.89-1.6 2.4 0 4.28.57 5.64 1.7 1.35 1.14 2.07 2.74 2.15 4.81h-4.07c-.08-1-.46-1.75-1.14-2.27-.69-.52-1.67-.78-2.95-.78-1.11 0-1.96.21-2.57.65-.6.43-.9 1.05-.9 1.85 0 1.09 1.17 1.9 3.5 2.45.63.15 1.13.26 1.48.35 1.5.38 2.57.68 3.19.89.63.21 1.18.45 1.64.72.83.47 1.46 1.08 1.88 1.85.42.77.63 1.69.63 2.76 0 2.14-.72 3.8-2.16 4.98-1.44 1.18-3.48 1.77-6.1 1.77-2.62 0-4.62-.6-6.09-1.8-1.47-1.2-2.26-2.91-2.37-5.13v-.02Zm-7.7 6.36v-20.57h4.23v20.57h-4.23Zm-25.09 0v-20.57h6.26l4.09 15.66 4.04-15.66h6.28v20.57h-3.97v-16.59l-4.18 16.59h-4.33l-4.23-16.59v16.59h-3.97.01Zm-18.68 0v-20.57h14.94v3.58h-10.77v4.39h9.85v3.52h-9.85v5.29h11.27v3.8h-15.45l.01-.01Zm-21.26 0v-20.57h4.26v7.67h8.49v-7.67h4.26v20.57h-4.26v-9.12h-8.49v9.12h-4.26Zm-3.38-7.07c-.16 2.34-1.06 4.2-2.7 5.57-1.64 1.38-3.79 2.06-6.43 2.06-3.05 0-5.42-.95-7.1-2.85-1.69-1.9-2.54-4.56-2.54-7.99 0-3.43.86-6.18 2.58-8.04 1.72-1.86 4.2-2.79 7.43-2.79 2.63 0 4.7.64 6.22 1.92 1.52 1.28 2.36 3.09 2.51 5.43h-4.18c-.18-1.16-.65-2.05-1.43-2.66-.77-.61-1.82-.92-3.13-.92-1.86 0-3.28.6-4.25 1.8-.97 1.2-1.45 2.96-1.45 5.26s.48 3.96 1.44 5.18c.97 1.22 2.34 1.83 4.12 1.83 1.28 0 2.34-.33 3.16-.98.82-.66 1.35-1.6 1.59-2.83h4.15l.01.01Zm335.63-21.55h-354.67v2.35h354.67v-2.35Zm-345.81 47.39c.38.3.68.68.91 1.12.22.45.34.92.34 1.43 0 .64-.16 1.22-.49 1.73-.33.51-.8.92-1.42 1.21-.62.3-1.36.44-2.2.44h-4.72v-12.61h4.53c.86 0 1.59.14 2.19.43.6.28 1.06.67 1.36 1.15.3.48.45 1.03.45 1.63 0 .75-.2 1.37-.61 1.85-.41.49-.94.84-1.61 1.06.46.07.88.26 1.26.56h.01Zm-5.94-1.23h2.77c.77 0 1.37-.18 1.8-.54.42-.36.63-.86.63-1.5s-.21-1.14-.63-1.5c-.42-.36-1.03-.54-1.83-.54h-2.74v4.09-.01Zm4.84 5.23c.46-.39.69-.92.69-1.61 0-.69-.24-1.25-.73-1.66-.48-.4-1.13-.61-1.94-.61h-2.87v4.45h2.92c.82 0 1.46-.19 1.92-.58l.01.01Zm17.27-2.4h-7.94c.06.98.4 1.74 1.01 2.29s1.35.82 2.22.82c.71 0 1.31-.17 1.79-.5.48-.33.81-.78 1.01-1.33h1.78c-.27.95-.8 1.73-1.6 2.32-.8.6-1.79.9-2.97.9-.94 0-1.79-.21-2.53-.63a4.463 4.463 0 0 1-1.75-1.8c-.42-.78-.63-1.68-.63-2.7 0-1.02.21-1.92.62-2.7.41-.77.99-1.37 1.73-1.78.74-.42 1.6-.62 2.57-.62.97 0 1.78.21 2.5.62.72.41 1.28.97 1.68 1.69.39.72.59 1.53.59 2.43 0 .31-.02.65-.05 1l-.03-.01Zm-2.07-2.96c-.28-.45-.66-.8-1.13-1.03-.48-.24-1.01-.35-1.59-.35-.83 0-1.55.27-2.13.8-.59.53-.92 1.27-1.01 2.21h6.28c0-.63-.14-1.17-.42-1.62v-.01Zm7.93-.37c.41-.77.98-1.36 1.71-1.78.73-.42 1.57-.63 2.51-.63 1.22 0 2.23.3 3.02.89.79.59 1.31 1.41 1.57 2.46h-1.78c-.17-.6-.5-1.08-.99-1.43-.49-.35-1.1-.52-1.82-.52-.94 0-1.71.32-2.29.97-.58.65-.87 1.56-.87 2.74 0 1.18.29 2.12.87 2.77.58.65 1.34.98 2.29.98.73 0 1.33-.17 1.81-.51.48-.34.82-.82 1-1.45h1.78c-.27 1.01-.8 1.82-1.6 2.43-.8.61-1.8.91-2.99.91-.94 0-1.78-.21-2.51-.63-.73-.42-1.3-1.02-1.71-1.79-.41-.77-.62-1.68-.62-2.71s.21-1.92.62-2.69v-.01Zm14.629 0c.41-.77.98-1.36 1.7-1.78.72-.42 1.52-.63 2.4-.63.88 0 1.63.19 2.27.56.64.37 1.12.84 1.43 1.41v-1.81h1.67v9.92h-1.67v-1.85c-.33.58-.81 1.06-1.46 1.44-.65.38-1.4.57-2.26.57-.86 0-1.68-.22-2.39-.65a4.537 4.537 0 0 1-1.69-1.83c-.41-.78-.62-1.68-.62-2.68 0-1 .21-1.9.62-2.67Zm7.35.74c-.3-.55-.71-.98-1.22-1.28-.51-.3-1.08-.44-1.7-.44-.62 0-1.18.14-1.69.43s-.91.71-1.22 1.27c-.3.55-.45 1.21-.45 1.95s.15 1.42.45 1.98c.3.56.71.99 1.22 1.28.51.3 1.07.44 1.69.44.62 0 1.18-.15 1.7-.44.51-.3.92-.72 1.22-1.28.3-.56.45-1.22.45-1.96s-.15-1.4-.45-1.95Zm17.36-2.99v9.92h-1.65v-1.47c-.31.51-.75.9-1.31 1.19a4.1 4.1 0 0 1-1.86.42c-.77 0-1.47-.16-2.09-.48-.62-.32-1.1-.8-1.46-1.44-.36-.64-.54-1.42-.54-2.33v-5.81h1.63v5.59c0 .98.25 1.73.74 2.25s1.17.79 2.03.79c.86 0 1.58-.27 2.09-.81.51-.54.76-1.33.76-2.37v-5.45h1.66Zm7.891 9.69c-.6-.26-1.08-.62-1.43-1.09-.35-.46-.54-1-.58-1.6h1.7c.05.49.28.9.7 1.21.42.31.96.47 1.64.47.63 0 1.12-.14 1.49-.42.36-.28.54-.63.54-1.05 0-.42-.19-.76-.58-.97-.39-.21-.99-.42-1.8-.62-.74-.19-1.34-.39-1.81-.59-.47-.2-.86-.49-1.2-.89-.34-.4-.5-.91-.5-1.55 0-.51.15-.97.45-1.39.3-.42.73-.76 1.29-1 .56-.25 1.19-.37 1.91-.37 1.1 0 1.99.28 2.67.83.68.55 1.04 1.32 1.09 2.28h-1.65c-.04-.52-.24-.93-.63-1.25-.39-.32-.89-.47-1.53-.47-.59 0-1.06.13-1.41.38-.35.25-.53.59-.53 1 0 .33.11.59.32.81.21.21.48.38.8.51.32.13.76.27 1.33.43.71.19 1.29.38 1.74.57.45.19.83.47 1.15.84.32.37.49.86.5 1.47 0 .54-.15 1.03-.45 1.47-.3.43-.73.78-1.28 1.02s-1.18.37-1.9.37c-.76 0-1.45-.13-2.05-.39l.01-.01Zm20.639-4.11h-7.94c.06.98.4 1.74 1.01 2.29s1.35.82 2.22.82c.71 0 1.31-.17 1.79-.5.48-.33.81-.78 1.01-1.33h1.78c-.27.95-.8 1.73-1.6 2.32-.8.6-1.79.9-2.97.9-.94 0-1.79-.21-2.53-.63a4.463 4.463 0 0 1-1.75-1.8c-.42-.78-.63-1.68-.63-2.7 0-1.02.21-1.92.62-2.7.41-.77.99-1.37 1.73-1.78.74-.42 1.6-.62 2.57-.62.97 0 1.78.21 2.5.62.72.41 1.28.97 1.68 1.69.39.72.59 1.53.59 2.43 0 .31-.02.65-.05 1l-.03-.01Zm-2.07-2.96c-.28-.45-.66-.8-1.13-1.03-.48-.24-1.01-.35-1.59-.35-.83 0-1.55.27-2.13.8-.59.53-.92 1.27-1.01 2.21h6.28c0-.63-.14-1.17-.42-1.62v-.01Zm27.391-5.31v12.61h-1.65v-5.72h-6.44v5.72h-1.65v-12.61h1.65v5.54h6.44v-5.54h1.65Zm15.46 8.27h-7.94c.06.98.4 1.74 1.01 2.29s1.35.82 2.22.82c.71 0 1.31-.17 1.79-.5.48-.33.81-.78 1.01-1.33h1.78c-.27.95-.8 1.73-1.6 2.32-.8.6-1.79.9-2.97.9-.94 0-1.79-.21-2.53-.63a4.463 4.463 0 0 1-1.75-1.8c-.42-.78-.63-1.68-.63-2.7 0-1.02.21-1.92.62-2.7.41-.77.99-1.37 1.73-1.78.74-.42 1.6-.62 2.57-.62.97 0 1.78.21 2.5.62.72.41 1.28.97 1.68 1.69.39.72.59 1.53.59 2.43 0 .31-.02.65-.05 1l-.03-.01Zm-2.07-2.96c-.28-.45-.66-.8-1.13-1.03-.48-.24-1.01-.35-1.59-.35-.83 0-1.55.27-2.13.8-.59.53-.92 1.27-1.01 2.21h6.28c0-.63-.14-1.17-.42-1.62v-.01Zm7.93-.37c.41-.77.98-1.36 1.7-1.78.72-.42 1.52-.63 2.4-.63.88 0 1.63.19 2.27.56.64.37 1.12.84 1.43 1.41v-1.81h1.67v9.92h-1.67v-1.85c-.33.58-.81 1.06-1.46 1.44-.65.38-1.4.57-2.26.57-.86 0-1.68-.22-2.39-.65a4.537 4.537 0 0 1-1.69-1.83c-.41-.78-.62-1.68-.62-2.68 0-1 .21-1.9.62-2.67Zm7.34.74c-.3-.55-.71-.98-1.22-1.28-.51-.3-1.08-.44-1.7-.44-.62 0-1.18.14-1.69.43s-.91.71-1.22 1.27c-.3.55-.45 1.21-.45 1.95s.15 1.42.45 1.98c.3.56.71.99 1.22 1.28.51.3 1.07.44 1.69.44.62 0 1.18-.15 1.7-.44.51-.3.92-.72 1.22-1.28.3-.56.45-1.22.45-1.96s-.15-1.4-.45-1.95Zm10.199-6.46v13.39h-1.65V149.7h1.65Zm8.451 4.83v5.84c0 .48.1.82.31 1.02.21.2.56.3 1.07.3h1.22v1.39h-1.49c-.92 0-1.61-.21-2.07-.63-.46-.42-.69-1.12-.69-2.08v-5.84h-1.29v-1.36h1.29v-2.5h1.65v2.5h2.59v1.36h-2.59Zm15.18-1.06c.6.32 1.08.8 1.42 1.44.34.64.52 1.42.52 2.33v5.84h-1.63v-5.61c0-.99-.25-1.75-.74-2.27-.5-.52-1.17-.79-2.03-.79-.86 0-1.56.27-2.08.81-.51.54-.77 1.33-.77 2.37v5.48h-1.65v-13.39h1.65v4.89c.33-.51.78-.9 1.35-1.18.57-.28 1.22-.42 1.93-.42.75 0 1.43.16 2.03.48v.02Zm27.939 9.62h-1.65l-6.64-10.04v10.04h-1.65v-12.63h1.65l6.64 10.02v-10.02h1.65v12.63Zm15.451-4.34h-7.94c.06.98.4 1.74 1.01 2.29s1.35.82 2.22.82c.71 0 1.31-.17 1.79-.5.48-.33.81-.78 1.01-1.33h1.78c-.27.95-.8 1.73-1.6 2.32-.8.6-1.79.9-2.97.9-.94 0-1.79-.21-2.53-.63a4.463 4.463 0 0 1-1.75-1.8c-.42-.78-.63-1.68-.63-2.7 0-1.02.21-1.92.62-2.7.41-.77.99-1.37 1.73-1.78.74-.42 1.6-.62 2.57-.62.97 0 1.78.21 2.5.62.72.41 1.28.97 1.68 1.69.39.72.59 1.53.59 2.43 0 .31-.02.65-.05 1l-.03-.01Zm-2.07-2.96c-.28-.45-.66-.8-1.13-1.03-.48-.24-1.01-.35-1.59-.35-.83 0-1.55.27-2.13.8-.59.53-.92 1.27-1.01 2.21h6.28c0-.63-.14-1.17-.42-1.62v-.01Zm16.939 2.96h-7.94c.06.98.4 1.74 1.01 2.29s1.35.82 2.22.82c.71 0 1.31-.17 1.79-.5.48-.33.81-.78 1.01-1.33h1.78c-.27.95-.8 1.73-1.6 2.32-.8.6-1.79.9-2.97.9-.94 0-1.79-.21-2.53-.63a4.463 4.463 0 0 1-1.75-1.8c-.42-.78-.63-1.68-.63-2.7 0-1.02.21-1.92.62-2.7.41-.77.99-1.37 1.73-1.78.74-.42 1.6-.62 2.57-.62.97 0 1.78.21 2.5.62.72.41 1.28.97 1.68 1.69.39.72.59 1.53.59 2.43 0 .31-.02.65-.05 1l-.03-.01Zm-2.06-2.96c-.28-.45-.66-.8-1.13-1.03-.48-.24-1.01-.35-1.59-.35-.83 0-1.55.27-2.13.8-.59.53-.92 1.27-1.01 2.21h6.28c0-.63-.14-1.17-.42-1.62v-.01Zm7.92-.37c.41-.77.98-1.36 1.7-1.78.72-.42 1.53-.63 2.42-.63.77 0 1.49.18 2.16.53.67.35 1.17.82 1.52 1.4v-5.25h1.67v13.39h-1.67v-1.86c-.33.59-.81 1.08-1.45 1.46-.64.38-1.39.57-2.25.57-.86 0-1.68-.22-2.4-.65a4.492 4.492 0 0 1-1.7-1.83c-.41-.78-.62-1.68-.62-2.68 0-1 .21-1.9.62-2.67Zm7.35.74c-.3-.55-.71-.98-1.22-1.28-.51-.3-1.08-.44-1.7-.44-.62 0-1.18.14-1.69.43s-.91.71-1.22 1.27c-.3.55-.45 1.21-.45 1.95s.15 1.42.45 1.98c.3.56.71.99 1.22 1.28.51.3 1.07.44 1.69.44.62 0 1.18-.15 1.7-.44.51-.3.92-.72 1.22-1.28.3-.56.45-1.22.45-1.96s-.15-1.4-.45-1.95Zm10.01 6.7c-.6-.26-1.08-.62-1.43-1.09-.35-.46-.54-1-.58-1.6h1.7c.05.49.28.9.7 1.21.42.31.96.47 1.64.47.63 0 1.12-.14 1.49-.42.36-.28.54-.63.54-1.05 0-.42-.19-.76-.58-.97-.39-.21-.99-.42-1.8-.62-.74-.19-1.34-.39-1.81-.59-.47-.2-.86-.49-1.2-.89-.34-.4-.5-.91-.5-1.55 0-.51.15-.97.45-1.39.3-.42.73-.76 1.29-1 .56-.25 1.19-.37 1.91-.37 1.1 0 1.99.28 2.67.83.68.55 1.04 1.32 1.09 2.28h-1.65c-.04-.52-.24-.93-.63-1.25-.39-.32-.89-.47-1.53-.47-.59 0-1.06.13-1.41.38-.35.25-.53.59-.53 1 0 .33.11.59.32.81.21.21.48.38.8.51.32.13.76.27 1.33.43.71.19 1.29.38 1.74.57.45.19.83.47 1.15.84.32.37.49.86.5 1.47 0 .54-.15 1.03-.45 1.47-.3.43-.73.78-1.28 1.02s-1.18.37-1.9.37c-.76 0-1.45-.13-2.05-.39l.01-.01Zm29.131-12.38v1.34h-3.45v11.27h-1.65v-11.27h-3.46v-1.34h8.56Zm8.56 2.98c.54-.31 1.19-.47 1.97-.47v1.7h-.44c-1.85 0-2.77 1-2.77 3v5.39h-1.65v-9.92h1.65v1.61c.29-.57.7-1.01 1.24-1.32v.01Zm16.309-.29v9.92h-1.65v-1.47c-.31.51-.75.9-1.31 1.19a4.1 4.1 0 0 1-1.86.42c-.77 0-1.47-.16-2.09-.48-.62-.32-1.1-.8-1.46-1.44-.36-.64-.54-1.42-.54-2.33v-5.81h1.63v5.59c0 .98.25 1.73.74 2.25s1.17.79 2.03.79c.86 0 1.58-.27 2.09-.81.51-.54.76-1.33.76-2.37v-5.45h1.66Zm7.891 9.69c-.6-.26-1.08-.62-1.43-1.09-.35-.46-.54-1-.58-1.6h1.7c.05.49.28.9.7 1.21.42.31.96.47 1.64.47.63 0 1.12-.14 1.49-.42.36-.28.54-.63.54-1.05 0-.42-.19-.76-.58-.97-.39-.21-.99-.42-1.8-.62-.74-.19-1.34-.39-1.81-.59-.47-.2-.86-.49-1.2-.89-.34-.4-.5-.91-.5-1.55 0-.51.15-.97.45-1.39.3-.42.73-.76 1.29-1 .56-.25 1.19-.37 1.91-.37 1.1 0 1.99.28 2.67.83.68.55 1.04 1.32 1.09 2.28h-1.65c-.04-.52-.24-.93-.63-1.25-.39-.32-.89-.47-1.53-.47-.59 0-1.06.13-1.41.38-.35.25-.53.59-.53 1 0 .33.11.59.32.81.21.21.48.38.8.51.32.13.76.27 1.33.43.71.19 1.29.38 1.74.57.45.19.83.47 1.15.84.32.37.49.86.5 1.47 0 .54-.15 1.03-.45 1.47-.3.43-.73.78-1.28 1.02s-1.18.37-1.9.37c-.76 0-1.45-.13-2.05-.39l.01-.01Zm13.639-8.33v5.84c0 .48.1.82.31 1.02.21.2.56.3 1.07.3h1.22v1.39h-1.49c-.92 0-1.61-.21-2.07-.63-.46-.42-.69-1.12-.69-2.08v-5.84h-1.29v-1.36h1.29v-2.5h1.65v2.5h2.59v1.36h-2.59Zm7.951 8.34c-.22-.22-.33-.48-.33-.8 0-.32.11-.58.33-.8.22-.22.48-.33.8-.33.32 0 .56.11.77.33.21.22.32.48.32.8 0 .32-.11.58-.32.8-.21.22-.47.33-.77.33-.3 0-.58-.11-.8-.33Zm3.14 6.59h-354.67v2.35h354.67v-2.35Z"/></g><defs><clipPath id="a"><path fill="#fff" d="M0 0h603v171.81H0z"/></clipPath></defs></svg>