<svg xmlns="http://www.w3.org/2000/svg" width="768" height="169" fill="none"><g clip-path="url(#a)"><path fill="#fff" d="M63.586 26.717h12.426v67.372H63.769V53.177L42.32 94.09h-8.857L11.997 53.177V94.09H-.229V26.717h12.426l25.686 49.064 25.703-49.064Zm138.686 27.875L180.69 26.717h-16.096l31.524 39.834v27.538h12.242V66.551l31.591-39.834h-15.578l-22.101 27.875ZM355.236 65.22H395.7V53.43h-40.464V38.507h42.182v-11.79h-54.425v67.372h54.908V82.13h-42.665V65.22Zm123.743 16.843h-38.114V26.717H428.64v67.372h50.339V82.063Zm75.639 0h-38.11V26.717h-12.226v67.372h50.336V82.063Zm36.594-55.346h-12.226v67.372h12.226V26.717Zm78.942 45.948-37.31-45.948h-10.943v67.372h12.226V48.057l36.695 45.257.549.69h10.978V26.718h-12.226l.031 45.948Zm97.458 9.465h-42.668V65.288h40.398v-11.79h-40.398v-14.99h42.168V26.716h-54.408v67.372h54.908V82.13Zm-623.316-7.04h-26.687l-8.473 19H95.543l30.606-67.373h9.674l30.606 67.372h-13.577l-8.556-19Zm-13.343-29.492c-2.202 4.867-6.022 13.306-7.956 17.618h15.928c-1.901-4.295-5.721-12.7-7.939-17.618h-.033ZM315.572 73.59a19.637 19.637 0 0 1-5.421 13.946c-4.2 4.295-10.355 6.468-18.345 6.468H256.78V26.717h35.575c13.346 0 21.183 7.007 21.183 18.763a16.932 16.932 0 0 1-5.202 12.952c6.67 4.767 7.236 12.65 7.236 15.16Zm-14.176-27.875c0-6.114-2.803-7.141-11.224-7.141h-21.083v14.788h21.684c9.357 0 10.623-3.874 10.623-7.647ZM290.088 65.22h-20.999v16.843h21.966c11.026 0 12.292-5.053 12.292-8.876-.014-6.805-4.086-7.967-13.259-7.967Zm165.124 65.166-18.248-22.823h-8.338v32.895h7.82v-22.907l18.349 22.907h8.338v-32.895h-7.855l-.066 22.823Zm28.52-4.144h20.849v-5.507h-20.783v-7.462h22.536v-5.71h-30.707v32.895h31.19v-5.777h-23.019l-.066-8.439Zm73.389 4.885-7.841-23.581h-8.07l-8.039 23.581-7.222-23.581h-8.342l11.109 32.642.101.32h8.123l8.237-23.748 8.022 23.698h8.008l11.676-32.962h-8.341l-7.421 23.631Zm52.172-9.584-10.626-13.98h-9.59l16.029 20.094v12.868h8.158V127.59l15.96-20.027h-9.291l-10.64 13.98Zm64.081 2.51c0 10.105-8.338 17.23-20.282 17.23-11.941 0-20.182-7.091-20.182-17.23 0-10.14 8.338-17.247 20.265-17.247 11.927 0 20.282 7.09 20.282 17.247h-.083Zm-8.171 0c0-8.658-6.524-11.791-12.111-11.791-8.94 0-12.108 6.333-12.108 11.791 0 5.457 3.168 11.79 12.108 11.79 5.671-.067 12.177-3.133 12.177-11.79h-.066Zm54.49 15.613.984.825h-9.259l-.132-.185a7.597 7.597 0 0 1-1.2-5.053c0-5.423-1.168-8-7.775-8h-10.188v13.188h-8.175v-32.878h20.216c9.124 0 14.142 3.251 14.142 9.129.07 3.644-2.232 6.903-5.671 8.017 3.087.8 5.184 3.693 5.007 6.906.049 3.941.831 6.956 2.131 8.051h-.08Zm-16.28-26.629h-11.29v9.079h11.506c3.018 0 6.673-.809 6.673-4.649 0-3.166-2.101-4.43-6.805-4.43h-.084Zm64.081-5.474h-10.49l-17.797 14.098v-14.098h-8.175v32.895h8.175v-10.999l5.387-4.126 13.341 15.158h10.293l-17.897-19.689 17.163-13.239Z"/></g><defs><clipPath id="a"><path fill="#fff" d="M0 0h768v169H0z"/></clipPath></defs></svg>