<svg xmlns="http://www.w3.org/2000/svg" width="1529" height="1244" fill="none"><path fill="#fff" d="M327 1217c-14-5-30-17-50-37-34-35-56-65-81-117-56-111-98-262-134-476-6-31-10-57-11-58 0-2-1 0-7 20-4 16-7 20-13 20-5 0-10-6-10-12 0-3 3-19 7-34 8-32 13-59 16-85 1-10 2-20 3-22 2-6 10-10 16-8 8 2 10 8 13 39 5 64 18 149 43 274 33 159 78 294 127 378 27 47 74 95 94 97 7 1 8 0 14-5 24-24 62-132 124-357 19-70 23-88 65-250 29-111 55-198 60-198 2 0 2 2-4 28-4 13-9 35-12 48-14 67-84 352-103 423-60 222-92 307-121 327-12 9-21 10-36 5Zm218.086-468c3-2 5-2 7-2 4 0 7 2 8 7 3 9-3 23-10 23-2 0-4-1-5-3-7-6-6-20 0-25Zm8 55h3c7 3 9 10 6 36-3 45 1 74 11 78 9 3 28-12 64-50 14-15 27-27 27-26 2 1-7 12-30 40-26 31-41 46-50 49-6 3-16 4-21 2s-13-10-16-17c-6-11-8-23-10-42-1-19 3-61 7-65 3-4 6-5 9-5Zm136.258-9c15-1 27 11 24 27-2 7-7 15-11 15s-8-6-8-14c0-4 0-8-1-9-4-2-12 4-16 12s-4 16-1 26c2 10 12 29 14 29 1 0 11-5 24-10 33-14 67-25 81-26 8-1 13-1 14 1s1 2-20 7c-17 4-42 14-74 29l-20 9 8 15c6 14 8 17 8 29 1 16-1 23-8 33-10 15-33 21-57 15-46-10-43-46 6-79 8-6 15-11 15-12s-3-6-5-12c-11-21-14-44-7-59 5-11 18-22 27-25 2-1 5-1 7-1Zm-15 107-12 8c-7 5-17 14-23 20-19 20-17 31 6 38 9 3 19 3 27 0 4-1 10-4 13-6 9-9 6-29 0-42-2-5-6-11-8-14l-3-4Zm122.672 43c-9-11-11-212-3-321 4-59 8-89 11-96 5-9 17-8 19 1 1 2 0 19-1 38-5 51-6 78-8 115-2 39-5 226-3 226 0 0 8-14 17-31 17-32 41-70 50-78 9-9 20-5 23 8 0 4 0 19-2 34-3 32-2 42 4 55 10 20 18 17 71-24 30.004-23 35.004-26 35.004-23 0 6-69.004 65-82.004 70-15 6-24 4-34-6-16-16-20-39-15-77 2-10 2-19 2-19-2-2-17 15-26 28-11 17-39 73-43 87-1 5-3 11-4 12-2 4-8 4-11 1Zm202.148-18c-3-2-4-5-6-22-2-24 0-71 3-76s9.996-5 14.996 0c4 4 6 15 5 39-1 10-1 19 0 19 0 0 5-6 10-13 18-27 35-48 50-63 14-14 16-15 22-15 14 0 21 12 19 34-6 60-5 70 2 78 5 5 12 4 29-4 11-6 49-34 71-52 9-8 12-10 9-4-2 5-11 13-38 36-36 31-50 40-67 40-15 0-25-12-30-34-2-11-1-32 3-60 3-24 2-25-14-13-24 19-65 78-69 101-1 7-5 13-8 13-2 0-4-2-5.996-4Zm310.706 11c-6-3-13-12-16-23-3-7-3-16-3-39v-29l-10 18c-15 26-25 41-36 52s-15 13-23 7c-12-10-16-63-7-90 4-11 7-13 13-12 8 2 9 7 7 33-1 13-2 30-2 39 0 19 1 20 13 9 18-16 41-60 51-94 2-6 4-13 5-13 7-5 16 1 16 10 0 2-2 16-4 30-5 32-5 73-1 83 2 4 4 6 6 6 10 0 41-27 80-72 5-5 9-9 10-8 2 2-13 20-50 63-24 27-37 35-49 30Zm-798.698 129.43c21.579-2.32 36.466-2.04 56.64-3.49 44.41-3.28 103.001-10.03 148.342-14.99 1.844-.2 3.706-.41 5.586-.61 32.344-3.56 65.68-7.26 97.881-10.89 1.745-.19 2.809-.16 3.605-.25 7.615-.86 19.916-2.42 27.47-3.28 15.467-1.75 42.858-4.96 57.018-6.48 6.046-.64 12.437-1.37 14.749-1.27 2.198-.24 3.364-.71 3.938-.8h.02c1.844-.27 6.577-.59 7.62-.73.156-.02-.833-.14 1.706-.37.226-.02.035.17 2.171-.08.558-.07 7.681-1.16 9.66-1.4 6.66-.84 22.956-2.56 30.939-3.51 1.233-.14 1.933-.32 3.239-.48.675-.08 1.7-.1 1.907-.12.909-.11 4.847-1.05 3.522.04 4.166-.55 2.903-.71 2.973-.92 4.515-.56 6.677-.38 7.801-.98 22.191-2.56 44.211-5.12 66.371-7.7-.01-.08-.01-.15-.01-.23 6.62-.48 8.7-1.24 12.48-1.25l6.84-1.11c59.04-6.729 117.74-14.109 176.1-21.112 2.47-.296 3.09-.209 7.14-.693 4.46-.535 10.74-1.476 16.66-2.185 5.21-.624 12.82-1.386 18.6-2.056 1.31-.152 2.24-.366 2.38-.383.87-.099.93.055 1.77-.041 1-.116 2.2-.379 3.36-.511 4.33-.494 9.06-1.103 9.6-1.166 2.63-.3 3.23-.214 3.44-.238 2.93-.333 1.82-.342 2.55-.421 3.78-.412 6.5-.382 11.65-1.343-.12.147-.25.294-.38.441 3.99-.404 1.32-.435 2.13-.595.32-.063 8.9-1.051 9.56-1.124 2.29-.253 2.37-.087 2.57-.108.48-.053 6.22-.942 9.2-1.147 3.52-.242-.56.606.32.567.15-.006 3.81-.483 4.31-.433.56.054-2.61.433-2.56.477.04.03 5.34-.36 4.35-.074-.79.263-7.96.911-9.46 1.17-.25.043.24.19.02.224-.87.133-17.33 2.119-18.1 2.177.85-.196 1.7-.392 2.54-.588l-3.42.383 4.84-.808c-2.51-.473-9.67 1.173-9.93 1.59-.1.192 4.38.113.29.873l1.9-.091 3.85-.689-2.6.17.93-.273 7.24-1.129c1.25-.11 1.01.077 1.87.005 10.69-.899 3.68-.549 10.65-1.317l3.02-.106c-.39-.306 2.72-.459 6.44-1.058-.43.166-.87.332-1.3.498 5.41-.711 16.47-1.467 13.43-1.73l3.73-.288 3.1-.681 4.34-.488c.01.055.03.109.04.163l-3.46.417 2.66.19 2.54-.391c-3.59.272 1.09-.554 2.2-.912 3.01-.444 4.97-.389 5.98-.498.48-.051 6.02-1.231 3.89-.411l8.61-1.241 3.38-.278c-2.41.553 4.7.014-.49.748-3.88.549-4.87.422-6.71.645-1.66.201-2.53.471-4.34.697a3169.33 3169.33 0 0 1-33.71 3.998c-2.29.261-4.36.592-5.9.765-1.74.196.41-.27-1.79.046-2.32.331-2.8.559-3.41.636-.38.047-1.6.042-2.72.176-4.56.549-11.23 1.498-11.89 1.576-.74.088-13.69 1.508-14.31 1.557-.33.026.29-.611-2.49.323l-2.66.353c.13-.129.27-.257.4-.385-5.21 1.052-3.41.598-8.5 1.242-12.19 1.546-30.07 3.598-43.39 5.238-2.96.365-4.08.633-7.58 1.063-3.23.396-11.84 1.027-9.91 1.352-7.34.399-8.4 1.357-12.09 1.282l-1.29.381c-3.98.153-5.16.579-9.44 1.132-1.85.239.25-.357-3.47.472l-2.16.174c.15-.102.31-.205.47-.307-4.17.568-4.44.557-3.93.807l-6.05.556c-.24.13-.48.261-.71.392.98.078 46.62-5.689 52.9-6.539 7.46-.663 22.45-2.753 28.44-3.417 2.4-.267 3.49-.166 7-.56s7.9-1.132 9.77-1.364c6.22-.772 35.65-4.265 15.66-1.574l1.77.126c7.91-1.336 5.05-.756 11.68-1.512 2.8-.32 9.35-1.36 9.05-.811-5.13.711-10.66 1.213-15.15 1.76-.45.055-5.74.925-8.48 1.19-2.47.239-.83-.446-6.12.739-4.04-.051-6.29.705-7.34.884-1.82.307-2.05.071-3.88.259-1.99.206-3.33.543-3.6.576-2.73.332-16.86 2.054-17.52 2.025.57-.114 1.13-.228 1.69-.343-3.67.366-2.87.54-3.84.689l-2.17.257.84-.269c-4.35.535-1 .327-7.18 1.064-3.92.467-7.98.741-8.36.802-.11.018 1.14.012-.45.223-2.64.348-7.19.891-7.72.758-1.29.182-1.16.358-1.33.383-.72.106-13.7 1.728-16 2.016-6.42.801-13.48 1.607-20.49 2.479-.71.089-.27-.087-.99.003-1.15.145-7.04 1.043-7.91 1.162-2.2.297-7.98.913-8.88 1.077-.13.023 1.79-.04-.43.277-2.45.351-1.15-.029-1.29-.015-5.01.524-8.22 1.064-11.65 1.505-1.12.143-3.19.223-4.76.46-.18.027.2.138.02.167-2.36.365-4.61.345-5.64.449-2.51.255-1.12.302-1.25.319-1.67.207-3.93.4-6.46.708-11.41 1.42-20.6 2.53-32.69 3.96-1.53.18-3.35.25-3.58.27-.72.09-.49.24-2.57.48-4.37.52-8.42 1.01-12.72 1.52-.87.1-1.25-.02-1.92.06-2.18.25-9.81 1.59-9.98 1.08-4.38.99-7.36.94-10.91 1.37-8.31 1-21.67 2.69-29.99 3.61-1.76.2-2.6.16-3.58.27-1.77.2-11.91 1.48-12.42 1.52-1.04.08-.5-.58-5.75.56-3.11.41-2.77.12-3.42.19-4.98.49-9.88 1.62-9.01 1.01-5.88.84-9.64 1.56-12.08 1.38.06.22-2.68.69-5.99.99 3.34-.78 2.88-.97 11.11-1.88.13-.01-.1.18.03.17 1.18-.13 3.63-.51 5.64-.74 2.02-.23.91.02 1.72-.08.74-.09.69-.24 1.76-.37 3.47-.42 6.46-.82 8.42-1.06 1.23-.14 2.62-.17 3.58-.28 3.69-.44 11.57-1.49 16.3-2.04.98-.11.59.1 2.72-.15.25-.02 1.14-.29 3.01-.55 1.87-.26 3.34-.35 4.54-.51 1.01-.13.57-.23 2.64-.48 1.73-.22 21.32-2.45 22.36-2.55 1.53-.15 2.28-.03 3.21-.17.16-.02.42-.25.98-.33 9.42-1.36 30.08-3.55 40.89-4.85 22.3-2.665 43.04-5.264 65.58-8.011l1.2-.246-6.84.815c-.02-.09-.05-.18-.08-.27-3.07.354-2.64.522-2.54.642l-3.43.243c-.96.439-8.63 1.142-12.56 1.613-2.56.306-5.57.791-6.92.942-2.84.32-2.79.114-3.01.137-.39.042-4.29.685-7.19 1.026-4.26.499-4.76.252-10.53 1.199-7.46.74-15.62 1.79-23.68 2.78 1.49-.46-5.67.66-8.9 1.04-19.71 2.33-44.1 5.12-64.03 7.37-2.6.3-4.57.36-6 .54-.78.1-1.1.33-2.18.43-.19.02-.35-.14-2.36.07-5.02.52-17.35 2.3-20.61 2.33-17.07 2.08-34.14 4.16-51.255 6.23-.44-.02-.879-.05-1.319-.07-3.255.77-15.935 2.04-22.314 2.81-11.019 1.33-25.087 3.11-34.704 4.25-2.085.24-3.8.34-5.761.57-.863.1-1.923.37-2.82.47-10.085 1.2-23.493 2.62-33.612 3.8-22.889 2.68-44.207 5.13-67.473 7.81-31.321 3.61-63.181 7.27-94.305 10.76-46.468 5.19-92.335 10.2-138.593 14.4-1.026.09-.989-.07-1.776 0-4.854.43-15.24 1.48-20.725 1.92-4.227.34-11.069.63-12.523.98 15.249-.77 31.213-2.22 47.056-3.61 1.142-.1 1.303.04 1.444.03 2.604-.2.912-.25 4.593-.61 1.253-.12 12.724-.74 11.321-1.1 2.968-.09 21.953-1.9 25.879-2.38 1.162-.14.323-.19.553-.23.949-.13 1.399.03 2.256-.05 2.261-.22 8.216-1.01 9.39-1.13 2.504-.26 10.279-.91 13.754-1.32 3.059-.36 2.462-.5 5.148-.81 2.134-.24-.197.18 4.621-.28 2.538-.24 10.482-1.22 12.586-1.45 2.01-.22 4.376-.35 7.037-.65 3.832-.43 12.809-1.48 16.661-1.95.239-.02.804-.25 1.397-.31 1.228-.13.882.11 1.814.03.427-.04 4.017-.44 8.171-.9 4.69-.52 10.169-1.14 11.681-1.31 1.912-.21 3.232-.48 4.3-.59.851-.1.923.06 1.75-.03.254-.03 2.4-.41 4.589-.66 2.043-.22 10.036-.98 10.991-1.09.602-.06-.046-.11 1.68-.3 1.577-.18 2.637-.14 3.543-.24 2.103-.23 4.457-.63 6.723-.89 6.533-.74 6.253-.52 6.642-.56 1.063-.1 1.466-.32 1.814-.37 1.465-.18 5.09-.62 6.421-.78 1.654-.2 2.377-.11 4.149-.31 1.314-.15 4-.62 7.014-.97 6.6-.78 14.775-1.75 21.386-2.5 1.953-.22 2.273-.11 2.872-.17 3.155-.34 4.92-.72 5.827-.82 6.57-.74 17.994-1.79 24.059-2.47 2.525-.29 13.096-1.64 19.16-2.32.693-.08.058.12.827.01 1.842-.26 1.644-.48 2.584-.58.454-.05 1.504-.04 2.831-.18 6.829-.72 11.394-1.36 14.519-1.72 29.785-3.4 60.143-6.91 87.964-10.17 3.088-.36 6.911-.96 11.636-1.38l.461.18c.156-.1.313-.19.469-.28 5.371-.68 7.273-1 12.687-1.54.47-.05 1.93.12 2.76-.41 5.4-.32 2.42-.28 6.41-.79 3.99-.5 7.92-.87 11.73-1.3 2.12-.09-6.65 1.3-7.27 1.37-.94.11-1.94.02-2.84.11-2.68.29-5.24.76-5.85.64-3.42.61.85 0 .44.23-2.3.2-4.6.39-6.893.59-1.067.74-13.844 1.45-12.922 1.81-1.024.03-2.047.05-3.068.08-4.36 1.1-7.009 1-12.879 1.52.43.02.861.05 1.292.07-.119.05-5.257.78-3.452.24-5.321 1.05-5.188.33-9.925 1.4-2.836.4-1.168-.09-6.24.51-3.018.36-6.649.94-10.06 1.35-.784.1-1.144-.03-1.84.05-.695.08-1.015.29-1.856.39-1.737.21-3.997.36-5.075.5-.967.12-2.334.43-4.654.72-8.086 1.04-5.654.54-6.939.62-1.359.08-2.36.48-5.136.77-.279.03.421-.23-.483-.11-.729.09-1.077.32-3.482.63-1.016.14-15.647 1.89-18.007 2.17-3.506.41-11.245 1.16-14.789 1.57-1.369.16-2.811.48-4.258.65-4.937.57-12.758 1.47-18.849 2.16-5.498.64-15.433 1.45-18.371 2.09-7.654.93-9.741.91-10.301.97-1.603.18-2.325.43-4.332.67-25.953 3.09-60.122 6.87-84.632 9.62-5.693.64-11.288 1.27-16.728 1.88-51.739 5.73-103.222 11.41-155.032 15.83l-.432.27c6.82-.53 14.69-1.11 21.454-1.7 8.895-.78 22.044-2.37 28.751-2.52-2.739.31-7.044.54-6.935.79 4.714-.44 9.503-.9 14.23-1.35-.155-.11-.31-.22-.464-.32 5.134-.55 9.896-1.01 15.05-1.56.882-.09.265-.14.998-.22.82-.08.276.09.43.07 2.077-.21 2.708-.39 2.963-.41.661-.07.154.09 2.071-.07 3.566-.32 6.177-.88 5.364-.31 1.206-.13 2.265-.24 3.41-.36l.839-.48c7.077-.21 10.367-1.49 14.256-1.17 1.267-.25 2.545-.49 3.833-.75.747.06 1.497.11 2.25.16.132-.13.264-.26.397-.38 6.824-.65 14.504-1.62 20.914-2.3 4.598-.49 5.727-.57 9.914-1.04 8.946-1 .047.2 7.579-.39-.408-.09-.816-.18-1.223-.28 1.241-.18 2.491-.37 3.747-.56.892.01 1.787.03 2.686.04 1.101-.29 2.106-.48 2.993-.61 2.115-.31 3.515-.22 3.887-.27.425-.04 1.806-.55 6.441-.77-1.968-.26 3.522-.39 3.973-.44.47-.05 5.627-.74 7.74-.97 1.66-.18 5.246-.48 7.776-.77 2.233-.26 1.992-.39 2.154-.41 2.757-.33 1.072-.01 3.002-.22 1.925-.21 3.417-.52 3.837-.55.212-.02-.477.21.491.11 2.595-.25 7.327-.92 10.378-1.26 1.076-.12 2.471-.15 3.615-.28 1.784-.19 2.604-.46 3.648-.57.364-.04 2.71-.04 5.622-.41.553-.08 2.119-.82 4.393-.28l.468-.39c9.768-1.39 12.458-.79 16.757-2.09 7.161-.73 2.287.14 3.077.1.51-.03 2.845-.38 3.105-.41.444-.04.379.07.863.01 8.914-1.04 4.943-.78 7.768-1.22 6.766-1.07 12.181-1.05.295.12l.019.17c2.886-.39 10.36-1.22 7.899-.65-2 .45-19.429 2.31-9.531 1.49 2.254-.19 3.39-.53 7.364-.59 2.598-.28 2.95-.83 6.474-1.04-.582-.11-1.183-.22-1.788-.33 4.717-.77 10.564-1.14 14.244-1.66 1.242-.18 5.672-1.55 4.715-.58 2.204-.31 11.869-1.28 13.735-1.57.443-.07.942-.58 7.386-1.17.454 0 .908 0 1.362.01-5.872.85 4.557-.2 1.779.56-.99-.08-5.669.34-6.424.33-1.295-.01 2.478-.67-2.354-.05-2.966 1.07 5.718-.27 4.468.56 6.386-1.07 6.962-.83 8.4-.98 6.077-.66 9.927-1.18 15.768-1.78 1.394-.31-9.153.72-10.419.93 4.703-1.05-3.501-.11-6.88.58-.305-.12-.609-.23-.914-.35 4.462-.44 8.848-.91 13.318-1.55l.896.06c-.997.2-1.993.4-2.986.61 3.742-.3 1.448-.47 6.48-.68.135-.18.27-.37.406-.55 4.824-.51 9.431-.99 14.205-1.5 2.416-.62 11.64-1.57 10.007-.94 3.715-.41-.863-.1 2.555-.61 1.479-.22 4.392-.58 5.128-.54-.265.45-4.618 1.01-5.895 1.45.753 0 21.155-2.69 19.418-2 1.652-.13.869-.29 3.829-.71 8.085-1.13 21.087-2.16 27.587-3.55-7.762.56-10.154 1.21-16.105 1.93-3.771.45-27.09 3.25-21.932 2.2-.849.16-1.698.32-2.545.47-.879-.03-1.756-.06-2.632-.08 2.424-.31 4.856-.61 7.298-.92.599.06 1.198.12 1.798.19.259-.13.517-.25.776-.38l3.094-.42c-.278.15-.555.29-.832.44 1.591-.17 3.214-.34 4.763-.5l-1.315-.3c7.365-.91 4.883-.52 9.024-.72 3.08-.34-2.156-.01 4.354-.85 7.585-.98 2.69.06 12.501-1.2l.394-.27 6.465-.54c-.295-.06-.591-.12-.886-.17 4.439-.49 10.585-1.4 12.118-1.21-4.564.36-4.439.99-3.248.97 2.56-.06 38.275-4.51 45.165-5.35 8.89-1.07 15.65-1.67 23.68-2.94-5.46.39-24.85 2.9-28.5 3.15-.36.03-.33-.56-2.57.37-7.41.76-16.57 2.03-25.861 3.11l.796-.6c5.775-.32 11.045-1.74 10.365-1 1.15-.13 2.3-.27 3.46-.41-.02-.11-.03-.22-.04-.33 1.73-.21 3.48-.41 5.22-.62.02.11.03.22.04.33 1.45-.17 2.85-.33 4.28-.5.14-.13.27-.26.41-.39 4.27-.27 18.87-2.63 12.5-1.2l6.07-.72c-.01-.08-.03-.16-.05-.24.87-.12 1.75-.23 2.62-.35l-.84.33c3.97-.61 7.73-.66 10.3-1.23l-5.15.45c3.28-.29 9.33-1.23 9.87-1.29 1.66-.2 2.56-.14 4.36-.35 1.63-.18 1.39-.28 1.69-.31 8.82-.92 5.55.16 9.51-1.13l1.34.18c.56-.16 1.13-.33 1.69-.49 2.58-.29 5.15-.59 7.74-.89-.88-.04-1.76-.07-2.63-.11 3.86-.52 5.7-.46 6.08-.5 1.07-.11 1.53-.34 1.86-.38 15.85-1.87 6.22-.57 14.17-.85 2.77-.59-.09-.51-.52-.73 3.74-.32 4.9-.53 8.84-.99 1.03-.12 2.16-.11 2.81-.18.56-.07 2.3-.43 3.65-.59 2.26-.27 5.28-.54 8.32-.91 2.54-.3 10.33-1.34 15.81-1.99 2.33-.28 1.81-.09 2.41-.16.25-.03 2.06-.4 3.56-.58 12.11-1.45 24.72-2.87 36.89-4.324 8.58-1.029 17.44-2.213 26.02-3.228 1.83-.217.87.01 1.68-.082.27-.032.58-.265 3.43-.527 1.03-.095-.14.181.87.067.49-.056.68-.25 3.55-.633 5.22-.696 8.06-.809 8.53-.872.88-.118.61-.228 1.77-.373 5.72-.71 10.42-1.298 15.51-1.92 2.35-.288 18.8-2.29 19.66-2.367 2.01-.185.18.331 2.75.013l2.13-.482-3.45.244c3.16-.284 6.72-.847 9.06-1.123.43-.05 4.43-.396 6.46-.654l-2.57.476.93.03c4.05-.557 8.39-1.077 12.52-1.563 1.5-.176 1-.001 2.52-.179 8.83-1.037 6.54-1.242 15.17-1.377-2.9.266-13.36 1.637-14.88 1.79-1.06.106-5.25-.152-3.66.438-8.49 1.017-1.16-.295-9.1.753l.51.225c-2.77.393-4.81.686-6.51.722-.52.524-9.95 1.386-15.08 2.033-7.48.942-15.91 2.066-23.27 2.969-2.54.311-4 .304-4.31.343-.47.057-1.75.37-2.69.484-3.5.424-14.14 1.43-16.71 2.179 20.74-2.485 41.47-4.972 62.1-7.449-2.64.1 18.36-2.442 19.39-2.555.98-.108.17.141.46.115 2.18-.196 4.01-.636 4.7-.719.53-.063 1.6-.089 3.47-.316.35-.042.43-.161.8-.206 2.44-.293 4.86-.582 7.31-.878.15-.017.79.066 1.41-.008.62-.075 1.22-.306 1.38-.326 1.97-.235 5.33-.536 7.19-.758.65-.077.19-.139.91-.225 2.22-.264 1.52.05 4.26-.339.92-.13.84-.296 2.61-.485 1.25-.134 1.15.19 1.35.177.28-.019 4.57-.782 6.01-.75-3.03.904 3.38-.379 3.04-.566l5.17-.45 1.74-.381c6.91-.572 11.1-1.232 17.91-1.97.33-.036 6.07-.599 5.81-.487-3.41.551-6.83.968-9.05.978-3.55.919-3.66.54-9.47 1.303-1.94.256-2.07.405-2.29.433-7.58.978-19.75 2.499-24.89 2.726-1.42.276 3.73-.301 1.74.016-1.06.17-27.38 3.457-19.02 2.003l-2.61.352c-.82.523-5.17.948-4.73.472l-1.2.404c-.8.169-1.75.323-3.09.508-5.1.7-35.86 4.246-37.45 4.497-.03.104-.05.207-.08.31 13.5-1.506 26.74-3.345 41.48-4.828l-1.32-.123 17.75-1.738c-6.24.92-16.16 2.255-22.71 2.901-1.16.115-.33-.117-.59-.1-.71.043-1.43.357-3.93.679-2.52.325-8.86.926-9.44 1-1.12.143-4.1.762-6 .986-2.49.295-.84-.065-1.34-.008-2.07.233-3.92.534-5.53.717-2.41.271-7.42.588-9.07 1.203l5.16-.563c-9.31 1.267-16.71 1.623-25.82 3.126-2.03.747 5.54-.229-.84.751l3.49-.439.78-.411 6.05-.499-1.76-.072c7.11-.923 14.34-1.887 16.87-1.685.13-.138.26-.277.4-.415 6.59-.643 16.47-2.346 14.69-1.453l.93-.219c4.02-.344 2.27-.416 3.77-.628.43-.06 8.24-.853 4.81-.239 7.61-.759 5.18-1.103 7.27-1.382 4.87-.27 13.54-1.784 9.93-.853l2.18-.205c2.32-.671 4.72-.516 7.32-.68l2.62-.289 1.71-.601c8.26-.365 5.46-1.744 9.38-.773-.58.155-1.15.31-1.72.465l-4.13.619 16.75-1.899c7.14-.455 11.13-1.373 19.02-2.002.73-.127 1.46-.253 2.2-.379-.72.412-3.58.708 1.76.212.48.173-3.11.635-4.77.657-.4.005 2.94-.573-.84-.125-2.56.304 2.13.018-5.56.84l.87.064-2.5.295-2.28-.117c-1.89.416-2.93.805-7.3 1.275 1.17-.223-.47-.288-2.62-.025l.03.28c-5.22.688-3.45.198-7.76.932l-1.33-.065c-2.32.589-10.98 1.84-9.46 1.193-2.4.739-7.56 1.156-9.52 1.03-.13.11-.27.22-.4.331-1.02.14-2.03.281-3.04.422l-1.72.036-2.14.427-1.34-.121-3.42.749-2.15.033c-.04.201-7.04 1.086-9.03 1.196l-1.74.379c-.29-.058-.59-.115-.89-.173-.42.126-.85.252-1.28.378l-3.03.14c-4.03.942-4.21.561-5.14.676-1.73.212-7.56 1.2-8.54 1.303-.99.103-1.48-.003-2.27.077-13.14 1.319-7.7 1.107-10.32 1.491-1.41.208-2.43.177-3.68.344-2.15.285-12.9 1.778-13.52 1.832-.9.079 1.14-.888-1.77-.353-.05.394-6.41.765-3.4.945l-7.8.793c.34.417-2.89.507-6.36.947-4.91.63-15.96 2.25-15.62 1.74-1.18.25-2.35.5-3.52.75-8.13.82-15.94 1.91-24.01 2.89-23.8 2.86-49.64 5.84-73.33 8.57-1.13.13-.99-.04-1.8.06-4.29.49-15.57 1.94-21.56 2.62-1.93.22-2.88.18-3.49.25-2.07.22-1.56.36-2.51.47-1.5.17-9.59.94-12.33 1.25-1.37.15-2.96.5-4.56.64-.14.01.09-.18-.02-.17-2.91.33-1.14.26-2.13.37-6.95.77-14.55 1.67-22.15 2.54-1.89.22-4.79.44-6.4.63-.62.06.5.05-1.63.3-.73.08-.99-.05-1.82.04-3.55.38-4.73 1.03-7.85.99-5.97.73-16.111 2.06-21.564 2.71-1.286.15-1.923.13-3.146.28-.867.1-2.376.43-3.725.59-1.349.16-3.494.27-6.075.58-2.719.33-6.072.81-6.681.88-.736.08-1.097-.05-1.834.04-2.274.27-8.304 1.16-11.192 1.52-3.107.38-4.973.52-6.03.64-.978.12-2.1.4-2.546.46-.693.08-.877-.07-1.757.03-1.432.17-2.909.46-5.112.72-39.306 4.67-77.415 9.03-115.755 13.32-4.263.48-6.652.87-12.827 1.53-2.584.27-1.518-.03-3.516.23-.889.12-.648.23-1.771.37-4.968.6-10.664 1.12-12.76 1.36-.828.1-1.771.37-3.541.57-13.059 1.51-28.183 3.18-42.211 4.78-7.147.82-18.291 2.15-26.468 3.06-.142.02-.284.04-.426.05-23.429 2.63-48.681 5.33-69.877 7.56-32.199 3.37-64.294 6.75-96.606 9.17 15.164-.81 35.572-2.7 52.46-4.31 37.004-3.52 75.99-7.82 114.485-12.14 11.513-1.29 23.218-2.61 34.897-3.93 17.181-1.93 38.827-4.41 57.797-6.5.844-.09 2.582-.41 4.422-.61.386-.04 5.274-.38 6.93-.57-1.616-.21 4.914-.61 6.922-.85 2.464-.3 7.604-1.09 13.513-1.67 5.369-.52 3.916-.19 4.211-.22 1.904-.16 2.577-.48 3.98-.67 5.756-.76 36.109-4.16 44.637-5.15 2.163-.25 2.244-.1 2.732-.15 1.294-.15 3.12-.52 5.206-.77 3.756-.43 8.138-.8 10.233-1.04 5.017-.59 14.246-1.85 20.763-2.62 1.824-.21 1.732-.04 2.559-.14 3.688-.43 12.91-1.71 17.436-2.25 7.344-.86 14.779-1.64 22.169-2.56.478.01.956.03 1.434.05.732-.17 1.465-.33 2.199-.49 12.624-1.44 25.225-3.09 37.695-4.56 1.42-.17 8.52-.87 9.71-1.01.98-.11 1.93-.41 3.4-.56 2.06-.2.16.37 3.51-.13.9-.13 0-.17 1.82-.43.65-.1 12.09-1.52 12.73-1.58 1.04-.11 2 .09 2.27.07 1.39-.13 1.3-.36 2.23-.5 2.75-.39 6.38-.66 6.83-.71 5.49-.7 15.42-2.08 21.15-2.64.79-.08.71.11.85.1.9-.07 1.43-.34 2.27-.45 4.6-.57 11.69-1.28 16.26-1.78.53-.06 1.63-.29 2.57-.4 5.33-.58 3.62-.21 3.92-.24.72-.07 1.96-.4 3.88-.63 4.96-.63 14.31-1.72 19.58-2.33 3.95-.46 3.92-.26 4.18-.29.55-.05 2.07-.4 4.68-.73 5.01-.63 4.48-.41 6.52-.66.17-.02-.15-.14 2.12-.42 4.37-.56 14.27-1.59 19.01-2.16 1.82-.22 2.23-.42 4.09-.65 2.95-.35 9.57-.99 10.1-1.05.14-.02.45-.23 1.31-.33.95-.11 1.9-.14 2.6-.22 4.03-.49 10.96-1.61 9.1-.78 1.28-.3 2.56-.61 3.84-.91 8.44-.98 16.59-2.02 24.98-3.058 1.89-.233 3.48-.308 5.08-.505 1.58-.195 8.54-1.221 9.71-1.365 2.07-.255 13.96-1.701 15.45-1.866 2.9-.322 5.72-.408 6.88-.597.93-.152.05-.188 1.83-.442 3.09-.441 8.39-.894 9.34-1.011.41-.05-.37-.068 3.43-.532 2.05-.25 3.16-.262 3.91-.352.23-.028-.14-.182 3.92-.643 2.82-.319 4.02-.312 4.31-.346.44-.052 1.48-.34 3.25-.546 4.12-.481 11.7-1.204 15.63-1.663.77-.089.48-.252 3.52-.599 2.17-.248 1.81-.048 2.63-.139 1.29-.146 3.19-.566 6.02-.9 3.53-.416 30.17-3.42 31.5-3.529.93-.077 2-.203 2.47-.174-.38.127-.77.255-1.15.383-4.09.205-2.41.331-3.49.481-1.54.216-7.45.885-8.87 1.128-.5.087.68.119-2.04.536-2.92.446-4.26.297-5.37.855-4.21.035-8.14 1.006-3.32.561 2.7-.25 29.05-3.25 34.43-3.871 4.36-.504 12.54-1.614 17.88-2.224 3.14-.359 10.91-1.272 10.61-1.01 2.8-.309-.19-.174.39-.275 1.22-.212 9.98-1.111 11.64-1.317 8.13-1.008 18.37-2.493 26.34-3.167l-1.09.312c-1.77.323-10.04 1.161-10.94 1.559l36.21-4.359c-.26-.216 14.73-2.017 15.44-1.991l-.75.448c-8.49.57-7.68 1.071-13.4 1.442-2.32.274-1.59.384-2.73.558-11.3 1.733-.23-.377-8.89.842 2.65-.032-4.45.926-7.62 1.345-.71.093-10.27 1.171-11.4 1.311-6.36.792-17.22 2.256-23.56 2.862-4.98.581-7.7 1.111-12.2 1.701-3.43.447-2.46.188-4.07.38-3.38.403-4.44.966-6.68.627l-6.85 1.052-.03-.279-4.34.521c-.41.144-.82.287-1.24.431-4.59.424-2.7-.03-3.59-.191l-2.97.302-2.22.883-13.22 1.54-.89-.175v.281l-22.4 2.752c-1.97.387 9.99-.936 10.9-1.037 5.05-.556 18.45-2.319 18.49-1.988 3.09-.623 12.53-1.696 15.51-1.753l-13.37 1.553c.16.094.32.187.47.281-5.59.219-6.39.339-12.06 1.451-.02-.149-.05-.297-.07-.445-3.93.997-11.07.966-11.19 1.628l-6.37.608c-4.57.628 2.65.259-15.34 2.225-1.23.135-1-.059-2.85.176-.54.067-3.58.673-9.43 1.351-.92.106-1-.027-1.95.069-2.2.22-6.51 1.022-4.59.33-8.71.911-5.07.852-7.75 1.324-1.78.315-1.45.002-3 .25-1.92.307-.48.409-8.19 1.208l2.58-.366-1.33-.065c-4.36.704-3.98.396-6 1.058-3.21.199-5.94.511-10.33 1.072-8.5 1.083-4.1 1.013-13.85 1.573l-4.67.81c-2.59.14-.54-.34-4.38.08 3.06.08-5.07.89-6.41 1.45-.16-.08-.31-.15-.47-.23-.86.1-1.72.21-2.58.31 0 .07.01.15.01.22-1.15.09-2.3.17-3.46.25-.85.18-1.7.35-2.56.53-1.43.01-2.86.03-4.3.04-.89.1-1.77.19-2.66.29.29.08.59.15.88.23l-3.43.3c1.35.02.54.34-3 .76-2.93.34.34-.44-5.98.48-.44.06-1.19.43-7.16 1.19-7.15.91-3.7.29-4.98.44-.25.03-2.41.42-4.45.69-1.16.15-2.28.17-2.44.19-.71.09-.9.27-1.89.4-2.49.31-5.91.64-8.39.94-1.12.14-2.17.36-2.67.42-.78.1-1.78.07-2.57.17-2.91.35-7.25 1.34-8.67.85-2.71.93-8.6.9-8.13 1.25-7.55.75-27.3 3.61-26.78 2.86-4.17 1.09-3.85.62-5.62.84-1.98.25-.94.24-2.52.42-3.68.43-7.19.8-10.84 1.23l1.69-.48c-3.83.43-2.49.48-6.38.99-7.12.93-4.16.4-5.24.28.31.2-8.22 1.18-9.08 1.25-.52.04 1.7-.53-3.48.19l.88.18c-2.38.15-8.77 1.08-9.85 1.17-.51.05-3.23-.39-5.65.5-.3-.06-.61-.11-.92-.17-2.73.44-5.45.87-8.16 1.31-.46-.12-.91-.23-1.37-.35-.86.1-1.72.21-2.59.31l1.78.24c-5.35.57-11.78 1.57-12.94 1.2l-3.42.69-2.3-.24c-5.31.68-5.38.8-8.98 1.4.13-.14.26-.29.38-.44-2.65.5-7.46 1.25-11.29 1.72-1.85.23-5.03.43-5.46.5-.44.06-4.66 1.28-5.2.72-6.29 1.02-9.082 1.07-11.626 1.38-1.65.2-2.387.44-4.289.68-2.715.34-5.447.59-7.004.78-.891.12-1.04.28-1.653.35-2.898.37-1.218.02-4.268.39-.281.04-2.489.47-4.992.75-1.406.15-5.015.38-5.365.42-1.437.17-.249.43-5.204.55l.452.18c-6.035.9-7.012.68-8.233.8-.155.02-1.604.32-2.48.4-1.481.15-2.095.04-2.423.07-1.167.11-4.963.64-7.594.77.591.44-8.37 1.67-10.4 1.34-1.565.29-3.127.59-4.684.89l-2.162-.03c-.42.14-.84.28-1.26.43-2.281.06-4.658.13-6.999.2l-.371.66c-.652.06-1.304.11-1.955.16-.525-.1-1.05-.21-1.574-.31-.805.13-1.609.25-2.412.38l-.557.42c-4.307.64-2.241-.74-10.301 1.21-1.263.05-2.602.11-3.904.17-1.414.62-4.185.67-6.377.98-1.545.21-1.44.38-3.543.63-2.102.25-2.045.07-2.209.09-1.711.19-2.977.49-4.229.6-.188.02-.684-.13-2.271.04-1.581.17-2.574.51-4.986.75-1.239.12-1.616-.01-2.711.1-5.221.54-10.304 2.01-14.253 1.42-.849.23-7.247 1.44-9.96 1.72-4.235.45-2.627.06-4.307.22-.24.02-1.521.24-5.029.63-.627.07-.468.17-.558.18-4.121.47-12.292 1.32-16.77 1.82-.413.05-2.439.6-6.098.59-5.456.95-15.374 1.39-22.465 2.69-.987.12-2.194.14-2.628.2-3.724.46-2.366.65-10.735 1.09.679.1-1.184.47-4.048.79-4.237.46-1.272-.21-4.655.2l.032.28c-7.809.63-9.083 1.17-17.013 2.07-2.818.31-6.929.57-7.583.64-.257.03-3.232.59-3.513.62-1.663.19-2.631.2-4.066.36-4.758.53-10.224 1.43-9.286.79-1.129.23-2.252.45-3.368.68-.134.02-.268.05-.402.08-5.05-.02-8.574 1.16-9.649.72l-2.545.63c-20.886 2.23-41.685 4.42-62.694 6.54-.87.27-9.811 1.13-10.387 1.16-2.179.1.046-.52-4.32.02-.464.21-.927.43-1.387.65-5.365.6-2.856.17-5.044.28-.921.11-.612.21-1.852.35-6.496.71-20.43 2.08-27.607 2.77-1.5.14-1.282 0-1.745.04-1.28.12-3.698.51-6.198.74-15.695 1.46-37.805 3.26-53.568 4.15-1.105.07-1.246-.07-1.978-.03-1.027.06-3.175.31-4.291.37-1.009.04-1.651-.03-2.695.02-4.901.22-11.442.74-16.679.6-.476 0-5.96-.41-6.081-.45-.734-.21 4.109-.7-3.868-.82 7.121-.5 4.856-.92-4.385-.97 4.633-.16 9.287-.35 13.925-.59l.014-.19c-4.226-.15-8.441-.12-14.853-.01.199-.06.397-.13.596-.19 5.685-.39 12.481-.66 16.787-1.23-6.332-.03-12.672-.14-18.98-.31l.943-.15c3.036-.17 9.614-.41 12.158-.61 9.562-.74-8.426-.04-5.477-.4 10.135-.26 20.233-.73 30.381-1.35.374-.01-38.633 1.06-38.224.28 3.172-.09 6.363-.2 9.54-.33-1.446-.1-2.827-.21-4.268-.32.389-.05.781-.11 1.175-.16 5.356-.25 10.693-.54 16.045-.9-16.268.82-23.848.73-27.775-.3.442-.03.883-.07 1.325-.1 3.559.66 20.196.06 29.017-.56-1.827-.11-9.572.37-11.23.29-.462-.02 1.139-.22.07-.25-2.818-.07-14.869-.05-13.114-.33 1.118-.12 20.462-.91 24.205-1.14-8.86.17-17.927.35-26.817.18 5.597-.57 10.535-1.2 20.703-1.62 3.097-.32-18.44.02-18.977-.16 3.741-.21 7.463-.44 11.184-.69-3.148.13-6.291.25-9.462.35-.01-.05-.02-.09-.031-.14 8.172-.38 15.657-1.02 24.948-1.46-.333-.23-5.851.06-8.604.17Zm898.038-86.449c.21.181-3.23.561-5.17.791l.89.006c-4.14.459-11.84 1.305-12.07 1.736-2.94.403-1.68-.098-2.63-.023-.38.029-4.19.691-7.29.816-.72.089-1.45.177-2.18.266-.13.147-.25.294-.38.441l-3.11-.106 31.92-3.925.02-.002Zm-106.09 12.927c-3.89.393-9.82.988-8.58 1.2l7.32-.937 1.26-.263Zm-385.657 45.632c-3.305.03-6.269.69-11.266 1.21.016.07.031.14.046.22 2.015-.42 7.443-.93 11.22-1.43Zm587.737-71.476c.72-.058 1.44-.116 2.15-.175-2.85.747-3.4.529-6.67.962-.2.027-.12.109-.19.118-.8.103-1.56.083-2.28.172-1.4.171-2.53.42-5.01.715-1.92.227-1.96.055-2.63.14-.57.074-6.2 1.239-9.88 1.472-7.01.444 22.4-3.187 24.51-3.404Zm20.67-2.155-2.07.254c2.04-.518-2.13.026-5.2.401.07-.269 6.56-.94 9.46-1.366l-2.19.711Zm-87.07 9.925c2.68-.35 2.27.026 2.17.135l-2.56.309.39-.444Zm20.22-2.548c-.81.319-6.65 1.119-9.41 1.47-.12.015.62-.197-1.33.05-.59.075-6.32 1.206-5.11.559l15.84-2.078.01-.001Zm5.93-.582-3.29.603-1.74-.101 3.75-.531 1.28.029Zm-829.113 96.736c.27.08.54.17.811.25 1.028-.04 5.844-1.02 4.299-.95-1.643.23-3.429.47-5.11.7Zm-20.445 1.82c-1.026.05-2.043.09-3.051.14-1.135.29-2.257.59-3.368.89 4.891-.35 10.493-.76 9.506-1.22 1.119-.11 2.249-.22 3.39-.34-.932.33-.815.39 2.212.23.58-.37 3.937-.55 7.336-.96-2.486.23-5.226.49-7.806.73l-.016-.17c5.836-.57-1.504-.18-5.112.4-.288-.05-.608-.09-.919-.14-.728.15-1.452.3-2.172.44Zm417.008-47.15-2.16.09c-2.68 1.06 2.86-.3 6.97-.2-1.39-.28 4.77-1 5.12-1.07-.73-.06-1.45-.12-2.18-.19-2.59.46-5.17.92-7.75 1.37Zm-20.3 1.9c2.53.07-9.69 1.54-13.741 1.94-.989.09-2.77.1-3.477.21-.422.13-.844.25-1.266.38-.534-.2-8.553 1.04-11.67 1.55l-.921-.18c-1.141.17-2.281.35-3.419.52l.398-.33c-.851.21-1.701.43-2.551.64-3.368.52-1.343-.23-3.861.23-2.797.51 1.855.26 1.794.47 2.281-.32 7.499-1.05 9.846-1.34 1.348-.16-.147.37 5.63-.72 1.289-.06 2.581-.11 3.874-.17 2.307-.42 4.589-.85 6.894-1.27.45.08.9.16 1.34.24.25-.01 5.6-.94 5.3-1.01 2.21-.01 6.71-.5 11.48-1.05.46-.12.89-.25 1.33-.37-4.55.69-1.46.1-2.84.12-.8.02-3.24.15-4.14.14Zm-344.404 39.82c-7.533 1.12-2.975.37-11.239 1.24.593.11 1.187.22 1.784.32 4.089-.74 10.824-1.25 9.463-1.56h-.008Zm-81.257 8.71c4.465-.52 2.2-.57 7.726-1.17h.008c-2.861.25-5.736.5-8.658.74.307.14.615.29.924.43Zm256.699-28.02c4.216-.41 3.372-.45 7.248-.63 5.711-.98.849-.37.816-.66-1.303.24-2.602.47-3.898.71-3.192.09-.21-.39-.213-.41h-.008c-.009-.09.09-.12-1.128-.03l-2.817 1.02Zm17.975-2.44c-1.41.36-2.031.68 1.757.36h.008c.252-.46 3.922-.54 5.587-.76.431-.1.862-.2 1.294-.29-2.899.23-5.781.46-8.646.69Zm63.404-7.8c.071.47-3.078.88 1.413.8l2.589-.33 1.669-.51c11.144-.45 14.22-2.28-4.304.45h-.008c-.453-.14-.906-.27-1.359-.41Zm-19.443 2.32c-.11.26-.22.53-.331.79-2.508-.31-5.479.61-10.394.76-.428.13-.854.25-1.281.38-1.868.05-19.283 2.03-15.46 1.97 1.654-.02 5.214-.67 5.526-.7 1.05-.1 2.443-.05 4.22-.27 1.027-.13 3.168-.63 5.28-.88 4.797-.55 13.276-.87 19.405-2.23.454.02.908.05 1.363.07 4.595-.59 3.028-.64 7.364-.86 2.799-1.52-17.196 2.07-13.106.63h-.008c-.86.11-1.72.23-2.578.34Zm-125.956 14.91c-.306-.18-5.481.74-4.321.1-1.749.37-3.487.75-5.215 1.12.018.05.037.09.056.14 1.733-.23 3.476-.47 5.23-.71.015.08.03.15.046.22 2.458-.55 13.159-1.65 12.886-1.35.563-.18 1.128-.35 1.694-.53 5.309-.3 9.461-1.1 15.118-1.45l1.269-.42.875.12c2.046-.22 4.103-.45 6.171-.68 6.588-1.06-6.395.04-7.958.26-.207.03-.154.22-1.447.4-2.283.32-15.159 1.6-19.171 2.18-.049-.12-.098-.25-.147-.37-1.705.32-3.4.65-5.086.97Zm170.054-19.62c.304.1.608.2.912.29 4.97-.71 8.155-.97 6.815-1.25h-.007c-2.583.32-5.156.64-7.72.96Zm372.708-44.331c-.16-.243-2.56-.052-5.65.507.16.057.31.114.47.171 1.6-.415 3.66-.274 8.62-.921-.01-.13-.03-.26-.05-.39l-3.39.633Zm-377.002 44.781c-1.557.03-5.836 1-2.984.69 2.187-.24 3.81-.7 2.984-.69Zm-375.786 41.48c1.134-.07 2.285-.14 3.454-.21.6-.17 1.199-.33 1.756-.49h-.007c-1.685.23-3.508.48-5.203.7Zm259.69-27.62c3.916-.47 7.704-.92 11.521-1.38.03-.07.06-.15.089-.23-3.798.71-5.35.6-6.238.69.004 0 .008 0 .012-.01-2.907.28-5.712.56-8.456.79 1.022.05 2.046.1 3.072.14Zm-13.205 1.06c.703.44 1.521.4 7.374-.63-.241-.04-.482-.07-.723-.11-3.05.39-4.798.71-4.298.38l-2.353.36Zm60.263-6.81c-.744-.08-6.403.75-6.081.79.117.02 7.513-.63 6.081-.79Zm488.7-58.134-3.9.356 5.15-.788c-.42.144-.84.288-1.25.432Zm14.15-2.438c.93-.046-2.01.773 3.52.228l-12.07 1.481 5.64-.904c-.34-.092-.69-.184-1.03-.275l3.94-.53Zm4.35-.182c-2.2-.088 9.17-1.483 10.24-1.569.24-.018 1.4.11 1.82.117l-5.16.622 1.75.042-6.02.811 2.55-.56-5.18.537Zm-45.72 5.584 4.33-.494c-.31-.095-.61-.19-.91-.285-.87.103-1.73.207-2.59.311-.28.156-.56.312-.83.468Zm29.34-3.698c-2.03.878-7.91.198-1.17-.099.68-.029 1.36.015 1.17.099Zm30.9-3.894c4.43-.996 3.54.133-.73.347-.21.01.4-.273.73-.347Zm33.59-4.058c.37-.04 1.04.209 4.47-.518l1.74-.096c-1.33.313-12.78 1.783-11.23 1.269 1.75-.216 3.21-.447 5.02-.655Zm-11.23.129-5.15.647 1.74.102-2.52.388-4.39-.008 11.18-1.431c-.29.101-.58.201-.86.302Zm-45.7 5.244c3.33-.272 7.35-.894 12.72-1.517h.01c.26-.031.75.052 1.62-.046.73-.083 15.22-1.983 14.12-1.609-5.6.889-7.73.817-9.01 1.508-.29-.079-.58-.157-.86-.236-5.42.456-6.91 1.027-9.92 1.532.01-.085.01-.171.01-.256l-6.07.704.88.063c-.72.086-1.44.172-2.15.259-1.78-.039-4 .169-1.35-.402Zm53.51-6.044c1.52-.829 17.05-2.256 24.09-3.24-3.66.831-9.44 1.258-13.48 1.74-7.83.937-2.39.519-3.71.782-.65.13-5.14.257-6.9.718Zm-65.59 7.609c3.91-.418 6.08-.827 9.49-1-.28.08-.56.161-.83.242-1.17.097-10.61 1.096-8.66.758Zm100.07-11.93c-7.57.679-3.78.808-7.75.848l7.73-1.015c.01.056.01.111.02.167Zm-526.305 62.332c-3.19.36-6.742.65-8.602 1.12 2.151-.22 4.31-.43 6.475-.65.708-.16 1.417-.32 2.127-.47Zm90.315-13.05c-.73.03-3.57.54-3.87.57-.55.07-.41-.03-.42-.05-3.65.44-.25.3-2.94.68-.42.06-6.92.7-9.51 1.02-4.01.49-7.99.94-9.48 1.12-2.525.31-7.086 1.05-11.301 1.55-1.72.21-2.338.13-4.062.33-10.997 1.33-32.748 4.11-42.461 5.15-2.444.26-4.786.33-6.067.5-1.003.19-2.004.39-3.004.58-3.179-.31-4.144.41-7.457.86-2.102.29-3.106.21-3.389.24-1.854.22-2.816.43-4.308.62-1.681.21-4.1.41-4.696.49-.363.06.824.19-5.64.94-6.546.76-13.065 1.49-19.805 2.27 2.332.53 4.202-.24 6.961-.59.741-.09.285.09.93.01 1.855-.24 5.23-.76 6.722-.9 1.605-.16 1.091.2 3.113-.14.103-.02-.237-.1.24-.18 4.799-.77 6.404-.74 12.572-1.46 4.003-.46 28.705-3.48 29.481-3.5 4.518-.1-21.565 2.97-24.492 3.28-1.052.11.033-.15-.927-.06-.381.03-4.082.72-7.744 1.17-4.445.55-13.25 1.4-17.419 1.9-36.187 4.28-71.673 8.24-107.772 12.35-.776.09-1.786.36-4.298.65-20.617 2.35-41.508 4.68-62.553 6.99-26.868 2.95-53.473 5.81-80.042 8.6-10.406 1.09-20.486 2.25-31.029 3.17-1.275.24-2.532.48-3.781.71 3.174-.4 9.357-.75 9.948-.81.212-.02 1.399-.26 3.404-.45 2.819-.28 4.11-.3 4.344-.32.734-.07.241-.14.944-.21 5.206-.52 9.057-.95 13.91-1.45 5.212-.54 8.025-.61 11.943-1.26.439.05.879.1 1.321.14 2.766-.69 20.155-2.48 27.172-3.22 2.182-.23 1.821-.02 2.558-.1.483-.06.223-.24 6.09-.84 2.998-.3 3.714-.22 5.157-.38.78-.09.635-.23 1.762-.35 6.542-.71 12.059-1.27 18.422-1.94 1.818-.19 1.857-.07 2.265-.11 1.178-.14 3.025-.48 5.651-.83.696-.09 1.451-.19 2.265-.28 6.127-.67 18.749-2.08 23.803-2.55.755-.07 1.399.02 1.956-.05.843-.09 1.158-.29 1.306-.31 2.835-.32 1.145.02 3.047-.23 1.04-.14 2.06-.44 4.366-.72 3.06-.37 2.485-.09 3.769-.26.136-.01.158-.17 1.428-.32 4.815-.56 11.938-1.41 16.408-1.91 1.306-.15 2.29-.16 4.124-.37 3.814-.43 24.577-2.87 26.438-3.03.186-.01-1.684.43 1.336.08.847-.2 1.679-.39 2.522-.58 1.441-.01 2.888-.03 4.34-.04-.125-.51 8.367-1.57 8.357-1.03.939-.09 1.88-.18 2.824-.26 1.934-.6 3.212-.61 6.887-1.25.591.05 1.182.09 1.774.13l.411-.27c2.029.17 5.258-.61 5.657-.66 1.532-.18 2.701-.22 3.423-.3 2.727-.33 8.478-1.14 11.581-1.43.146-.02.022.17.91.09 1.603-.15 1.728-.42 3.902-.37.424-.12.848-.25 1.273-.37.464-.02.928-.03 1.393-.05 2.711-.33 5.462-.67 8.177-1.01-2.425.58.425.41 3.039-.13.889-.18.072-.26.368-.32.384-.09 12.527-1.41 13.373-1.39.572-.13 1.145-.25 1.719-.37.307.07.614.15.92.23.316-.08.633-.15.949-.23 3.202-.18 11.254-1.58 12.767-1.72.798-.07.133.49 3.949-.01.117-.14.235-.29.352-.44l2.626-.36c1.65-.18 4.086-.24 4.182-.09.512-.16.994-.31 1.492-.46 1.386.15 8.649-.82 11.583-1.36.873 0 1.747-.01 2.623-.02l3.452-.75c2.698-.35-.135.17.443.12 1.238-.11 7.36-1.15 6.988-.71.833-.1 1.667-.2 2.502-.29.416-.17.832-.33 1.249-.49 1.481.21 3.944-.21 9.094-.68.421-.14.841-.28 1.262-.41 1.605-.07 3.214-.13 4.826-.19.31-.19.621-.37.932-.56.693-.1 1.388-.2 2.062-.3 1.422.16 3.872-.49 5.16-.5 1.88-.02.468.38-2.963.83.275.21 10.536-1.11 12.933-1.41l-.49-.09c-2.434.33-4.861.65-7.28.98-2.101-.36 4.498-.98 7.535-1.42.277-.04 1.823-.45 4.902-.79 1.199-.14 5.867-.35 6.728-.43 7.083-.69 1.823-.55 8.813-.95-1.48-.15 2.54-.36 6.71-.91.7-.1 6.74-1.07 7.13-1.13 2.51-.34-.19.27 3.43-.24.43-.12.86-.25 1.29-.37l2.54-.3c5.23.04 6.39-.59 8.22-.87.74-.11-.2.18 1.73-.09.73-.1 1.52-.34 3.48-.58 6.17-.77 8.22-.39 13.75-1.69l2.62-.03c.57-.18 1.13-.36 1.7-.54 4.49-.21 2.85-.35 4.46-.53 4.27-.5 12.94-1.47 13.72-1.29 3.57-1.05 8.03-.88 9.47-1.08.85-.17 1.7-.35 2.55-.52 1.02-.05 2.04-.1 3.06-.14-.56-.54 4.76-.58 5.27-.63.57-.06 8.53-1.19 11.52-1.54 2.98-.35 8.21-.81 8.67-.87.52-.06 5.66-.84 9.58-1.3 3.42-.41 24.08-2.64 22.77-2.76-1.37.09-3.3.26-4.97.42-5.18.51-35.41 3.98-43.09 4.85-15.53 1.77-31.6 3.7-47.2 5.49-.92.11-1.07-.03-1.86.06-1.19.13-4.17.65-5.34.78-4.34.5-9.77 1.12-12.11 1.4-5.26.61-8.86.94-12.8 1.4-1.21.13-7.53 1.08-11.86 1.51l-2.36.15c2.21-.32 8.05-1.14 10.78-1.48 3.99-.5 6.09-.62 7.57-.8 1.23-.14 7.56-1.04 10.47-1.39.9-.11 1.1.04 1.88-.06 4.21-.5 9.67-1.15 13.25-1.74-1.47.23 7.74-.77 8.24-.83.83-.09 1.71-.35 3.41-.56 3.27-.38 2.89-.02 6.95-.82 1.01-.03 2.02-.05 3.03-.08 0-.43 12.75-1.36 16.33-2.31.07-.07-16.46 1.73-17.79 1.88-8.23.93-20.35 2.47-28.23 3.33-2.42.27-10 .91-10.56.98-.92.11-.07.16-.47.21-8.07 1.07-4.07.3-5.15.34Zm356.57-40.232-7.37.834c.16-.115.33-.229.5-.344l3.39-.298 2.57-.478.91.286Zm6-1.117c2.12-.303 2.25-.119 2.74-.169 1.47-.147 2.73-.379 4.16-.548-1.59.664-5.11.87-6.9.717Zm-44.01 5.123c.48-.035 3.77.078 7.34-.825l8.23-.538c-4.67.332-11.02 1.334-13.3 1.6-.87.101-1.05-.033-1.74.047-3.99.467-7.81 1.28-8.28.819 3.78-.304 7.13-1.056 7.75-1.103Zm23.97-2.699 1.95.09-6.89.829c.61-.182 1.21-.365 1.82-.548l3.12-.371Zm-176.63 20.845c1.42-.17 2.83-.34 4.25-.5-.08-.07-1.71.12-2.31.14h.01c-.68.02-.4-.11-1.62-.01-.11.12-.22.25-.33.37Zm-586.143 66.79c-2.412.24-24.387 2.29-22.473 2.39.921.06 8.495-.76 10.667-.96 3.1-.29 11.028-.74 11.806-1.43Zm-38.931 3.51c-.405.33 13.356-.83 14.746-1.02-.285-.01-.705-.06-1.11-.05-1.953.08-10.703.9-13.636 1.07Zm545.684-61.64 3.38.03c-.32-.15-.63-.3-.94-.45-.82.14-1.63.28-2.44.42Zm-107.1 12.94c-18.269 2.15-36.782 4.33-55.18 6.48 1.6-.26 3.204-.53 4.812-.8 15.964-1.85 32.863-3.77 48.068-5.69.77 0 1.53.01 2.3.01Zm333.86-39.958c-4.72.564-8.64 1.174-13.78 1.572 4.85-.797 7.31-.762 12.02-1.643l.01-.001 1.75.072Zm-105.2 12.575 4.24-.904-5.15.618c.3.095.61.19.91.286Zm-389.241 45.473c-4.896.86-17.533 1.8-21.547 2.6-.256.06 2.142-.07-1.677.65 2.898-.39 4.963-.69 5.155-.94.879-.02 1.759-.05 2.642-.07 1.434-.23 2.919-.45 4.318-.67-.127.23-.019.21 2.139-.19l3.004-.18c.412-.14.824-.28 1.237-.43l2.645.09c3.374-.53 1.281-.54 2.084-.86Zm17.273-1.95c-.739.04-23.691 2.86-13.195 2.09 2.719-.33 5.476-.67 8.117-.99-2.301-.46 5.068-.66 5.682-.72 2.891-.26 6.574-.87 8.695-1.1 1.821-.21 2.926-.21 4.209-.36 4.253-.5 11.069-1.3 11.98-1.71-3.366.38-6.764.78-10.217 1.19-3.638.43-7.054.54-13.93 1.73-1.718.16-1.133-.14-1.341-.13Zm380.508-44.913c-.14.321 8.58-.797 8.62-.922.01-.072-2.83.271-3.24.293l-.01.001c-.17.009.67-.209-.66-.08l-4.71.708Zm-602.726 69.863c-1.367-.01-28.153 2.74-29.028 2.9-.212.04.093.08.013.13 6.317-.85 15.346-1.47 21.228-2.05 1.654-.17 1.15-.24 1.243-.25h.012c.923-.09 5.309-.25 6.532-.73Zm174.838-19.27c1.135-.09 2.274-.17 3.416-.25.278-.13.556-.26.834-.38h-.008l-4.242.63Zm-39.714 4.23c.282.03.563.06.845.1 2.839-.31 5.704-.63 8.595-.95l-.86.21c4.378-.4 6.191-.84 8.555-1.08h-.008c.249-.02.6.08 1.508-.02 2.086-.23 8.164-.87 8.895-1.1 1.47-.46-10.571 1.06-13.017 1.32-1.05.12-2.321.14-2.955.21-.695.08-1.624.35-3.307.53-.498.06-5.947.49-8.251.78Zm-50.932 5.92c.888.05 2.705-.3 3.385-.35.162-.01-1.081.25.447.12.423-.13.846-.27 1.269-.4-1.713.21-3.414.42-5.101.63Zm533.194-62.644c-.26-.001-4.95.573-5.18.62-2.78.606 6.94-.589 5.18-.62Zm118.13-14.508c-2.17-.134 23.37-2.818 25.87-3.14-.09.261-6.21.746-2.98.7-3.07.181-11.45 1.289-13.43 1.473-1.2.111-1.53-.064-1.71-.049-.71.062-6.96 1.061-7.75 1.016Zm47-5.514c-2.43.246-4.86.492-7.3.737l8.59-1.118-1.29.381Zm3.04-.479c-.1-.228 8.17-1.04 10.34-1.357-2.4.699-6.53.809-10.34 1.357Zm-137.18 16.157c-3.83.301-5.38 1.222-.78.35.14-.027.94-.36.78-.35Zm-444.724 52.228c-.662.07-8.693.76-9.128.93-1.413.54 3.79-.21 5.576-.28 2.878-.1-1.309.57 5.661-.37-.278.1-.555.21-.833.32 4.102-.45 2.704-.81 3.433-.96.223-.05 2.806-.3 3.27-.39 5.776-1.09-7.408.69-7.979.75Zm350.674-41.004c-7.59.684-4.31.614-12.05 1.524-.24.2 11.07-1.262 12.05-1.524Zm-276.938 32.704c-7.901.99-14.264 1.52-21.524 2.66.549.39 23.508-2.77 21.524-2.66Zm-367.939 39.17c30.738-1.56 65.677-5.28 98.187-8.67 3.584-.37 3.982-.23 5.212-.38.82-.1.66-.23 1.757-.34 22.939-2.42 45.521-4.94 67.735-7.44 16.472-1.86 33.091-3.74 49.598-5.58 2.525-.28 14.15-1.29 16.718-2.05 1.878-.56-6.631.68-8.015.84-1.056.11-1.119-.05-1.82.03-.744.09-.117.13-.98.23-3.58.41-7.777.85-11.11 1.23-14.725 1.71-29.92 3.44-44.419 5.05a10750.13 10750.13 0 0 1-52.882 5.74c-3.915.41-3.11.19-3.31.21h-.008c-21.148 2.24-45.398 5.03-67.771 7.05-15.917 1.42-31.696 2.75-47.51 3.88-.464.07-.925.13-1.382.2Zm310.977-32.35c-2.037-.26-2.314.27-9.467.9l-1.712.45c3.803-.46 7.481-.9 11.191-1.35h-.012Zm-46.628 5.21c-1.299-.53-17.04 1.75-24.179 2.44-1.232.48 9.047-.85 11.47-1.09 1.196-.12 7.826-.53 12.784-1.29l-.075-.06Zm534.878-63.884-3.45.474 8.64-.816-13.78 1.513 2.52-.723 6.07-.448Zm-14.9 1.863c8.03-1.018-.32.36-2.34.436-1.21.046 1.52-.332 2.34-.436Zm-20.91 2.272c3.73-.694 11.29-1.619 8.66-.813-4.05.258-6.68.764-12.57 1.339l2.55-.587.01-.002 1.35.063Zm24.54-3.006c5.3-.355-9.95 1.382-5.18.623.22-.035 4.97-.609 5.18-.623Zm-754.266 86.545c-.621.22 3.409-.15 4.81-.27 5.806-.49 13.234-1.27 19.46-1.85-.477-.01-.952-.01-1.425-.02a3863.6 3863.6 0 0 1-22.845 2.14Zm43.247-4c4.23-.43 8.237-.83 12.559-1.28.434-.04 2.16-.36.843-.26-4.583.53-8.91 1.03-13.402 1.54Zm260.248-29.01c-3.213.28 5.96-1.25 5.611-.71-1.877.23-3.747.47-5.611.71Zm29.767-3.68c-2.017.28-4.027.57-6.03.85l-.028-.17c2.013-.23 4.032-.45 6.058-.68Zm-349.683 38.03c2.071.02 7.26-.46 10.361-.74-2.154.03-7.428.57-10.361.74Zm271.99-28.98c.299.09-12.429 1.53-8.038.79 2.776-.27 5.345-.53 8.038-.79Zm-25.801 2.77c2.681-.33 4.785-.53 4.252-.26-1.435.16-2.864.31-4.288.47l.036-.21Zm485.648-57.345-13.78 1.71c.17-.076.33-.152.5-.229l13.27-1.65c0 .057.01.113.01.169Zm-734.491 83.265c-3.212.31-6.304.6-9.499.89 3.204-.22 6.304-.43 9.526-.66l-.019-.23h-.008Zm797.361-91.557c-14.06 1.426 3.8-1.001 7.56-1.065l.01-.002c.33-.005-.34.241.21.242l-4.32.294-3.87.747-1.3.046 1.71-.262Zm56.64-6.963c12.74-1.502-.24.476-6.57.909.04-.08 5.4-.771 6.57-.909Zm-33.34 4.103-6 .834-.78-.049 4.59-.694 2.19-.091Zm-66.05 7.207c-3.25.339-7.29 1.353 3.05-.029l-.03-.166c-.41.059-1.61.256-1.68.26-.19.009.01-.205-1.34-.065Zm122.8-15.621c.36-.065.48-.679 4.32-.522l3.41-.523.93.283c-4.43.431-4.86.75-5.18.794-1.46.201-.39-.065-1.34.047-2.44.289-7.97 1.047-5.5.358.89-.247 3-.373 3.36-.437Zm-8.67.702c.54-.015-1.16.365-.75.366.36-.001 5.71-.466 4.3-.001l-2.63.279-.92-.132c-.84.175-1.67.351-2.51.526-1.45-.025-4.51.085-.93-.509-1.32.176-2.65.352-3.97.529-.67.176-1.35.353-2.02.53.34-.187.68-.374 1.03-.561l8.4-1.027Zm41.03-4.883c-.16.094-.31.188-.46.281 4.84-.722 12.4-1.687 8.16-.703-6.59.832-13.13 1.66-19.73 2.494l-1.34-.01c4.95-.376 3.32-1.11 7.62-1.362.73-.042-1.32.53 3.18-.219l-.51-.166 3.08-.315Zm41.78-4.919c-8.33.895.8-.48 2.37-.44l-.01.001c4.29.11-4.81.902-5.36.973-.73.094-2.39.741-6.46.578l9.46-1.112Zm-27.17 3.161c.69-.099.32.06.62.022l.01-.001c4.46-.562 15.03-1.937 16.22-1.713-3.28.426-18.03 2.282-18.96 2.144.7-.151 1.4-.302 2.11-.452Zm-31.32 4.044c-2.76.095 3.4-.678 5.03-.764.3-.014-2.16.665-5.03.764Zm-209.83 24.614c-6 .863 1.92.056-.79.604 1.15-.156 2.3-.313 3.44-.47l-2.65-.134Zm-274.369 32.242c-1.398.14-.721.2-.842.21-.916.11-1.79.1-2.14.15-6.474.99-2.128.59-2.061.61.152.12-1.53.48.844.35 1.426-.22 2.854-.43 4.285-.65l2.168-.03c2.842-.5-.907-.1-1.355-.26-.173-.06 2.502-.48-.899-.38Zm263.549-31.397c-.94.351-3.28.931-.92.886l.01-.001c.44-.009 2.2-.197 2.75-.201 3.83-.775 2.31-.92-1.84-.684Zm-237.685 27.917 6.995-.66c-.02.14-.04.29-.07.43l-3.75.33c-.43.12-.86.23-1.28.35 1.56-.02 3.12-.05 4.69-.07 1.86-.28 3.72-.55 5.59-.83-.87.03-1.74.06-2.61.08 4.57-.62 3.62-.16 7.43-.48 1.3-.29 2.55-.57 3.82-.85l5.63-.27c3.12-.43 3.39-.56 1.26-.46 1.54-.36 3.28-.29 5.16-.59.15-.02-.16-.15-.02-.16 9.74-1.27 9.3-.79 10.86-.96 1.09-.11 5.4-.91 5.46-1.02.07-.14-9.06.42 5.14-1.28-7.38.52-15.7 1.87-10.22 1.75-2.35.23-12.67 1.59-13.32 1.65-.96.09-.65-.15-1.85-.02-.7.09-2.53.76-8.14 1.03-.7.15-1.4.31-2.1.47l-2.05.06c1.38-.39 2.71-.77 4.06-1.15-5.4.88-10.09.99-13.36 1.76-2.89.29-4.29.41-3.08.08l-2.59.3-1.655.51Zm220.035-25.461c-2.89.126-3.86.718-3.42.691 2.53-.154 4.92-.756 3.42-.691Zm-240.69 28.581c3.17-.25 6.353-.51 9.549-.76l-.053-.45c-3.178.41-6.343.81-9.496 1.21Zm270-32.321c.3.077.61.153.91.229 3.42-.821 6.93-.652 8.63-.978.37-.071-.4-.177-1.12-.134-.44.027-7.81.773-8.42.883Zm144.05-17.256-3.84.689c.06-.134.12-.268.17-.401.64-.1 1.27-.2 1.9-.3l1.77.012Zm-14.62 1.961-6.92.801c8.78-1.172 1.56-.36 6.88-1.165.01.121.03.242.04.364Zm-23.32 2.547c.28-.108.55-.217.82-.325l6.9-.829-4.46-.253-2.52.301c-.25.369-.49.738-.74 1.106ZM910.822 1028.1c-1.398.16-6.197.95-5.978 1.01 2.012-.13 4.032-.26 6.058-.4l-.024-.45c.293.04.587.08.88.13 1.141-.19 2.283-.38 3.428-.58.595.07 1.191.13 1.788.19.566-.22 1.133-.43 1.701-.65-5.604.39-5.369.63-6.525.76-.585.07-.965.02-1.178 0-.05 0-.1-.01-.15-.01Zm69.489-8.31c-6.607.74-10.224 1.56-15.07 1.8 3.137.34 22.762-2.71 29.81-2.95.704-.2 1.409-.4 2.114-.59-3.749.54-6.389.62-8.267.81-1.482.15-1.314.25-1.427.26h-.016c-3.463.36-4.541.37-7.144.67Zm272.759-32.255c-1.79.036-4.89.425-4.89.687l5.2-.397c-.36-.023 0-.297-.31-.29Zm98.53-12.013c-1.39.082-4.63.546-3.2.6.25.01 3.48-.537 1.62.094 3.16-.386 2.37-.74 1.58-.694Zm-258.62 31.428c1.17-.14 2.33-.29 3.48-.43.26-.14.51-.28.77-.41-1.41.28-2.82.56-4.25.84Zm175.01-21.387c1.6.325 4.18-.487 7.13-.416l3.21-.377.01-.001c.01-.142.03-.285.04-.427l-10.39 1.221Zm-247.53 29.757 2.16-.06c1.26-.23 2.52-.45 3.78-.68-.69.03-1.38.05-2.08.08l-3.86.66Zm266.36-32.062c-3.76.388-5.12 1-.32.424 2.03-.243 4.27-.83.32-.424ZM839.253 1036.6l3.855-.33c.427-.14.854-.29 1.281-.43-1.718.25-3.431.51-5.136.76Zm530.107-63.163-.42.333-3.44.358c.27-.127.55-.254.83-.382l3.03-.309Zm-521.452 62.223c1.036-.11 2.075-.21 3.116-.31.693-.13 1.387-.25 2.082-.38-.981.07-1.959.14-2.935.2-.756.17-1.51.33-2.263.49Zm474.432-56.625c-1.45.06-7.16 1.1-1.97.567 3.3-.34 2.19-.576 1.97-.567Zm7.74-1.044c-5.51.446-1.27 1.035 5.2-.454-6.59.889-4.88.428-5.2.454Zm48.23-6.366c.13-.016.27.126 1.37-.001 3.96-.456 9.2-1.025 12.05-1.357 6.83-.799 27.71-3.597 30.2-3.441.53.034-.61.457-.4.447.61-.033 4.09-.591 3.47-.305l-10.29 1.234c.82-.248 1.64-.496 2.47-.744-8.54 1.106-5.71.757-8.13 1.372l-4.38.151c-3.15.505-6.29 1.009-9.42 1.513.7-.179 1.4-.358 2.11-.537-4.77.4-3.44.354-6.01.892-.02-.093-.03-.185-.05-.277-4.55.778-5.48.607-6.48.724-2.06.242-4.5 1.649-12.5 1.504-3.25.923-3.3-.154-5.18.623-5.67.082 5-.984 10.05-1.572l.01-.001c.38-.044-.24-.071 1.11-.225Zm-28.66 3.999c3.33-.89-10.07.675-5.55.838l1.99-.17 3.57-.669-.01.001Zm-125.71 14.77c-12.38 1.685-5.3 1.117-1.13.343.83-.154 1.28-.283 1.13-.343Zm-253.051 30.126-.518.24c4.106-.54 12.171-1.27 12.018-1.64-3.852.47-7.686.94-11.5 1.4Zm32.801-4.13c-.89.08-4.534.45-4.077.55 1.587-.08 3.177-.17 4.767-.25.73-.15 1.46-.31 2.19-.46-1.04.1-2.63.13-2.88.16Z"/></svg>