<svg xmlns="http://www.w3.org/2000/svg" width="2145" height="874" fill="none"><path fill="#fff" d="M515.804 43.367a2585.906 2585.906 0 0 0 19.071 11.07l3.272 1.887 6.57 3.785c5.429 3.128 10.856 6.26 16.283 9.391l6.5 3.75 13 7.5 3.25 1.875 6.495 3.748a26513.62 26513.62 0 0 0 16.325 9.412 5461.232 5461.232 0 0 1 31.305 18.153A2673.796 2673.796 0 0 0 664 129a2970.83 2970.83 0 0 1 29.066 16.783 4077.802 4077.802 0 0 0 21.809 12.655l3.265 1.882c5.501 3.171 11.004 6.338 16.508 9.504 4.358 2.507 8.712 5.022 13.063 7.543 4.116 2.385 8.246 4.742 12.39 7.078C770.58 190.41 779.589 196.321 788 205l1.918 1.711C805.055 220.359 814.207 243.024 816 263c.152 4.652.148 9.303.147 13.957l.011 4.294c.01 3.924.014 7.849.016 11.774.004 4.237.014 8.473.022 12.71.02 10.23.03 20.459.039 30.688l.015 14.474c.017 16.051.032 32.102.039 48.154l.006 12.487.001 3.135c.008 16.738.034 33.475.066 50.213.033 17.208.051 34.416.055 51.624.002 9.652.01 19.304.036 28.956.022 8.225.03 16.449.02 24.674-.004 4.189-.003 8.377.017 12.566.161 36.545-5.438 64.922-31.826 91.993-7.224 6.239-15.412 11.065-23.664 15.801a5361.644 5361.644 0 0 1-13 7.5 16377.114 16377.114 0 0 1-22.718 13.109c-5.429 3.128-10.856 6.26-16.282 9.391l-6.5 3.75-3.25 1.875-65.001 37.5-6.495 3.748a26513.62 26513.62 0 0 1-16.325 9.412 5507.489 5507.489 0 0 0-31.304 18.153c-9.27 5.421-18.584 10.764-27.914 16.081a2801.75 2801.75 0 0 0-27.248 15.747 4349.229 4349.229 0 0 1-25.886 14.998l-3.062 1.763-3.005 1.727a558.55 558.55 0 0 0-6.163 3.628c-23.358 13.908-50.472 18.709-77.047 12.149-18.173-5.008-34.265-15.631-50.389-25.043-5.46-3.182-10.936-6.334-16.411-9.488l-6.5-3.75-3.25-1.875L219.5 755.25l-3.251-1.875-6.495-3.748a26513.62 26513.62 0 0 0-16.325-9.412 6013.824 6013.824 0 0 1-34.257-19.88 2184.459 2184.459 0 0 0-21.217-12.203c-9.638-5.488-19.264-10.999-28.832-16.609-1.686-.986-3.377-1.966-5.068-2.944-24.525-14.449-41.996-35.215-49.223-62.951-3.168-13.833-2.392-28.316-2.34-42.425.01-4.301-.002-8.602-.01-12.902-.014-8.401-.007-16.802.008-25.203.017-9.799.014-19.599.01-29.399-.006-17.493.008-34.985.033-52.478.024-16.944.031-33.889.02-50.833-.01-18.49-.013-36.981.002-55.471l.004-5.922.003-2.943c.004-6.819.002-13.638-.002-20.457-.005-8.316.001-16.632.021-24.948.01-4.237.015-8.473.007-12.71-.007-3.888 0-7.776.018-11.664.004-1.396.003-2.793-.004-4.19-.117-27.044 10.297-51.29 28.835-70.895 7.64-7.133 16.586-12.598 25.625-17.75l3.12-1.8c2.172-1.252 4.347-2.501 6.522-3.748 3.244-1.861 6.484-3.729 9.721-5.601 5.428-3.137 10.86-6.269 16.292-9.398 5.429-3.128 10.856-6.26 16.283-9.391l6.5-3.75 3.25-1.875 169.003-97.502 6.461-3.728a16800.535 16800.535 0 0 1 20.368-11.739c2.205-1.27 4.411-2.54 6.617-3.808 4.731-2.727 9.437-5.48 14.094-8.332 46.219-27.823 89.341-5.59 130.511 18.601Z"/><path fill="#0A0A0A" d="m444.687 193.75 2.495-.004c13.164.004 25.858.817 38.818 3.254l3.918.656C528.099 204.531 565.076 221.32 595 246l1.793 1.47c12.254 10.096 25.77 21.782 27.426 38.777.788 16.908-1.527 30.548-12.946 43.749-3.536 3.625-7.403 6.885-11.238 10.188-2.094 1.868-4.066 3.816-6.035 5.816-3.2 3.25-6.542 6.247-10 9.219-2.083 1.855-4.043 3.793-6 5.781-3.2 3.25-6.542 6.247-10 9.219-2.083 1.855-4.043 3.793-6 5.781-3.2 3.25-6.542 6.247-10 9.219-2.083 1.855-4.043 3.793-6 5.781-3.2 3.25-6.542 6.247-10 9.219-2.083 1.855-4.043 3.793-6 5.781-3.2 3.25-6.542 6.247-10 9.219-2.083 1.855-4.043 3.793-6 5.781-2.56 2.6-5.168 5.063-7.938 7.437-2.99 2.57-5.793 5.256-8.562 8.063-3.383 3.429-6.881 6.62-10.535 9.754-2.779 2.47-5.354 5.125-7.961 7.773-2.587 2.546-5.319 4.893-8.07 7.258-1.889 1.675-3.666 3.414-5.434 5.215a120.093 120.093 0 0 1-7.438 6.937A133.947 133.947 0 0 0 450 481c-3.2 3.25-6.542 6.247-10 9.219-2.083 1.855-4.043 3.793-6 5.781-3.2 3.25-6.542 6.247-10 9.219-2.083 1.855-4.043 3.793-6 5.781-3.2 3.25-6.542 6.247-10 9.219-2.789 2.483-5.377 5.148-7.996 7.808-2.587 2.546-5.319 4.893-8.07 7.258-2.489 2.207-4.796 4.565-7.125 6.938-3.134 3.078-6.471 5.924-9.809 8.777 11.512 7.828 24.654 12.369 38 16l3.516.976c35.399 8.199 72.346-.645 102.869-19.134C548.822 530.373 568.16 501.984 578 469c4.667-15.301 10.958-28.026 25.312-36.375 12.882-6.368 25.456-8.943 39.5-4.938 14.425 5.03 24.985 13.71 32.188 27.313l1.316 2.406c7.925 17.451 1.47 38.289-4.767 55.11C655.701 554.256 630.58 592.405 595 620l-2.938 2.383C583.208 629.444 573.784 635.316 564 641l-1.865 1.101C550.073 649.169 537.047 654.071 524 659l-2.236.849C476.679 676.688 424.866 676.166 379 663l-3.16-.879c-5.047-1.454-9.963-3.174-14.84-5.121l-2.672-1.055c-7.99-3.234-15.7-6.943-23.328-10.945l-1.891-.983C321.664 638.009 311.324 630.756 301 623l2-4c-3.91 2.995-7.379 6.295-10.813 9.812-3.966 4.014-7.966 7.904-12.281 11.547a96.27 96.27 0 0 0-3.937 3.594c-9.843 9.344-21.508 15.468-35.219 15.359l-2.262-.017c-13.654-.297-25.476-5.679-35.422-15.037-10.15-11.091-14.559-24.767-14.406-39.617 1.995-21.374 17.581-34.936 32.962-48.021a511.497 511.497 0 0 0 5.44-4.745l1.81-1.525c1.891-1.621 1.891-1.621 4.128-4.35-.325-3.404-1.41-6.226-2.856-9.301l-1.127-2.435-1.205-2.577c-26.265-57.568-27.464-123.079-6.109-182.492C229.147 329.267 239.089 309.94 252 293l2.25-3.02c6.692-8.85 14.08-16.807 21.945-24.622a811.711 811.711 0 0 0 5.916-5.967c11.096-11.158 23.13-20.989 36.701-29.016l2.241-1.341A533.65 533.65 0 0 1 328 225l2.309-1.321c12.112-6.84 24.578-12.074 37.691-16.679l2.405-.887c4.455-1.593 7.838-2.133 12.595-2.113a102.77 102.77 0 0 0 6.625-2.813c8.421-3.659 16.998-4.883 26.068-5.921 1.432-.165 2.861-.346 4.288-.552 8.18-1.108 16.466-.956 24.706-.964Z"/><path fill="#fff" d="M1333.81 311.625c7.28 7.906 10.23 16.781 11.31 27.25.09.784.18 1.567.27 2.375.21 1.916.41 3.833.61 5.75.53-.75 1.07-1.5 1.62-2.273 15.38-21.133 34.86-33.885 60.86-38.321 18.98-2.19 37.63 1.17 52.92 13.141 9.22 7.77 15.58 17.573 20.6 28.453.71-1.017.71-1.017 1.43-2.055 14.26-20.059 31.12-34.164 55.57-38.945 22.19-3.332 47.1-.978 66 12 8.01 6.317 14.16 12.909 19 22 .46.849.92 1.699 1.39 2.574 5.85 11.79 8.72 25.557 8.75 38.654 0 1.04 0 1.04.01 2.101.01 2.304.01 4.608.01 6.912.01 1.66.01 3.32.02 4.979.01 4.496.02 8.992.02 13.488 0 2.813.01 5.625.01 8.438l.03 26.43c0 10.15.02 20.301.05 30.452.02 7.86.03 15.72.03 23.58 0 4.689.01 9.377.03 14.065.01 4.412.02 8.824.01 13.236 0 1.613 0 3.226.01 4.839.07 11.883-.37 22.637-8.83 31.842-7.25 6.956-15.85 7.889-25.56 7.836-8.05-.277-16.3-2.416-21.98-8.426-8.27-11.079-8.15-23.381-8.16-36.661 0-1.371-.01-2.742-.01-4.113l-.03-8.818c-.01-4.658-.03-9.316-.05-13.974-.06-13.242-.12-26.484-.15-39.726-.02-7.324-.05-14.647-.09-21.971-.02-3.867-.04-7.733-.04-11.6 0-3.641-.02-7.282-.04-10.923-.01-1.954-.01-3.908 0-5.862-.13-13.38-2.67-26.589-12.43-36.352-9.18-6.085-18.17-7.203-29-6-11.03 2.908-20.48 9.672-27 19-7.26 12.702-9.47 25.976-9.37 40.5-.01 1.948-.01 3.895-.02 5.842 0 2.062 0 4.125.01 6.187.01 4.327 0 8.654-.02 12.981-.03 10.741-.04 21.482-.04 32.223 0 8.367 0 16.734-.04 25.101-.01 4.288-.01 8.576 0 12.865.01 3.31-.01 6.62-.02 9.93l.03 3.532c-.09 10.658-1.88 21.397-9.6 29.253-8.86 7.277-19.95 7.602-30.93 6.586-6.64-1.455-12.36-3.916-17-9-6.79-10.646-7.3-21.628-7.27-33.964-.01-1.38-.01-2.759-.02-4.138-.01-2.952-.01-5.904-.02-8.856 0-4.68-.02-9.359-.04-14.039-.05-11.622-.08-23.245-.1-34.867-.01-9.039-.04-18.078-.08-27.117-.02-4.639-.03-9.279-.03-13.918 0-2.902-.01-5.803-.03-8.705-.01-1.959 0-3.919 0-5.878-.09-11.793-1.79-22.576-8.41-32.518-.58-.908-1.16-1.815-1.75-2.75-7.17-7.172-15.24-8.555-24.97-8.565-11.75.224-19.83 5.183-28.18 13.124-11.95 12.571-14.57 28.981-14.49 45.707 0 1.95-.01 3.9-.02 5.849-.01 2.065 0 4.13 0 6.194.01 4.331-.01 8.662-.03 12.993-.04 9.971-.05 19.941-.06 29.912-.01 9.155-.03 18.309-.07 27.464-.02 4.294-.02 8.587-.02 12.881 0 2.031 0 4.063-.01 6.095-.01 2.461-.01 4.921 0 7.382-.07 9.987-1.03 20.124-7.67 28.03-7.56 7.342-16.26 9.087-26.59 9.052-7.54-.183-14.35-2.074-20.52-6.556-11.03-11.826-9.92-26.606-9.9-41.759 0-2.021 0-4.043-.01-6.064-.01-5.469-.01-10.938-.01-16.407 0-4.575-.01-9.15-.01-13.725-.01-10.797-.01-21.595-.01-32.392.01-11.119 0-22.238-.02-33.356-.02-9.566-.03-19.131-.02-28.697 0-5.704 0-11.409-.02-17.113-.01-5.367-.01-10.733 0-16.1.01-1.962 0-3.924-.01-5.886-.05-13.981-.05-27.05 9.39-38.313 11.68-11.096 27.58-10.021 40.81-2.375Zm-226.57-3.746c33.98-.655 65.99 11.137 91.76 33.121.75.639 1.51 1.279 2.29 1.938 6.64 6.092 9.29 13.376 9.81 22.289-.39 10.657-6 18.03-13.35 25.211-.58.571-1.16 1.142-1.75 1.731a208.03 208.03 0 0 1-11.18 10.226c-2.74 2.413-5.26 5.034-7.82 7.636-2.56 2.523-5.27 4.845-8 7.188-2.08 1.855-4.04 3.793-6 5.781-3.2 3.25-6.54 6.247-10 9.219-2.08 1.855-4.04 3.793-6 5.781-3.2 3.25-6.54 6.247-10 9.219-2.08 1.855-4.04 3.793-6 5.781-3.2 3.25-6.54 6.247-10 9.219-2.08 1.855-4.04 3.793-6 5.781-3.2 3.25-6.54 6.247-10 9.219-2.08 1.855-4.04 3.793-6 5.781-3.2 3.248-6.54 6.243-9.99 9.211-2.83 2.52-5.46 5.224-8.11 7.922-2.51 2.466-5.15 4.671-7.9 6.867 3.18 2.641 6.33 4.094 10.19 5.562l3.23 1.254c19.17 6.334 39.88 4.642 57.96-4.128 5.73-3.026 10.69-6.491 15.62-10.688l3-2.188c10.61-9.082 16.9-22.628 20.85-35.751 2.74-9.079 6.68-15.567 14.9-20.561 7.92-3.656 17.32-3.902 25.56-1 7.35 3.406 13.16 9.303 16.06 16.914 4.62 18.984-5.82 40.171-15.41 56.066-20 30.859-49.56 52.2-85.52 60.325-9.61 2.034-18.88 2.722-28.69 2.633l-2.17-.01c-11.88-.074-23.14-1.066-34.58-4.428-.71-.204-1.43-.407-2.16-.617-15.07-4.432-29.52-11.632-41.84-21.383-3.69 1.712-5.85 3.762-8.62 6.75-7.43 7.598-14.7 12.341-25.442 12.625-8.349.023-13.922-1.882-20.219-7.359-5.95-6.08-8.651-12.541-9.094-21.016.574-10.591 4.986-16.673 12.375-24l1.969-2.043c3.161-3.251 6.409-6.213 10.031-8.957-1.372-4.312-3.022-8.409-4.812-12.562-13.655-32.961-12.539-70.669.812-103.438 10.751-24.51 28.29-45.727 51-60 .61-.389 1.23-.778 1.86-1.178 20.48-12.741 43.37-19.046 67.38-19.943Zm-54.43 83.371c-14.05 16.612-20.07 36.182-18.81 57.75.78 6.7.78 6.7 3 13 3.25-1.417 5.31-3.125 7.75-5.688 3.21-3.364 6.62-6.402 10.13-9.445 3.41-2.999 6.7-6.122 10-9.242 5.11-4.816 10.26-9.578 15.5-14.254 3.41-3.085 6.76-6.227 10.12-9.371a877.72 877.72 0 0 1 14.84-13.594c4.08-3.696 8.09-7.467 12.11-11.234 4.43-4.151 8.92-8.216 13.5-12.207 2.26-2.164 4.15-4.486 6.05-6.965-30.38-10.752-62.28-1.926-84.19 21.25Z"/><path fill="#0A0A0A" d="M655.816 433.473c8.36 5.847 14.411 12.512 19.184 21.527l1.316 2.406c7.925 17.451 1.47 38.289-4.767 55.11C655.701 554.256 630.58 592.406 595 620l-2.938 2.383C583.209 629.444 573.784 635.316 564 641l-1.865 1.101C550.073 649.169 537.047 654.071 524 659l-2.236.849C476.679 676.689 424.866 676.166 379 663l-3.16-.879c-5.047-1.454-9.963-3.174-14.84-5.121l-2.672-1.055c-7.99-3.234-15.7-6.943-23.328-10.945l-1.891-.983C321.664 638.009 311.324 630.756 301 623c1.404-3.148 3.078-5.372 5.449-7.863l2.072-2.19 2.167-2.26 2.107-2.224C324.496 596.15 324.496 596.15 330 591.5a123.105 123.105 0 0 0 7.5-7 117.163 117.163 0 0 1 7.375-6.875c3.01-2.591 5.836-5.298 8.625-8.125a150.336 150.336 0 0 1 10.383-9.602c3.165-2.838 6.13-5.874 9.117-8.898l3.559 1.758c8.079 3.939 16.137 7.709 24.629 10.679l2.027.71c33.678 11.407 71.313 7.588 102.973-7.96 32.297-16.519 57.831-43.747 69.187-78.625A521.682 521.682 0 0 0 578 469c4.667-15.301 10.958-28.026 25.312-36.375 17.486-8.645 35.432-9.458 52.504.848Z"/><path fill="#fff" d="M1883.68 329.242c12.42 11.533 18.99 26.394 19.7 43.231.18 7.295.18 14.589.16 21.884 0 3.713.02 7.424.03 11.136.03 7.029.05 14.057.05 21.085.01 12.552.04 25.104.09 37.656.01 4.387.02 8.773.01 13.16 0 18.718.38 36.664 4.94 54.868 2.09 8.496 2.35 15.768-1.66 23.738-4.43 6.314-10.06 11.788-17.76 13.684-12.09 1.709-23.2.299-33.21-6.903-8.39-7.349-12.04-18.928-13.03-29.781-3.75 3.126-7.28 6.258-10.63 9.812-19.12 19.274-46.18 27.21-72.68 27.563-20.32-.057-38.69-6.217-53.21-20.785-1.23-1.282-1.23-1.282-2.48-2.59-.61-.618-1.23-1.235-1.86-1.871-11.83-12.712-16.56-30.874-16.45-47.817 0-.959.01-1.918.01-2.906.33-19.816 6.28-37.005 19.92-51.531 24.71-23.774 62.31-25.275 94.48-29.402 3.68-.476 7.35-.973 11.02-1.473l3.23-.393c7.4-1.024 15.51-2.726 20.42-8.797 4.32-6.972 4.17-14.885 3.23-22.81-1.64-6.242-5.61-10.598-11-14-13.88-6.895-30.21-8.505-45.2-4.031-11.83 4.361-19.78 10.811-28.44 19.804-.65.666-1.3 1.331-1.96 2.016a217.398 217.398 0 0 0-3.78 3.982c-5.13 5.318-10.42 8.522-17.77 9.76-8.08-.09-14.84-1.116-21.14-6.484-5.94-6.185-8.69-12.261-9.15-20.797.54-14.347 8.23-27.492 18.44-37.25 41.71-35.719 122.86-39.537 165.68-3.758Zm-47.37 119.711c-11.12 6.239-23.68 7.806-36.1 9.851-25.19 3.339-25.19 3.339-45.12 17.727-5.13 8.23-6.47 16.091-4.66 25.75 2.34 7.248 7.52 12.775 14.01 16.594 12.67 6.294 26.84 5.39 40.09 1.371 13.5-4.853 23.62-13.532 30.25-26.348.4-.956.81-1.913 1.22-2.898.27-.568.54-1.136.81-1.722 3.26-7.913 2.52-16.448 2.38-24.841-.02-1.597-.03-3.194-.04-4.791-.04-3.882-.09-7.764-.15-11.646-1.18-.082-1.18-.082-2.69.953Zm180.88-137.516c6.18 4.923 9.54 12.9 10.81 20.563.14 2.129.25 4.262.32 6.394l.12 3.643.12 3.775c.05 1.266.09 2.531.13 3.834.11 3.118.21 6.236.31 9.354.42-1.221.85-2.442 1.28-3.699 6.43-18.165 14.02-36.096 32.04-45.516 10.96-5.089 22.13-5.13 33.56-1.238 8.48 3.952 14.58 10.852 18.12 19.453 2.77 9.525 2.67 23.158-1.81 32.031L2111 362c-.36.65-.72 1.299-1.1 1.969-3.87 6.203-9.76 9.745-16.75 11.64-5.57 1.013-11.36.753-16.99.782-10.16.232-19.02 2.497-26.45 9.722-9.34 10.325-12.3 25.381-13.71 38.887-.08.699-.16 1.397-.25 2.117-1.02 10.148-.93 20.318-.98 30.507l-.06 10.432c-.08 9.879-.14 19.757-.19 29.636-.03 6.063-.07 12.127-.12 18.19-.01 2.301-.03 4.602-.03 6.902-.02 3.218-.04 6.436-.07 9.654v2.849c-.12 10.967-2.28 20.329-9.93 28.525-9.07 6.597-19.58 7.263-30.37 6.188-7.56-1.694-13.88-4.528-18.4-11.004-4.74-7.882-5.91-15.907-5.85-24.99-.01-1.288-.01-1.289-.01-2.603-.01-2.853-.01-5.706 0-8.559 0-2.056-.01-4.112-.01-6.167-.01-5.566-.01-11.132 0-16.698.01-5.834 0-11.667 0-17.501-.01-9.794 0-19.589.01-29.384.01-11.314.01-22.627 0-33.941-.01-9.725-.01-19.45-.01-29.175v-17.41c-.01-5.457 0-10.914.01-16.37 0-1.999 0-3.998-.01-5.997 0-2.736.01-5.471.02-8.207-.01-.785-.01-1.569-.02-2.378.07-9.646 2.17-17.974 8.27-25.616 11.45-10.099 26.51-10.719 39.19-2.563ZM496 304c-3.324 3.993-6.636 7.767-10.562 11.188a663.972 663.972 0 0 0-11.75 10.625l-1.657 1.531-3.353 3.103c-2.745 2.541-5.493 5.078-8.24 7.616l-1.633 1.507a4241.91 4241.91 0 0 1-12.286 11.286A3518.153 3518.153 0 0 0 435.5 361c-4.65 4.296-9.311 8.58-13.98 12.855A3528.515 3528.515 0 0 0 410.5 384c-4.65 4.296-9.311 8.58-13.98 12.855A3528.515 3528.515 0 0 0 385.5 407c-4.65 4.296-9.311 8.58-13.98 12.855A3528.515 3528.515 0 0 0 360.5 430c-4.65 4.296-9.311 8.58-13.98 12.855a2946.827 2946.827 0 0 0-9.378 8.628l-3.267 3.015c-2.75 2.535-5.493 5.078-8.223 7.635l-3.214 2.992-2.879 2.695c-2.168 1.847-3.954 3.089-6.559 4.18-6.352-20.75-7.725-44.727-3-66l.457-2.119c7.931-35.931 29.579-67.62 60.629-87.561C409.92 292.279 453.174 289.922 496 304Z"/><path fill="#0A0A0A" d="M394 199.5c-1.454.697-4.913 2.882-6.375 3.562l-2.461 1.161L383 205c-.66-.33-2.32 1.34-3 1 0-.66-6-.32-6-1 7.625-2.125 15-4 20-5.5Z"/></svg>