<svg xmlns="http://www.w3.org/2000/svg" width="512" height="185" fill="none"><g fill="#fff" clip-path="url(#a)"><path d="m435.068-.048.4-.002h1.33c.32 0 .641 0 .961-.002a631.2 631.2 0 0 1 2.093-.001c1.037 0 2.075 0 3.112-.002 1.96-.003 3.92-.004 5.88-.004h4.54l.652-.001h.982c3.045-.003 6.09-.004 9.134-.003h3.145c3.638.001 7.276 0 10.914-.005a9776.258 9776.258 0 0 1 13.888-.006l4.861-.003c1.841-.003 3.683-.004 5.525-.001 1.031.001 2.063 0 3.094-.002a354.51 354.51 0 0 1 2.306.002c.312 0 .624 0 .936-.002.423-.002.845 0 1.267.002l.372-.005c.522.007.841.042 1.303.3.377.648.322 1.278.314 2.015l.003.504c.002.463 0 .926-.002 1.39-.002.503 0 1.006.001 1.51a779.2 779.2 0 0 1-.001 2.648c-.004 1.313-.003 2.625-.002 3.938.002 2.209 0 4.417-.002 6.625-.003 2.189-.005 4.377-.005 6.565v2.069c0 5.182-.004 10.365-.009 15.548-.004 4.604-.007 9.21-.007 13.814v3.976l-.005 13.604-.002 4.515v.82l-.006 7.813-.002 3.915-.003 2.616v1.49l-.002 1.358c-.001.238 0 .476.001.714-.014 2.707-.014 2.707-.784 3.518-1.161.614-2.499.699-3.781.858a58.54 58.54 0 0 0-4.284.703c-1.804.366-3.611.69-5.435.937l-.29.04c-1.761.239-3.507.305-5.276.115a18.58 18.58 0 0 0-1.155-.066 84.512 84.512 0 0 1-9.045-.776l-.273-.039c-.974-.138-1.931-.308-2.882-.566-.35-.087-.699-.146-1.056-.199-4.106-.659-8.439-2.274-12.187-4.04a44.582 44.582 0 0 0-1.036-.469c-1.829-.805-3.631-1.67-5.324-2.737-.242-.151-.242-.151-.601-.257v-.25l-.277-.039c-.381-.094-.608-.233-.926-.46-.319-.227-.548-.376-.922-.5v-.25l-.252-.09c-.475-.203-.907-.457-1.35-.722l-.262-.153a13.22 13.22 0 0 1-.636-.409v-.25l-.274-.101a5.337 5.337 0 0 1-.976-.523v-.25l-.259-.09c-.442-.193-.824-.448-1.218-.722l-.226-.153a11.58 11.58 0 0 1-.547-.41v-.25l-.253-.077c-.509-.235-.903-.573-1.333-.93l-.502-.41-.222-.183c-.191-.159-.191-.159-.44-.273v-.25l-.219-.101a4.071 4.071 0 0 1-.781-.523v-.25l-.211-.023c-.408-.144-.619-.417-.914-.727a40.685 40.685 0 0 1-.375-.25v-.25l-.221-.095c-.309-.17-.505-.36-.748-.615a13.536 13.536 0 0 0-.984-.929 27.136 27.136 0 0 1-3.006-3.039c-.182-.217-.182-.217-.471-.49-.195-.203-.195-.203-.195-.453h-.25c-.625-.683-.625-.683-.625-.999h-.25c-.189-.21-.189-.21-.391-.484l-.204-.272c-.155-.243-.155-.243-.155-.493h-.25c-.161-.182-.161-.182-.328-.422l-.169-.237c-.128-.215-.128-.215-.128-.465h-.25c-.211-.27-.408-.539-.602-.82l-.161-.23a91.22 91.22 0 0 1-.322-.464c-.169-.241-.344-.478-.518-.715-.272-.394-.272-.394-.272-.644h-.25a9.878 9.878 0 0 1-.492-.742l-.137-.225a6.432 6.432 0 0 1-.746-1.781 97.225 97.225 0 0 0-.128-.434c-.157-.635-.158-1.25-.156-1.901l-.002-.4c-.002-.441-.002-.883-.002-1.325l-.003-.955c-.003-.69-.004-1.379-.005-2.068-.001-1.012-.004-2.024-.007-3.036l-.012-5.028c-.005-2.466-.012-4.933-.019-7.4l-.002-.616-.007-2.459-.009-3.37c-.017-6.262-.045-12.525-.087-18.788l-.037-5.745-.002-.278c-.021-3.411-.039-6.823-.044-10.234l-.004-1.496-.003-1.648-.001-.581c-.002-.26-.001-.518-.001-.776v-.43c.049-.568.049-.568.281-.86.738-.4 1.364-.428 2.193-.423Zm16.807 19.785c-.601.95-.533 2.24-.441 3.315.068.885.084 1.764.084 2.651l.001.497.002 1.348.003 1.46.005 2.525c.001 1.219.004 2.437.007 3.655l.013 5.937.001.359.009 5.038v.358l.001.359c.003 1.972.008 3.945.013 5.917.003 1.215.005 2.43.006 3.646.001.832.003 1.665.006 2.497l.002 1.44c0 .52.002 1.041.004 1.562l-.001.456c.006 1.086.037 2.177.644 3.113l.2.31c.218.314.429.62.691.9h.25v.25h.25l.125.374h.25v.25h.25l.125.375h.25v.25h.25l.125.374h.25v.25h.25v.25c.166.208.166.208.375.375h.25v.25c.181.187.181.187.422.382.535.453 1.051.925 1.565 1.401.238.242.238.242.513.215v.25c.205.189.205.189.476.383.432.325.852.66 1.266 1.007 1.303 1.07 2.699 2.026 4.086 2.982l.237.164a61.603 61.603 0 0 0 .951.638l.268.174.243.159c.237.143.237.143.598.114v.25l.284.138c.626.307 1.24.618 1.833.986 1.157.707 2.42 1.2 3.678 1.694.415.164.826.335 1.236.508 4.899 2.044 10.138 2.718 15.391 3.13l.317.026c1.987.273 1.987.273 3.894-.025.853-1.184.67-2.817.664-4.203l.002-.762c.002-.697.001-1.393 0-2.089-.001-.752 0-1.503.001-2.255.002-1.386.002-2.773.001-4.16l-.001-3.843v-1.294c.002-3.238.001-6.476-.001-9.714-.002-2.875-.002-5.75 0-8.625.002-3.232.002-6.463.001-9.695v-1.292c-.001-1.28 0-2.56.001-3.84.001-1.456.001-2.912-.001-4.368-.001-.743-.002-1.485 0-2.228.001-.68 0-1.36-.002-2.041l.001-.737c.059-2.111.059-2.111-.69-4.029-.952-.64-1.936-.67-3.055-.663l-.47-.002c-.429-.001-.857 0-1.286.001h-1.39c-.906-.002-1.812-.001-2.719 0-1.056.002-2.112.002-3.168.002-1.885 0-3.77 0-5.655.003-1.827.003-3.655.003-5.483.003h-5.975l-.637.001h-2.524c-.897 0-1.794 0-2.691.003h-1.372c-.496 0-.993.001-1.489.003l-.436-.002c-1.129.006-2.311.034-3.134.909ZM114.343-.047l.321-.002a634.075 634.075 0 0 0 1.836 0c.707-.002 1.413-.001 2.12 0l2.286-.001c1.407-.002 2.814-.002 4.221 0h5.216c3.29-.002 6.579 0 9.869.001 2.918.002 5.836.002 8.754 0a10196.634 10196.634 0 0 1 10.893-.001h.262l3.895-.001c1.479-.001 2.958 0 4.437.001.754.001 1.508.002 2.261 0 .692 0 1.384 0 2.076.002h.745c1.286-.005 2.545.047 3.821.215l.34.044c1.625.235 1.625.235 2.053.663.01 1.469-.264 2.894-.544 4.33-.091.47-.177.94-.263 1.412-.59 3.231-.59 3.231-.997 4.735-.088.33-.169.662-.25.994-.582 2.37-.582 2.37-.948 3.508-.116.366-.224.733-.329 1.101a76.617 76.617 0 0 1-1.051 3.339 37.508 37.508 0 0 1-.868 2.317l-.186.474a43.59 43.59 0 0 1-1.128 2.62c-.189.412-.364.828-.537 1.247-.37.87-.806 1.695-1.255 2.526-.222.413-.432.83-.636 1.252-.404.818-.873 1.596-1.339 2.379a50.08 50.08 0 0 0-.919 1.619h-.25l-.09.25c-.203.475-.457.908-.722 1.35l-.153.262c-.129.217-.269.427-.41.636h-.25l-.101.273a5.368 5.368 0 0 1-.524.976h-.25l-.085.26c-.206.457-.486.81-.797 1.2-.408.495-.408.495-.743 1.038h-.25l-.105.223c-.226.433-.531.8-.832 1.183-.063.08-.125.162-.189.245-.16.205-.329.402-.499.598h-.25l-.101.216a6.135 6.135 0 0 1-.524.814l-.195.268-.18.2h-.25v.25c-.202.215-.412.422-.625.625l-.695.687-.352.348c-.327.328-.327.328-.59.668a4.89 4.89 0 0 1-.714.717 15.25 15.25 0 0 0-1.218 1.167c-.181.16-.181.16-.431.16l-.125.375h-.25v.25h-.25v.25c-.211.195-.432.381-.656.562l-.369.3a4.14 4.14 0 0 1-.85.512v.25c-.25.203-.25.203-.5.375.071.497.237.825.5 1.249v.25h.25c.137.178.137.178.286.43l.168.28.179.305.375.624.189.314a47.102 47.102 0 0 0 .885 1.404c.4.617.81 1.229 1.22 1.84.37.553.73 1.112 1.086 1.674.729 1.149 1.47 2.29 2.23 3.419a117.54 117.54 0 0 1 2.132 3.325l.231.367c.144.258.144.258.144.508h.25c.168.219.168.219.359.526l.216.343.23.372.477.76.24.383c.316.504.639 1.005.963 1.504l.17.262c.321.496.648.988.978 1.479.45.67.88 1.353 1.305 2.04l.15.242.145.234c.138.218.283.43.429.643.213.33.213.33.213.58h.25l.125.625h.25c.178.237.178.237.38.565l.22.355.228.376.232.373c.565.92.565.92.565 1.204h.25c.14.199.14.199.305.492a44.05 44.05 0 0 0 1.156 1.866l.18.28c.229.351.453.695.713 1.025.146.21.146.21.146.584h.25c.164.21.164.21.348.502l.201.318.209.336.21.33c.561.895.561.895.657 1.387h.25c.143.189.143.189.299.453l.174.29.184.311c.124.207.248.415.373.621l.181.302c.345.569.701 1.134 1.121 1.65.168.246.168.246.168.62h.25c.155.203.155.203.326.484l.185.304.192.321.196.319c.476.787.476.787.476 1.07h.25c.175.231.175.231.377.554l.225.357a108.959 108.959 0 0 0 .462.74l.457.731a204.38 204.38 0 0 0 2 3.122c.854 1.315.854 1.315.854 1.617h.25c.178.237.178.237.38.565l.22.355.228.376.232.373c.565.921.565.921.565 1.204h.25c.191.259.191.259.413.621l.245.396.256.42.252.408c.163.263.325.527.486.791.195.317.395.63.596.944.252.417.252.417.252.667h.25c.151.203.151.203.317.483l.182.304.189.322.371.623.166.282c.149.251.149.251.4.485v.374h.25c.201.27.201.27.435.643l.254.405.131.213.401.639c.654 1.05.654 1.05.654 1.473-.187.061-.374.121-.562.18l-.317.101c-1.092.277-2.204.237-3.323.235l-.578.001-1.212-.001h-1.222c-1.345.002-2.691-.002-4.036-.016l-.254-.003c-.53-.005-1.06-.016-1.59-.03l-.387-.005c-1.02-.034-1.924-.306-2.7-1-1.194-1.304-1.194-1.304-1.194-1.835h-.25a14.665 14.665 0 0 1-.36-.534c-.314-.484-.684-.932-1.036-1.389-.229-.326-.229-.326-.229-.576h-.25a13.808 13.808 0 0 1-.36-.533c-.314-.485-.684-.933-1.036-1.389-.229-.326-.229-.326-.229-.576h-.25c-.375-.548-.375-.548-.375-.874h-.25c-.18-.217-.351-.443-.515-.672l-.275-.378c-.21-.325-.21-.325-.21-.574h-.25c-.375-.548-.375-.548-.375-.875h-.25c-.18-.217-.351-.442-.515-.671l-.275-.378c-.21-.325-.21-.325-.21-.575h-.25c-.375-.547-.375-.547-.375-.874h-.25a17.489 17.489 0 0 1-.617-.843l-.331-.475a12.507 12.507 0 0 0-.529-.722c-.148-.208-.148-.208-.148-.458h-.25a17.491 17.491 0 0 1-.617-.844l-.331-.474-.158-.227a11.878 11.878 0 0 0-.371-.495c-.148-.209-.148-.209-.148-.459h-.25c-.375-.547-.375-.547-.375-.874h-.25c-.203-.248-.203-.248-.445-.593-.285-.404-.57-.805-.871-1.197l-.156-.205-.442-.574c-.211-.304-.211-.304-.211-.554h-.25a17.494 17.494 0 0 1-.617-.843l-.331-.474-.158-.228a11.812 11.812 0 0 0-.371-.495c-.148-.209-.148-.209-.148-.458h-.25a17.494 17.494 0 0 1-.617-.843l-.331-.475-.158-.227a11.812 11.812 0 0 0-.371-.495c-.148-.209-.148-.209-.148-.459h-.25c-.375-.547-.375-.547-.375-.874h-.25c-.18-.217-.351-.442-.515-.671l-.275-.378c-.21-.325-.21-.325-.21-.575h-.25c-.375-.548-.375-.548-.375-.874h-.25c-.18-.217-.351-.442-.515-.672l-.275-.377c-.21-.325-.21-.325-.21-.575h-.25c-.375-.548-.375-.548-.375-.875h-.25c-.18-.216-.351-.442-.515-.671l-.275-.378c-.21-.325-.21-.325-.21-.575h-.25c-.375-.547-.375-.547-.375-.874h-.25a17.544 17.544 0 0 1-.617-.843l-.331-.474-.158-.228a11.878 11.878 0 0 0-.371-.495c-.148-.208-.148-.208-.148-.458h-.25c-.375-.548-.375-.548-.375-.875h-.25c-.18-.216-.351-.442-.515-.671l-.275-.378c-.21-.325-.21-.325-.21-.575h-.25c-.375-.547-.375-.547-.375-.874h-.25c-.18-.217-.351-.442-.515-.671l-.275-.378c-.21-.325-.21-.325-.21-.575h-.25c-.215-.264-.215-.264-.453-.609l-.239-.342c-.183-.298-.183-.298-.183-.548h-.25a17.494 17.494 0 0 1-.617-.843l-.331-.474-.158-.228a11.878 11.878 0 0 0-.371-.495c-.148-.208-.148-.208-.148-.458h-.25a14.147 14.147 0 0 1-.36-.534c-.314-.484-.684-.932-1.036-1.389-.229-.326-.229-.326-.229-.576h-.25c-.375-.547-.375-.547-.375-.874h-.25a17.494 17.494 0 0 1-.617-.843l-.331-.474-.158-.228a11.812 11.812 0 0 0-.371-.495c-.148-.208-.148-.208-.148-.458h-.25a13.981 13.981 0 0 1-.356-.527c-.251-.389-.536-.752-.816-1.12a303.343 303.343 0 0 1-2.398-3.232 18.39 18.39 0 0 0-.39-.508c-.165-.234-.165-.234-.165-.484h-.25a15.944 15.944 0 0 1-.562-.781 28.012 28.012 0 0 0-1.367-1.82c-.101-.12-.201-.243-.305-.368-.25-.306-.25-.306-.641-.404-.177.354-.14.65-.141 1.047v1.096l-.001.608-.001 1.327c.001.719 0 1.438-.001 2.157l-.002 3.133c0 1.65-.003 3.3-.005 4.95l-.002 1.692-.001.427-.006 4.818-.001.445-.005 7.14c-.001 2.442-.004 4.884-.008 7.325-.003 1.507-.004 3.014-.003 4.521 0 1.033-.001 2.066-.004 3.098a355.37 355.37 0 0 0-.001 1.788c.001.546 0 1.091-.003 1.637l.001.593c.001.268 0 .536-.003.804v.452c-.076.498-.25.767-.563 1.158-.828.552-1.979.39-2.94.384l-.792-.003c-.658-.001-1.315-.004-1.972-.007-.644-.003-1.288-.006-1.931-.007l-.271-.001a45.767 45.767 0 0 0-3.187.087c-1.07.072-2.141.07-3.214.07-.362 0-.724.002-1.087.005l-.698.001-.325.002c-.543-.002-.963-.028-1.458-.281v-.25h-.25c-.445-1.128-.393-2.354-.39-3.549l-.001-.462v-8.653l-.001-6.425.001-5.638v-.378l-.001-1.52.001-14.281v-12.63l-.001-14.22.001-1.525v-.38l-.001-5.61.001-6.415v-3.26a1038.88 1038.88 0 0 1 .087-15.246l.005-.52c.002-.236.006-.473.01-.71l.005-.4c.035-.371.129-.647.284-.983h.25v-.25c.729-.312 1.305-.43 2.094-.422Zm16.656 19.409c-.566.758-.437 1.986-.443 2.879l-.008.539c-.007.495-.011.99-.015 1.484-.002.314-.006.628-.009.941-.072 6.588.025 13.178.1 19.765.562-.096.925-.284 1.407-.594.483-.306.966-.607 1.468-.882l.265-.145.235-.128c.366-.194.366-.194.625-.375v-.25l.22-.042c.308-.09.503-.214.763-.4l.274-.196.282-.205.278-.2c.182-.13.364-.26.545-.392.174-.125.349-.247.526-.368.208-.143.411-.293.612-.445v-.25l.5-.125v-.25l.305-.101.32-.149.125-.374c.225-.125.225-.125.5-.25.18-.121.357-.246.532-.375l.267-.195.201-.18v-.25h.25c.213-.204.42-.413.625-.624.364-.327.73-.65 1.097-.974l.278-.275v-.25l.243-.102c.299-.134.299-.134.382-.523h.25v-.25h.25c.222-.21.222-.21.446-.476l.234-.268c.218-.257.218-.257.32-.63h.25v-.25h.25c.233-.245.233-.245.485-.57l.299-.374.164-.207c.193-.242.389-.482.585-.722l.413-.508.203-.248c.354-.385.354-.385.476-.868h.25c.29-.402.29-.402.375-.875h.25c.171-.214.171-.214.328-.484l.169-.272c.148-.234.148-.234.128-.493h.25c.166-.217.166-.217.326-.502l.193-.325.2-.344.389-.659.197-.336c.188-.32.379-.637.572-.954.395-.657.765-1.327 1.131-2.001l.191-.349c.186-.34.369-.683.551-1.025l.186-.342.173-.33.156-.291c.124-.322.131-.569.11-.911-.523-.251-.951-.281-1.529-.282l-.272-.002h-.9l-.647-.002c-.584-.002-1.169-.002-1.754-.002h-1.465c-1.152-.002-2.304-.002-3.456-.001-1.188 0-2.376-.001-3.565-.004-1.02-.002-2.041-.003-3.061-.002-.609 0-1.219 0-1.828-.002a307.81 307.81 0 0 0-1.719 0h-.631c-.287-.002-.574-.001-.861 0h-.487c-.525.055-.856.183-1.325.422ZM3.924-.046l.405-.002a1108.145 1108.145 0 0 0 2.227.002c.638 0 1.277.002 1.916.004.817.003 1.634.003 2.45.002a725.972 725.972 0 0 1 2.797.002c.421 0 .843.002 1.264.004l.372-.001c.905.007 1.814.062 2.637.464.783.973.686 2.367.677 3.55v.554c.001.504 0 1.009-.003 1.513l-.001 1.636c0 .943-.002 1.887-.004 2.83-.004 1.365-.005 2.73-.006 4.095l-.009 6.646-.01 6.45v.402l-.005 4.34v.385l-.002 1.523a4424.711 4424.711 0 0 1-.011 7.26 1240.92 1240.92 0 0 1-.005 3.09l-.002.536v.725l-.001.408c.013.304.052.556.14.846.58-.177.933-.51 1.344-.937l.187-.189c.338-.343.338-.343.594-.748h.25l.09-.213c.196-.351.44-.586.73-.864.391-.36.391-.36.68-.796h.25l.125-.375h.25v-.25h.25l.101-.223c.15-.279.307-.471.524-.7l.218-.23.227-.237a247.024 247.024 0 0 0 .645-.678c.173-.18.173-.18.285-.43h.25v-.25c.172-.203.172-.203.375-.375h.25l.094-.213c.182-.335.402-.594.656-.88l.265-.302c.235-.229.235-.229.485-.229l.023-.21c.145-.413.41-.612.727-.914.23-.265.456-.533.681-.803l.194-.196h.25l.085-.206c.216-.386.495-.674.798-.997.419-.427.419-.427.742-.92h.25v-.25c.205-.212.414-.42.625-.625.113-.137.225-.275.336-.414l.289-.336h.25l.094-.21c.184-.342.398-.624.656-.914h.25l.101-.219a4.11 4.11 0 0 1 .524-.78H35l.125-.375h.25l.085-.206c.216-.386.495-.674.798-.996.419-.427.419-.427.742-.922h.25v-.25h.25l.101-.22a3.96 3.96 0 0 1 .524-.748l.195-.232c.18-.173.18-.173.43-.173.03-.07.062-.138.094-.21.186-.347.41-.638.656-.946l.266-.338.234-.255h.25l.125-.375h.25l.085-.206c.216-.386.495-.674.798-.996.419-.427.419-.427.742-.922h.25l.094-.212c.182-.336.402-.595.656-.88l.266-.303c.234-.229.234-.229.484-.229l.023-.21c.145-.41.414-.615.727-.914.113-.136.225-.274.336-.414l.289-.335h.25v-.25h.25l.09-.205c.203-.374.454-.684.722-1.013l.301-.373.262-.283h.25v-.25h.25l.101-.218c.153-.288.312-.534.524-.781h.25c.03-.07.062-.14.094-.21.184-.343.398-.624.656-.914h.25l.101-.219a4.11 4.11 0 0 1 .524-.78h.25l.125-.375h.25l.094-.21c.184-.341.404-.622.648-.922l.261-.325c.402-.476.402-.476.622-.667h.25l.088-.209c.204-.367.461-.64.748-.946.945-1.02.945-1.02 1.828-2.093l.21-.25h.25l.104-.225c.143-.267.287-.451.495-.67.066-.07.133-.14.2-.213l.21-.219c.488-.483.488-.483.867-1.046H58l.101-.219a4.11 4.11 0 0 1 .524-.78h.25l.101-.242c.149-.258.149-.258.524-.383l.125-.25c.125-.25.125-.25.5-.374l.117-.235c.16-.32.332-.452.633-.64h.25V1l.71-.304.4-.171C65.906-.88 71.13-.043 75.008-.04c.693 0 1.386-.002 2.08-.004.762-.002 1.525-.003 2.289-.002l.957-.002c4.51-.016 4.51-.016 5.542.672.023.327.023.327 0 .624l-.234.094c-.32.188-.356.328-.516.656-.12.16-.245.316-.375.468-.065.077-.13.153-.195.232-.18.174-.18.174-.43.174l-.094.21c-.184.341-.405.622-.648.922l-.262.325c-.401.476-.401.476-.621.667h-.25l-.086.206c-.216.385-.495.674-.797.996-.42.427-.42.427-.742.921h-.25l-.094.213c-.183.336-.402.595-.656.88l-.266.303c-.234.228-.234.228-.484.228l-.086.206c-.216.386-.495.674-.797.996-.42.427-.42.427-.742.922H77l-.1.221a3.22 3.22 0 0 1-.554.73l-.242.254-.253.262c-.742.777-1.483 1.553-2.14 2.405l-.211.25h-.25v.25H73l-.102.223c-.15.279-.306.471-.524.699l-.218.23-.227.237a220.208 220.208 0 0 0-.645.678c-.172.18-.172.18-.284.431h-.25v.25h-.25l-.102.223c-.15.279-.306.471-.524.7l-.218.23-.227.237a247.024 247.024 0 0 0-.645.677c-.172.18-.172.18-.284.431h-.25v.25H68l-.102.22c-.15.283-.315.505-.523.748-.065.077-.13.153-.195.232-.18.174-.18.174-.43.174l-.08.2c-.242.425-.568.75-.904 1.104l-.398.421-.191.203a9.685 9.685 0 0 0-.46.56l-.217.26h-.25v.25H64l-.078.199c-.247.431-.58.762-.922 1.12l-.406.43-.182.19c-.19.207-.19.207-.412.56h-.25l-.102.218a4.08 4.08 0 0 1-.523.78h-.25l-.1.225c-.157.288-.317.46-.556.681a8.687 8.687 0 0 0-1.05 1.244 3.808 3.808 0 0 1-.544.599h-.25l-.094.213c-.183.335-.402.594-.656.88l-.266.302c-.234.229-.234.229-.484.229l-.024.21c-.144.41-.413.615-.726.914-.114.137-.226.275-.336.414l-.29.336h-.25v.25H55l-.1.223c-.15.278-.307.47-.525.698l-.218.231-.227.237-.445.47-.2.208c-.172.18-.172.18-.284.43h-.25v.25h-.25l-.078.199c-.247.431-.58.763-.922 1.12l-.406.43-.182.191c-.19.206-.19.206-.412.559h-.25v.25H50l-.102.22c-.15.283-.315.505-.523.748l-.196.232c-.18.174-.18.174-.43.174v.25h-.25l-.124.374h-.25l-.092.217c-.186.333-.406.55-.682.814-.357.348-.7.697-1.023 1.077-.473.552-.99 1.056-1.51 1.563-.324.32-.324.32-.594.68l-.224.271h-.25v.25h-.25l-.125.375h-.25v.25h-.25l-.125.374h-.25v.25h-.25l-.125.375h-.25v.25h-.25l-.125.374h-.25l-.086.196a4.625 4.625 0 0 1-.485.71c-.343.48-.47.879-.43 1.468.273.812.815 1.386 1.407 1.983l.479.49.212.215c.153.185.153.185.153.435.124.04.247.082.375.125v.25h.25v.25h.25c.182.204.355.416.523.632.415.52.837.997 1.325 1.448.152.168.152.168.152.418h.25v.25l.375.124c.228.222.228.222.46.492l.237.27c.178.238.178.238.178.487h.25c.188.183.188.183.39.422l.205.237c.155.216.155.216.155.466l.213.086c.365.208.594.467.873.78l.298.332c.24.3.24.3.366.676l.375.124v.25h.25c.176.175.176.175.383.422.446.526.909 1.034 1.377 1.54.214.256.358.482.49.786h.25v.25l.375.125c.228.222.228.222.46.492l.237.269c.178.238.178.238.178.488h.25c.188.183.188.183.39.422l.205.237c.155.216.155.216.155.466l.242.101c.258.148.258.148.383.523h.25c.174.2.34.406.5.617.318.446.318.446.75.757v.25h.25c.167.166.167.166.367.406a26.421 26.421 0 0 0 1.06 1.188l.378.4c.445.477.445.477.445.754l.242.102c.258.148.258.148.383.523.166.085.332.168.5.25.236.23.236.23.46.491l.229.261c.186.247.186.247.31.622H62c.19.182.19.182.392.421.1.118.1.118.204.237.155.216.155.216.155.466l.215.087c.36.205.576.459.847.772.276.315.546.624.848.914.215.225.215.225.215.475h.25c.176.175.176.175.383.422.446.526.909 1.034 1.377 1.54.214.256.358.482.49.787h.25c.166.188.324.385.476.585.357.465.73.878 1.149 1.288.223.236.444.472.664.71l.334.361c.252.303.252.303.252.553h.25v.25H71c.19.188.19.188.406.445l.233.275.236.28a646.145 646.145 0 0 0 .43.483l.187.21c.133.18.133.18.133.43l.375.125v.25h.25c.19.213.37.433.547.656.277.35.544.685.864.997.214.221.214.221.214.47l.375.126c.2.194.2.194.398.43l.201.233c.15.211.15.211.15.461l.376.125v.25h.25c.19.212.37.432.547.656.277.35.544.685.864.997.214.22.214.22.214.47h.25c.625.684.625.684.625 1h.25c.19.188.19.188.406.445l.233.274.236.28.224.252.206.232.187.21c.133.18.133.18.133.43h.25c.19.188.19.188.406.445l.233.275.236.28.224.252a1543.346 1543.346 0 0 1 .393.441c.133.18.133.18.133.43l.375.126v.25h.25c.625.684.625.684.625.999h.25c.36.394.677.824 1 1.249l.177.232c.276.386.323.52.323 1.017-1.47.367-2.932.393-4.441.391l-.531.001h-2.929l-2.52-.001H72.55l-2.504.001h-1.491l-1.402-.001-.755.001c-1.865-.005-3.477-.27-5.023-1.391v-.25l-.203-.078a3.823 3.823 0 0 1-1.047-.921v-.25h-.25c-.174-.2-.34-.407-.5-.617-.318-.447-.318-.447-.75-.757v-.25h-.25a13.38 13.38 0 0 1-.531-.64c-.33-.415-.656-.813-1.04-1.18l-.304-.304v-.25a811.26 811.26 0 0 1-.375-.124v-.25h-.25c-.203-.206-.203-.206-.43-.477-.317-.376-.317-.376-.66-.727-.16-.17-.16-.17-.16-.42h-.25c-.189-.183-.189-.183-.39-.422l-.205-.237c-.155-.216-.155-.216-.155-.465l-.242-.102c-.258-.148-.258-.148-.383-.523a27.72 27.72 0 0 0-.5-.25c-.236-.23-.236-.23-.461-.492l-.228-.26c-.186-.247-.186-.247-.311-.622h-.25c-.203-.172-.203-.172-.375-.375v-.25h-.25c-.176-.174-.176-.174-.383-.421a46.357 46.357 0 0 0-1.402-1.564c-.215-.263-.215-.263-.215-.513h-.25v-.25h-.25c-.19-.187-.19-.187-.406-.445l-.233-.274-.236-.28-.224-.252-.206-.232-.187-.21c-.133-.18-.133-.18-.133-.43l-.225-.098c-.297-.164-.464-.33-.681-.59-.066-.075-.13-.151-.198-.23-.146-.206-.146-.206-.146-.456H45v-.25h-.25a12.765 12.765 0 0 1-.563-.656l-.3-.369c-.21-.28-.372-.53-.512-.849h-.25c-.148-.178-.148-.178-.305-.414a3.81 3.81 0 0 0-.528-.66c-.167-.175-.167-.175-.167-.425l-.227-.095c-.31-.175-.44-.34-.64-.63-.3-.43-.634-.782-1.008-1.148a55.222 55.222 0 0 1-.719-.766l-.187-.198c-.28-.303-.462-.515-.594-.91h-.25a13.86 13.86 0 0 1-.547-.656c-.277-.35-.545-.686-.864-.997-.214-.221-.214-.221-.214-.47l-.242-.102c-.258-.149-.258-.149-.383-.523H36c-.203-.206-.203-.206-.43-.477-.317-.376-.317-.376-.66-.727-.16-.17-.16-.17-.16-.42h-.25c-.203-.172-.203-.172-.375-.375v-.25h-.25c-.18-.18-.18-.18-.39-.432a42.366 42.366 0 0 0-1.5-1.652l-.262-.278c-.36-.38-.72-.76-1.097-1.122-.251-.263-.251-.263-.251-.513l-.242-.102c-.258-.148-.258-.148-.383-.523l-.25-.125c-.083-.04-.165-.082-.25-.125l-.125-.374h-.25v-.25h-.25c-.172-.175-.172-.175-.375-.422-.36-.424-.736-.82-1.133-1.21-.356-.35-.698-.7-1.016-1.085a5.792 5.792 0 0 0-.789-.78 6.467 6.467 0 0 1-1.187-1.25v-.25l-.242-.101c-.258-.149-.258-.149-.383-.523l-.25-.125-.25-.125-.125-.375-.25-.125-.25-.125-.125-.375-.5-.25a10.525 10.525 0 0 1-.508-.554 29.144 29.144 0 0 0-1.73-1.788c-.262-.28-.262-.28-.262-.53l-.625-.25v.29c-.01 5.679-.022 11.358-.035 17.036l-.005 2.046v.41c-.006 2.199-.01 4.397-.014 6.595-.004 2.255-.008 4.51-.014 6.765l-.008 4.175c-.001.955-.004 1.909-.006 2.863l-.004 1.652a381.431 381.431 0 0 1-.004 2.059c.001.899-.01 1.717-.285 2.577H18v.25c-.791.612-1.834.663-2.8.657l-.297.001c-.323.002-.646.001-.97 0l-.688.001c-.482 0-.964 0-1.446-.002-.605-.001-1.21 0-1.814.001-2.196.005-4.393 0-6.587-.108a47.174 47.174 0 0 0-.532-.023c-1.49-.059-1.49-.059-1.903-.449-.248-.381-.38-.725-.502-1.163l-.124-.431c-.087-.358-.087-.358-.087-.607H0V84.318h.375a145565.301 145565.301 0 0 0 .007-30.827v-.327a59636.516 59636.516 0 0 1 .005-21.282v-1.824a13131.162 13131.162 0 0 1 .002-9.68 3275.012 3275.012 0 0 1 .001-5.034V13.29l.001-.348v-.589c-.008-.265-.008-.265-.141-.612L0 11.617C-.006 10.4-.01 9.183-.013 7.966A319.61 319.61 0 0 0-.02 6.27a432.545 432.545 0 0 1-.008-2.26 132.15 132.15 0 0 1-.002-.873l-.002-.263c.002-.597.002-.597.28-.875l.11-.477C.483 1.02.59.717 1 .375c.967-.334 1.91-.43 2.925-.421Zm216.058.014.462-.002.508.002.535-.002h2.971l2.55.001a967.6 967.6 0 0 0 2.951 0h2.532l1.512-.001a311.043 311.043 0 0 1 1.945 0l.711.002h.403c.313.032.313.032.563.282.152.526.143 1.055.141 1.598v1.28l.001.712-.001 1.96.001 2.112v8.967l-.001 8.876v8.091l.001 9.095v11.004l-.001 1.92v.689a71.334 71.334 0 0 1-.072 3.522l-.014.316a8.224 8.224 0 0 1-.18 1.441 7.62 7.62 0 0 0 .974 4.448c.151.299.151.299.151.674h.25c.172.246.338.497.5.75l.281.343c.219.28.219.28.219.53h.25c.203.172.203.172.375.375v.25h.25c.203.172.203.172.375.375v.25l.21.089c.363.201.628.454.931.738 1.098 1.025 1.098 1.025 2.333 1.87l.276.176v.25l.22.104c.27.14.507.295.754.471l.269.192.28.2c.676.482 1.352.956 2.056 1.395l.171.136v.25l.249.085c.497.218.936.504 1.392.797a117.774 117.774 0 0 0 .768.492c.234.145.234.145.591.25v.25H252v.25l.258.03c.37.095.644.248.972.44.552.315 1.12.603 1.684.896l.372.194a37.638 37.638 0 0 0 4.918 2.16c.35.126.694.26 1.038.402 2.343.948 4.806 1.54 7.275 2.05.232.047.464.096.696.145 2.919.62 6.196 1.073 9.162.553v-.25h.25v-.25h.25c.217-.902.286-1.75.282-2.676l.001-.421c.001-.466 0-.931-.001-1.397l.002-1.012v-2.2l.002-3.27.002-5.504c0-2.505.002-5.01.005-7.515l.003-3.502v-.354c.003-2.78.004-5.56.006-8.341v-.369l.004-8.516.001-2.956v-.369l.005-8.328.001-.354.003-3.493.002-1.719v-.341c.002-1.816.002-3.632.002-5.447 0-1.824.001-3.648.003-5.471.002-1.084.002-2.168.001-3.252-.001-.724 0-1.447.002-2.171V3.977c-.001-.444 0-.888.002-1.332l-.003-.389c.006-.753.098-1.323.425-2.006.419-.264.8-.281 1.288-.283l.398-.002h.432l.458-.001c.415-.002.829-.002 1.243-.002h1.041c.82-.002 1.639-.002 2.459-.001.842 0 1.685-.001 2.527-.004.725-.002 1.451-.003 2.176-.002.432 0 .865 0 1.297-.002.483-.002.966 0 1.45 0l.427-.002c2.249.014 2.249.014 3.015.744.273.507.306.794.308 1.379l.002.26.003.87.003.622.006 1.35c.002.725.006 1.45.009 2.174l.017 3.88.029 6.448.004.757c.018 3.819.051 7.637.098 11.455.047 3.743.081 7.486.076 11.23l-.001 1.264c-.003 5.189-.036 10.377-.078 15.566-.01 1.15-.019 2.301-.027 3.452l-.003.308c-.029 4.001-.041 8.002-.051 12.002l-.009 3.588-.003.832-.006 2.226c-.006 2.137-.011 4.274-.014 6.411-.002 1.508-.005 3.016-.01 4.524-.003.83-.005 1.661-.005 2.492 0 .77-.002 1.541-.006 2.312v.842c0 .382-.002.765-.004 1.147l.002.334c-.01.961-.224 1.81-.926 2.512a5.086 5.086 0 0 1-1.773.734l-.27.059-.61.132c-.386.082-.77.169-1.154.255-1.93.428-3.862.783-5.818 1.068l-.399.06c-2.854.419-5.722.742-8.609.729l-.272-.001c-.797-.005-1.56-.023-2.345-.163-.2-.022-.4-.041-.601-.058l-.341-.029-.363-.03-.385-.033c-.621-.054-1.242-.105-1.864-.15-3.233-.242-6.425-.763-9.583-1.491a94.084 94.084 0 0 0-.951-.211c-1.496-.328-2.955-.779-4.412-1.246l-.304-.097a61.708 61.708 0 0 1-8.571-3.525l-.264-.132c-.728-.363-.728-.363-1.057-.53a22.924 22.924 0 0 0-1.554-.712v-.25l-.212-.043c-.331-.095-.596-.234-.897-.402l-.369-.206-.397-.224-.409-.228a75.362 75.362 0 0 1-2.45-1.442l-.269-.163a14.04 14.04 0 0 1-.622-.415v-.25l-.279-.103a4.767 4.767 0 0 1-.885-.498 22.794 22.794 0 0 0-1.407-.888l-.179-.135v-.25l-.297-.117c-.328-.133-.328-.133-.578-.258v-.25l-.234-.116-.516-.258v-.25l-.271-.094c-.393-.173-.684-.386-1.018-.656l-.334-.265-.252-.234v-.25l-.5-.125v-.25a54.823 54.823 0 0 0-.219-.101 4.071 4.071 0 0 1-.781-.523v-.25l-.211-.094a4.715 4.715 0 0 1-.914-.656v-.25l-.221-.1a4.02 4.02 0 0 1-.748-.524l-.232-.195c-.174-.18-.174-.18-.174-.43h-.25v-.25l-.375-.124v-.25H229v-.25l-.375-.125v-.25h-.25v-.25l-.375-.124v-.25h-.25v-.25l-.375-.125v-.25h-.25v-.25l-.375-.125v-.25h-.25a13.568 13.568 0 0 1-.516-.624 16.28 16.28 0 0 0-1.384-1.526 9.163 9.163 0 0 1-.85-.972v-.25h-.25c-.243-.265-.243-.265-.516-.61l-.274-.342c-.21-.297-.21-.297-.21-.547h-.25c-.199-.244-.199-.244-.437-.586a24.83 24.83 0 0 0-1.029-1.364 11.457 11.457 0 0 1-1.346-2.087l-.124-.244c-.772-1.602-.705-3.334-.695-5.072.004-.61.005-1.219.006-1.828v-.403c.002-1.642-.012-3.285-.025-4.928l-.009-1.045-.033-4.035-.024-2.946-.011-1.25c-.081-9.082-.014-18.167.013-27.25l.004-1.27.001-.32.012-5.181.015-5.372.008-3.29.006-2.237.004-1.289c0-.465.002-.93.004-1.395v-.41c.009-1.203.009-1.203.285-1.772.433-.289.596-.281 1.107-.282Zm108.149-.015.374-.001c.414-.002.828 0 1.242.001l.9-.001h1.956c.97.002 1.94.001 2.91 0 1.732-.001 3.465 0 5.197.001a4641.256 4641.256 0 0 0 6.081.002c3.834 0 7.667 0 11.501.003a11677.285 11677.285 0 0 0 10.863.002h2.282a15570.733 15570.733 0 0 1 10.066.002h4.244a4993.202 4993.202 0 0 1 8.364.003 860.417 860.417 0 0 1 3.036.002c1.292-.002 2.577.004 3.863.137l.268.026c.821.098 1.569.328 2.098.994.491 1.066.394 2.322.395 3.473l.002.425.003 1.378.001.478.004 2.242c0 .86.002 1.719.006 2.579.003.747.004 1.495.004 2.242l.003.951c.002.443.002.885.001 1.328l.004.396c-.004.679-.044 1.157-.423 1.747h-.25v.25c-.752.323-1.351.429-2.164.424l-.343.003c-.377.002-.754.002-1.131.001l-.813.004c-.735.003-1.469.005-2.204.005l-2.304.008c-1.454.005-2.907.009-4.361.012-1.656.003-3.311.009-4.966.014-3.405.012-6.81.02-10.214.028-.22.38-.281.653-.281 1.09l-.002.361.002.396-.001.421c-.001.468 0 .936.001 1.404v1.006a2778.642 2778.642 0 0 1 .002 5.345l.003 5.184c.002 1.657.003 3.313.003 4.97v.611c-.001 1.904 0 3.808.001 5.712l.001 1.707c0 4.276.025 8.55.091 12.825.056 3.657.081 7.313.093 10.97l.008 2.292.017 4.529.015 4.342.001.273.004 1.086.018 4.73.003.749.017 5.412.008 2.207.004 1.249.003.551c.02 3.789.02 3.789-.817 4.723-.815.726-1.89.712-2.929.696h-.311a14.166 14.166 0 0 1-1.527-.086c-.974-.09-1.95-.081-2.927-.083a377.03 377.03 0 0 1-1.066-.005 611.68 611.68 0 0 0-3.029-.015c-.62-.001-1.24-.005-1.86-.01-.234-.002-.469-.002-.704-.002-2.584.002-2.584.002-3.415-.752-.776-.855-.713-2.024-.709-3.114l-.001-.423c-.002-.47-.001-.938-.001-1.407l-.002-1.019a817.56 817.56 0 0 1-.003-2.215l-.003-3.293c-.004-1.847-.005-3.694-.007-5.54l-.005-5.486-.001-.344-.002-1.732-.015-12.27c-.003-3.972-.008-7.945-.013-11.918v-.371l-.005-3.69-.009-7.516-.001-.349-.024-23.076h-.427c-3.434.006-6.868.01-10.301.013-1.661.001-3.321.003-4.981.006l-4.343.005c-.766 0-1.532 0-2.299.002a743.694 743.694 0 0 1-2.958.004c-3.462.012-3.462.012-4.036-.46-.603-.754-.442-2.132-.44-3.037l-.002-.469-.001-1.26-.001-1.056-.001-2.492c.001-.855 0-1.71-.003-2.565-.002-.736-.003-1.473-.003-2.21.001-.438 0-.877-.002-1.315-.001-.49 0-.978.001-1.468l-.003-.436c.005-.787.024-1.434.425-2.124.764-.37 1.415-.429 2.255-.422Zm.12 133.746.262.044a6.036 6.036 0 0 1 1.613.541c.218.437.177.897.125 1.374-.301.764-.819 1.185-1.433 1.715a8.632 8.632 0 0 0-1.442 1.658h-.25l-.094.203c-.195.37-.411.709-.656 1.046h-.25l-.091.265c-.185.418-.434.761-.706 1.125-1.052 1.44-2.041 2.94-2.808 4.552-.195.407-.418.789-.645 1.178-.322.572-.638 1.147-.952 1.724a60.245 60.245 0 0 1-1.843 3.195c-.166.265-.325.532-.479.804-.182.32-.365.638-.555.953l-.153.257-.143.188h-.25l-.102.304-.148.32-.375.125c-.092.252-.092.252-.125.5h-.25l-.081.207c-.268.463-.681.795-1.079 1.148-.213.192-.213.192-.465.519.001.487.103.601.445.96l.305.289v.25l.375.124c.148.321.148.321.25.625h.25c.375.548.375.548.375.874h.25a3.3 3.3 0 0 1 .304.445l.181.291.194.318.411.662.209.337c.283.452.573.898.865 1.344 1.635 2.514 3.282 5.053 4.688 7.704.136.246.283.474.444.704.204.312.204.312.204.687h.25l.115.226c.829 1.569 1.82 3.047 2.874 4.474.226.308.389.556.511.921h.25c.375.433.375.433.375.75h.25c.173.199.339.406.5.616.317.447.317.447.75.758v.25l.216.093c.327.181.552.392.815.656l.267.266c.202.234.202.234.202.484h.25c.173.245.34.494.5.749.244-.014.244-.014.5-.125.13-.266.13-.266.25-.624a17.4 17.4 0 0 1 .289-.516c.522-.925.928-1.896 1.32-2.881.257-.642.52-1.281.781-1.92.455-1.115.906-2.231 1.352-3.349.45-1.132.914-2.257 1.383-3.381a187.304 187.304 0 0 0 2.555-6.552c.244-.651.502-1.296.757-1.942a83.434 83.434 0 0 0 1.23-3.329c.135-.39.273-.779.411-1.168l.137-.39c.127-.342.258-.679.394-1.017a92.252 92.252 0 0 0 .953-2.478c.348-.931.681-1.866 1.006-2.805.213-.613.434-1.222.666-1.828.381-.999.727-2.01 1.074-3.021.329-.953.667-1.902 1.012-2.85a107.02 107.02 0 0 0 1.212-3.527c.219-.669.459-1.323.725-1.974.108-.267.208-.536.304-.807.913-2.568.913-2.568 1.814-3.107 1.875-.341 3.943.849 5.5 1.748l.352.195.273.18v.25l.289.101c.322.143.494.25.711.524v.249l.242.102c.258.148.258.148.383.523h.25c1.348 1.619 2.143 3.4 2.824 5.371.133.385.277.763.433 1.14.456 1.112.804 2.267 1.148 3.417.989 3.29 2.041 6.584 3.208 9.814.162.448.308.896.44 1.354.159.539.356 1.053.57 1.572.216.541.4 1.093.587 1.644a123.25 123.25 0 0 0 1.263 3.476c.261.688.513 1.379.753 2.075.417 1.203.886 2.387 1.349 3.574a264.234 264.234 0 0 1 .29.744c.235.604.464 1.21.689 1.818.345.926.723 1.836 1.116 2.743.421.973.819 1.953 1.209 2.939.239.601.491 1.19.769 1.774 1.028 2.185 1.028 2.185.977 3.388-2.241 1.12-6.885.377-9.198-.37-.628-.218-1.152-.474-1.677-.879v-.25l-.243-.101c-.257-.149-.257-.149-.382-.523h-.25c-.869-1.624-1.429-3.27-1.876-5.055-.119-.448-.119-.448-.298-.893-.22-.579-.383-1.169-.544-1.768l-.193-.704c-.099-.365-.199-.729-.297-1.094-.529-1.967-.529-1.967-1.292-3.852l-.129-.279c-.161-.293-.314-.348-.621-.471l-.289-.128c-.351-.127-.621-.16-.993-.173l-.401-.015-.442-.012-.472-.014a169.283 169.283 0 0 0-9.318.007l-.414.008c-.766.027-1.343.148-2.046.452a12.59 12.59 0 0 1-.5.125v.25h-.25l-.101.274c-.15.353-.332.645-.54.967-1.244 2.131-1.838 4.686-2.586 7.023a85.847 85.847 0 0 1-1.113 3.276l-.106.289c-.576 1.551-1.301 2.974-2.804 3.8-.465.205-.944.266-1.446.329l-.353.046c-1.982.229-4.031.214-6.015.013a14.641 14.641 0 0 0-1.405-.043l-.266-.002a7.824 7.824 0 0 0-1.174.079c-2.747.373-5.663.077-7.966-1.561v-.25l-.221-.098c-1.378-.747-2.186-2.415-2.835-3.767a14.58 14.58 0 0 0-.687-1.178 22.43 22.43 0 0 1-1.151-2.117c-.292-.59-.621-1.159-.948-1.73a24.306 24.306 0 0 1-.791-1.509c-.327-.668-.721-1.271-1.142-1.884a9.365 9.365 0 0 1-.475-.77c-.756-1.364-1.721-2.625-2.672-3.857-.261-.344-.449-.662-.578-1.078h-.25c-.19-.21-.19-.21-.407-.499a86.265 86.265 0 0 0-.234-.309l-.45-.609-.199-.269-.178-.246c-.15-.209-.15-.209-.407-.316v-.25h-.25c-.145-.165-.145-.165-.313-.39a4.146 4.146 0 0 0-1.687-1.234c-.21.035-.419.076-.625.125a23.95 23.95 0 0 0-.002.271l-.041 6.561-.02 3.173-.017 2.77-.009 1.463c-.01 1.772-.021 3.545-.078 5.316l-.008.356c-.041 1.05-.279 2.079-.99 2.887-.24.214-.463.326-.757.453l-.285.126c-.705.26-1.391.253-2.133.254l-.355.001-.74.001-1.13.005-.721.001-.34.003c-1.037-.004-1.037-.004-1.499-.282l-.125-.374h-.25c-.298-.817-.284-1.593-.279-2.455v-.483c0-.442.001-.883.003-1.324.002-.477.002-.953.002-1.43l.005-2.479c.003-1.198.004-2.396.005-3.595l.008-5.847.001-.354.005-2.834.005-2.466v-.351c.004-1.939.006-3.878.008-5.817.001-1.193.003-2.386.006-3.578.002-.821.004-1.641.004-2.462l.003-1.414c.038-4.059.038-4.059-.48-8.073a13.191 13.191 0 0 1-.226-2.405l-.009-.335c.003-.818.221-1.234.751-1.862.835-.68 2.437-.845 3.482-.817 1.867.223 3.428.872 4.706 2.288.097.285.097.285.125.5h.25a250.122 250.122 0 0 1 .451.829c.604 1.463.59 2.855.57 4.412a242.164 242.164 0 0 0-.019 2.751c-.009 2.191.02 4.381.048 6.572l.012.997.019 1.578.007.588a217.144 217.144 0 0 0 .017 1.266c.004.376.004.376.145.743.969-.134 1.788-.795 2.507-1.428.368-.32.368-.32.618-.32v-.25h.25l.101-.219c.152-.288.311-.533.524-.781h.25l.125-.499h.25l.101-.273c.148-.351.308-.662.524-.976h.25l.037-.271c.1-.406.258-.667.486-1.018.506-.794.981-1.605 1.453-2.42a109.436 109.436 0 0 1 1.863-3.106c.216-.349.405-.664.536-1.055h.25l.031-.265c.115-.442.334-.737.594-1.109l.125-.375h.25l.043-.214c.092-.321.226-.574.391-.864l.191-.335a238.93 238.93 0 0 1 .408-.708c1.02-1.755 1.02-1.755 1.467-2.251h.25l.089-.213c.197-.351.437-.596.723-.88l.301-.302c.262-.229.262-.229.512-.229v-.25c.548-.374.548-.374.875-.374v-.25c2.522-1.227 4.923-1.817 7.75-1.335Zm25.125 12.452c-.51.783-.741 1.607-1 2.499-.189.606-.404 1.2-.631 1.794a50.312 50.312 0 0 0-1.07 3.143 70.093 70.093 0 0 1-.995 2.93c-.311.868-.618 1.737-.921 2.607-.074.212-.148.423-.224.634-.11.311-.218.622-.326.933l-.102.283c-.212.621-.263 1.134-.231 1.791.351.198.603.281 1.006.28l.301.001.328-.003h.347c.379 0 .758-.002 1.137-.004l.788-.001a717.96 717.96 0 0 0 2.074-.006c.705-.003 1.411-.004 2.116-.005l4.153-.012c.141-.587.067-.899-.149-1.468a18.224 18.224 0 0 0-.594-1.444 16.632 16.632 0 0 1-.586-1.515 88.038 88.038 0 0 0-1.054-2.857l-.156-.406a69.913 69.913 0 0 0-.793-1.972 26.785 26.785 0 0 1-.614-1.596c-.383-1.088-.821-2.148-1.267-3.211a53.44 53.44 0 0 1-.648-1.681c-.134-.358-.134-.358-.389-.714h-.5Zm-104.045-11.508 1.88-.001c7.025-.007 7.025-.007 10.054.322a170.51 170.51 0 0 1 1.443.151c.35.037.7.069 1.051.097 2.97.254 6.077 1.105 8.741 2.445l.517.256c.421.209.84.419 1.259.631l.974.487v.25l.625.125v.25l.273.101c.351.148.662.308.977.523v.25l.296.117c.329.133.329.133.579.258v.25l.219.099c.297.16.521.34.773.564l.245.217c.304.282.596.574.888.868l.309.306c2.953 3.053 4.08 6.967 4.691 11.062l.057.366c.3 1.958.356 3.903.364 5.88l.003.359c.014 2.096-.17 4.117-.792 6.128l-.1.334c-.064.214-.129.428-.196.642-.072.236-.142.473-.211.71-.304.998-.77 1.906-1.251 2.827-.125.243-.244.489-.363.735-.276.554-.608 1.067-.949 1.584l-.179.274-.347.527c-.104.158-.207.317-.307.477a10.25 10.25 0 0 1-.354.517h-.25l-.086.268c-.201.437-.467.719-.797 1.067-.42.423-.42.423-.742.914h-.25v.25c-.172.203-.172.203-.375.374h-.25v.25c-.172.203-.172.203-.375.375h-.25v.25c-.265.243-.265.243-.61.515l-.343.274c-.297.21-.297.21-.547.21v.25c-.241.189-.481.361-.735.531l-.226.153c-4.732 3.178-9.775 3.647-15.342 3.537l-.864-.015a242.77 242.77 0 0 1-8.094-.259l-.329-.016-.324-.016a122.578 122.578 0 0 0-3.265-.099c-1.427-.03-2.851-.064-4.275-.178a55.792 55.792 0 0 1-.343-.025c-.568-.052-.999-.116-1.453-.49-.273-.422-.281-.77-.281-1.265l-.001-.475.003-.517v-.541c0-.488.002-.976.004-1.464l.002-.922c.007-3.076.044-6.152.103-9.228.083-4.356.133-8.713.17-13.07l.002-.347c.107-7.953.107-7.953-.448-15.88-.07-.601-.093-1.203-.117-1.807-.034-.82-.078-1.631-.189-2.444.002-.32.073-.493.252-.757 2.793-.931 6.539-.395 9.456-.391Zm.919 5.138c-.629.92-.519 2.116-.517 3.187l-.001.432-.001 1.43-.001 1.027-.001 2.497-.001 2.03-.002 5.757v.626c0 1.679-.001 3.357-.003 5.035l-.002 5.173c0 .967 0 1.935-.002 2.903v2.47l-.001 1.26c-.001.456 0 .911.001 1.366l-.002.403c.004.905.079 1.623.706 2.331.388.331.855.489 1.327.671l.398.182c.542.233 1.1.373 1.672.513l.305.079c1.546.385 3.073.521 4.664.515l.256-.001c1.316-.006 2.552-.082 3.83-.413l.261-.067a20.2 20.2 0 0 0 5.489-2.307l.331-.193c.228-.136.449-.282.669-.431v-.25l.218-.101c.288-.152.534-.312.782-.523v-.25l.224-.098c.298-.164.464-.33.682-.589l.197-.231c.171-.198.171-.198.147-.456h.25c3.209-4.096 4.903-10.453 4.284-15.591-.288-2.124-.843-4.339-1.784-6.27a15.223 15.223 0 0 1-.104-.219c-.803-1.693-1.696-3.354-2.834-4.848l-.16-.209a8.976 8.976 0 0 0-.402-.47h-.25v-.25h-.25l-.125-.374h-.25v-.25H270a41.174 41.174 0 0 1-.125-.375c-.314-.152-.314-.152-.625-.25v-.25c-.206-.161-.206-.161-.477-.317l-.311-.187-.337-.198-.345-.204c-3.263-1.913-6.742-3.184-10.46-3.872l-.332-.061c-1.398-.247-2.797-.309-4.215-.321l-.445-.011c-.846-.006-1.399.026-2.078.55Zm-33.376-4.872.344.091c2.591.71 5.365 1.97 7.031 4.156.3.306.604.604.915.898 2.198 2.299 3.745 5.134 4.835 8.096l.117.304c.315.835.555 1.67.758 2.538l.097.407a55.475 55.475 0 0 1 .628 3.104c.264 1.562.296 3.129.291 4.71l.002.494a24.794 24.794 0 0 1-1.643 8.929l-.118.313a19.808 19.808 0 0 1-1.783 3.571c-.236.352-.236.352-.349.738h-.25l-.093.263c-.18.417-.405.772-.657 1.15l-.265.405-.235.305h-.25l-.078.258a4.009 4.009 0 0 1-.922 1.241h-.25l-.099.223c-.39.717-1.135 1.285-1.776 1.776h-.25l-.098.229c-.163.292-.299.416-.57.608l-.257.183-.278.19-.287.2c-2.641 1.806-5.539 3.049-8.635 3.837l-.262.069c-2.835.746-6.019.97-8.936.706a29.454 29.454 0 0 0-.892-.061c-1.303-.086-2.561-.335-3.831-.629l-.468-.107c-2.795-.671-5.373-1.872-7.72-3.523l-.232-.162a11.238 11.238 0 0 1-.534-.416v-.249h-.25v-.25l-.212-.09c-.352-.196-.597-.437-.881-.722l-.303-.301c-.229-.261-.229-.261-.229-.511h-.25v-.25h-.25c-.154-.18-.154-.18-.325-.428l-.185-.27-.193-.286-.195-.282c-.477-.7-.477-.7-.477-.983h-.25l-.536-1.073a36.186 36.186 0 0 0-.404-.784c-.912-1.739-1.443-3.62-1.935-5.513l-.071-.267c-.57-2.151-.72-4.293-.704-6.513.002-.331.002-.663.002-.994.008-3.896.008-3.896.305-5.724l.048-.307c.399-2.403 1.171-4.646 2.295-6.806l.43-.858.32-.641h.25v-.374h.25l.102-.275c.147-.346.316-.638.523-.951l.196-.299.179-.224h.25l.102-.221c.15-.282.316-.504.523-.747l.196-.233c.179-.173.179-.173.429-.173l.079-.203c.238-.412.553-.746.921-1.046h.25v-.25h.25v-.25c.433-.375.433-.375.75-.375v-.25l.5-.125v-.249c.185-.158.185-.158.445-.336l.292-.2.318-.214.326-.22c1.6-1.07 3.23-2.006 4.994-2.778l.376-.17c.968-.425 1.961-.729 2.98-1.006.172-.047.344-.094.516-.143 4.917-1.383 10.366-.981 15.253.32Zm-12.75 4.622-.454.097c-1.157.277-2.134.7-3.171 1.277l-.362.198-.263.177v.249l-.22.105c-.791.411-1.394.986-1.962 1.666-.193.228-.193.228-.497.525-.224.186-.224.186-.196.453h-.25c-.126.207-.251.415-.375.624l-.265.258c-.247.254-.31.396-.36.741h-.25c-.761 1.043-1.328 2.228-1.885 3.388-.103.211-.21.421-.318.631-.41.825-.697 1.664-.953 2.547l-.093.322c-.383 1.383-.539 2.722-.538 4.156l-.002.472v.985c0 .494-.003.988-.006 1.483-.006 2.311.157 4.457.835 6.674l.115.386c.291.944.64 1.813 1.095 2.69l.198.42c.395.831.835 1.607 1.342 2.375l.163.251c.134.197.277.388.422.577h.25l.102.221c.576 1.08 1.761 2.233 2.773 2.902h.25v.25c.267.206.532.393.813.577l.254.168c2.759 1.781 5.882 2.81 9.183 2.104.252-.07.502-.145.75-.226l.394-.125c.807-.282 1.538-.651 2.271-1.085l.251-.149c.2-.122.393-.255.584-.39v-.25l.75-.375v-.249h.25v-.25l.243-.102c.299-.134.299-.134.382-.523l.375-.125c.216-.24.216-.24.422-.531.257-.342.498-.636.805-.936.284-.292.402-.521.523-.906h.25c.177-.247.34-.493.5-.75l.269-.403a22.515 22.515 0 0 0 1.606-2.844l.187-.371c1.355-2.772 1.962-5.826 1.962-8.895 0-.249.002-.498.005-.746.001-1.138-.1-2.231-.279-3.354l-.053-.349c-.369-2.312-1.01-4.555-2.072-6.647l-.206-.433a18.932 18.932 0 0 0-1.669-2.814l-.199-.281c-1.045-1.427-2.31-2.872-3.801-3.842h-.25v-.249c-3.039-1.689-6.159-2.497-9.625-1.749Zm-60.249-3.748.343.258c.308.264.547.536.782.867v.249h.25c.58.981.983 1.88 1.271 2.989.119.441.296.84.479 1.258a68.741 68.741 0 0 0 1.078 3.311l.246.71.254.733c.28.804.558 1.609.836 2.414l.161.466c.296.859.588 1.72.873 2.584.156.467.317.933.478 1.398l.084.241.419 1.206c.259.748.511 1.493.723 2.256.101.32.101.32.276.711.194.454.355.907.509 1.375l.086.262.185.56a384.14 384.14 0 0 0 .606 1.831c.347 1.04.703 2.078 1.061 3.114a594.153 594.153 0 0 1 2.369 7.045c.25.785.25.785.631 1.512.323.121.323.121.625.125.385-.728.67-1.449.921-2.233l.232-.709.114-.353c.092-.281.186-.561.282-.84.542-1.582 1.022-3.182 1.508-4.781l.09-.294.089-.295c.337-1.107.681-2.211 1.025-3.316.226-.723.448-1.446.662-2.172.092-.297.211-.582.327-.871.158-.496.301-.997.447-1.496.052-.182.105-.363.159-.545l.157-.541c.232-.794.495-1.577.764-2.359a127.75 127.75 0 0 0 1.262-3.967l.09-.296.36-1.185c.455-1.494.915-2.987 1.386-4.476l.141-.451c.54-1.71 1.089-3.361 1.984-4.921l.148-.263c.152-.268.306-.533.461-.798l.144-.248c.117-.193.243-.379.372-.564h.25l.095-.226c.175-.31.345-.455.631-.664l.253-.189c1.248-.787 2.993-.616 4.396-.42 1.493.363 1.493.363 1.875.874.17.632.008 1.185-.29 1.749a49.967 49.967 0 0 1-1.373 2.155l-.176.265-.158.237c-.149.233-.149.233-.253.591h-.25l-.043.279c-.086.358-.201.57-.403.876-.502.811-.892 1.667-1.288 2.533l-.452.982c-.831 1.805-1.625 3.613-2.272 5.492a49.744 49.744 0 0 1-.663 1.787 44 44 0 0 0-1.296 3.874 59.075 59.075 0 0 1-.833 2.664l-.156.46a1068.324 1068.324 0 0 1-.664 1.944c-.44 1.283-.89 2.562-1.366 3.833a83.31 83.31 0 0 0-.58 1.609l-.093.265-.18.511a274.866 274.866 0 0 1-.552 1.566c-.164.441-.337.877-.513 1.313a218.146 218.146 0 0 0-.982 2.508 95.057 95.057 0 0 0-1.253 3.393c-.172.49-.352.975-.536 1.46a77.71 77.71 0 0 0-.719 1.976c-.529 1.515-1.096 3.016-1.656 4.52h-.25l-.086.281c-.199.416-.408.589-.789.843-1.619.506-3.532-.182-5-.874a12.254 12.254 0 0 1-1.5-.999l-.259-.194c-.21-.166-.21-.166-.491-.431v-.25h-.25c-.244-.264-.244-.264-.516-.609l-.274-.342c-.21-.298-.21-.298-.21-.548h-.25c-.147-.202-.147-.202-.308-.484l-.179-.311-.185-.329-.183-.318c-.552-.966-1.038-1.893-1.356-2.961l-.193-.627-.106-.344c-.22-.709-.45-1.415-.678-2.121a404.979 404.979 0 0 1-.977-3.068 39.11 39.11 0 0 0-.713-2.077 16.8 16.8 0 0 1-.336-1.115c-.293-1.037-.641-2.052-.994-3.07-.195-.564-.389-1.129-.582-1.694l-.119-.344c-.367-1.07-.727-2.142-1.084-3.216l-.085-.256-.401-1.207-.646-1.941-.196-.585-.09-.27-.184-.555a37.86 37.86 0 0 0-.632-1.767 52.163 52.163 0 0 1-.781-2.21c-.617-1.885-.617-1.885-1.373-3.717a17.846 17.846 0 0 1-.346-.834c-.796-2.003-1.736-3.922-2.763-5.815a45.53 45.53 0 0 1-1.15-2.349 27.674 27.674 0 0 1-.137-.294l-.122-.264c-.088-.202-.088-.202-.226-.327-.074-.577-.13-1.081.234-1.553 3.254-1.626 7.758-.791 10.516 1.428Z"/></g><defs><clipPath id="a"><path fill="#fff" d="M0 0h512v185H0z"/></clipPath></defs></svg>